/* XPM */
static char *_0_DinoSprites___vita2[] = {
/* columns rows colors chars-per-pixel */
"16 16 68 1 ",
"  c #2C381A",
". c #393722",
"X c #333A22",
"o c #393821",
"O c #4E3B1E",
"+ c #443922",
"@ c #483A23",
"# c #4C3E25",
"$ c #523A25",
"% c #7D3B28",
"& c #3D4525",
"* c #384825",
"= c #495329",
"- c #49522A",
"; c #4B5A2B",
": c #4F5A2C",
"> c #4F5C2C",
", c #515D2D",
"< c #525F2D",
"1 c #4A4A33",
"2 c #586630",
"3 c #586631",
"4 c #5A6932",
"5 c #5B6932",
"6 c #5D6A32",
"7 c #5D6E32",
"8 c #677736",
"9 c #636141",
"0 c #747148",
"q c #823D2B",
"w c #6D8138",
"e c #708637",
"r c #75893C",
"t c #798D3E",
"y c #7A903E",
"u c #7E953F",
"i c #7D9240",
"p c #7D9340",
"a c #7F9541",
"s c #819742",
"d c #89A144",
"f c #88A246",
"g c #89A346",
"h c #8EA841",
"j c #8DA548",
"k c #8FA94D",
"l c #93AF47",
"z c #92AA4B",
"x c #96B343",
"c c #96B149",
"v c #9AB64B",
"b c #9CB84B",
"n c #9FBC4D",
"m c #85887E",
"M c #A8966D",
"N c #A2C04F",
"B c #A3C14F",
"V c #A7C650",
"C c #A9C952",
"Z c #AFBE81",
"A c #AEC185",
"S c #CFC181",
"D c #D1C586",
"F c #D9C589",
"G c #C2CBA9",
"H c #CED6B5",
"J c #D3D5CF",
"K c None",
/* pixels */
"KKKKKKKKKKKKKKKK",
"KKKKKKKKKKKKKKKK",
"KKKKKKKKKKKKKKKK",
"KKKKKKKKKKKKKKKK",
"-5322<>;@+KKKKKK",
"3bcvnzjd#qoKKKKK",
"&dNrhGmAO%KKKKKK",
"6CNVxHJZ $oKKKKK",
",suaadkw&*KKKKKK",
"KKKK9DFMtya-KKKK",
"KKKKK1S0cc8KKKKK",
"KKKKKKe7=:KKKKKK",
"KKKKKKK5XKKKKKKK",
"KKKKKKKKKKKKKKKK",
"KKKKKKKKKKKKKKKK",
"KKKKKKKKKKKKKKKK"
};
