/* XPM */
static char *_2_DinoSprites___vita2[] = {
/* columns rows colors chars-per-pixel */
"16 16 73 1 ",
"  c #2C381A",
". c #393722",
"X c #393821",
"o c #4E3B1E",
"O c #443922",
"+ c #483A23",
"@ c #4C3E25",
"# c #523A25",
"$ c #7D3B28",
"% c #3B4325",
"& c #3B4326",
"* c #3B4425",
"= c #3C4525",
"- c #3D4525",
"; c #384825",
": c #495329",
"> c #49522A",
", c #4B5A2B",
"< c #4E5E2B",
"1 c #4F5C2C",
"2 c #515D2D",
"3 c #525F2D",
"4 c #586630",
"5 c #586631",
"6 c #5B6932",
"7 c #5D6A32",
"8 c #60663B",
"9 c #667735",
"0 c #646240",
"q c #823D2B",
"w c #6C8137",
"e c #6D8237",
"r c #75893C",
"t c #798E3D",
"y c #7D973D",
"u c #7E953F",
"i c #7B8B41",
"p c #7D9240",
"a c #7D9340",
"s c #7F9541",
"d c #7F9641",
"f c #819742",
"g c #89A144",
"h c #88A246",
"j c #89A346",
"k c #8DA744",
"l c #8EA841",
"z c #8DA548",
"x c #8FA94D",
"c c #92AA4B",
"v c #93AD49",
"b c #96B343",
"n c #96B149",
"m c #9AB64B",
"M c #9CB84B",
"N c #9FBC4D",
"B c #85887E",
"V c #AF9973",
"C c #B8BB69",
"Z c #CBBE7E",
"A c #A2C04F",
"S c #A3C14F",
"D c #A7C650",
"F c #A9C952",
"G c #AFBE81",
"H c #AEC185",
"J c #CDC184",
"K c #D5C683",
"L c #D8C588",
"P c #C2CBA9",
"I c #CED6B5",
"U c #D3D5CF",
"Y c None",
/* pixels */
"YYYYYYYYYYYYYYYY",
"YYYYYYYYYYYYYYYY",
"YYYYYYYYYYYYYYYY",
"YYYYYYYYYYYYYYYY",
">654431,+OYYYYYY",
"5MnmNczg@qXYYYYY",
"-gArlPBHo$YYYYYY",
"7FADbIUG #XYYYYY",
"2fdaujxw-;YYYYYY",
"YYYY0JLVitd:YYYY",
"YYYYY8ZKCk9YYYYY",
"YYYYYdy1ev5YYYYY",
"YYYYY&YYY*&YYYYY",
"YYYYYYYYYYYYYYYY",
"YYYYYYYYYYYYYYYY",
"YYYYYYYYYYYYYYYY"
};
