/* XPM */
static char *_4_DinoSprites___vita2[] = {
/* columns rows colors chars-per-pixel */
"16 16 74 1 ",
"  c #2F391D",
". c #30371F",
"X c #383621",
"o c #323921",
"O c #373D22",
"+ c #413A1C",
"@ c #4A3D23",
"# c #5D3D27",
"$ c #573F28",
"% c #7D3D2A",
"& c #394023",
"* c #394125",
"= c #475528",
"- c #48522A",
"; c #49522A",
": c #4B552A",
"> c #4B572C",
", c #4B582B",
"< c #4D582C",
"1 c #505E2D",
"2 c #53602E",
"3 c #54632F",
"4 c #566330",
"5 c #586530",
"6 c #5A6831",
"7 c #5D6B33",
"8 c #647135",
"9 c #667B35",
"0 c #6C7C3A",
"q c #665F44",
"w c #833C2A",
"e c #6E8137",
"r c #708437",
"t c #74853C",
"y c #768D3B",
"u c #7B903E",
"i c #7B903F",
"p c #7E9440",
"a c #82824F",
"s c #809541",
"d c #809641",
"f c #819842",
"g c #869E43",
"h c #879F43",
"j c #8C9D59",
"k c #8EA443",
"l c #8AA344",
"z c #8FA846",
"x c #90AB41",
"c c #92AC47",
"v c #92AB49",
"b c #94AA49",
"n c #95AF49",
"m c #97B445",
"M c #97B349",
"N c #98B448",
"B c #9FBD4D",
"V c #94AC59",
"C c #A0B36B",
"Z c #A0B468",
"A c #B3BD63",
"S c #BBA97F",
"D c #A3C14F",
"F c #A4C24F",
"G c #A8C750",
"H c #AACA52",
"J c #949496",
"K c #D7B58F",
"L c #B4C58D",
"P c #BBC896",
"I c #EDCA9E",
"U c #CCD3B8",
"Y c #D2DABB",
"T c None",
/* pixels */
"TTTTTTTTTTTTTTTT",
"TTTTTTTTTTTTTTTT",
"TTTTTTTTTTTTTTTT",
"TTTTTTTTTTTTTTTT",
"TTTTTTTTTTTTTTTT",
"2fpppre9$#TTTTTT",
">zMhNZjV@wTTTTTT",
"-nDhxUJL+%TTTTTT",
"7HFGmPYC XTTTTTT",
"-6530bk8<1*OTTTT",
"TTTTqSIKtlv,TTTT",
"TTTTT.Aasc:TTTTT",
"TTTTTTy=BuTTTTTT",
"TTTTTTTo4&TTTTTT",
"TTTTTTTTTTTTTTTT",
"TTTTTTTTTTTTTTTT"
};
