/* XPM */
static char *_5_DinoSprites___vita[] = {
/* columns rows colors chars-per-pixel */
"16 16 80 1 ",
"  c #2D351E",
". c #303620",
"X c #363621",
"o c #3A3722",
"O c #323921",
"+ c #333B22",
"@ c #353C22",
"# c #363E22",
"$ c #373E23",
"% c #433923",
"& c #573525",
"* c #394122",
"= c #384023",
"- c #394023",
"; c #3A4123",
": c #3B4123",
"> c #3B4225",
", c #3B4325",
"< c #3E4127",
"1 c #3B4424",
"2 c #404329",
"3 c #5F4C23",
"4 c #485329",
"5 c #49542B",
"6 c #4E5F2B",
"7 c #565B29",
"8 c #545D2F",
"9 c #58682D",
"0 c #566330",
"q c #893828",
"w c #8D3D2C",
"e c #6D8337",
"r c #6F823A",
"t c #768B3C",
"y c #778E3C",
"u c #839C3A",
"i c #829A3D",
"p c #87A03F",
"a c #87A33F",
"s c #819741",
"d c #849646",
"f c #859E40",
"g c #8CA645",
"h c #8DA844",
"j c #93AE48",
"k c #95B243",
"l c #95B346",
"z c #97B24A",
"x c #98B34A",
"c c #99B44B",
"v c #99B54B",
"b c #9BB74B",
"n c #9AB54C",
"m c #9CB94A",
"M c #9DB94C",
"N c #9DBA4C",
"B c #9FBB4D",
"V c #9EBC4C",
"C c #95A052",
"Z c #95AA57",
"A c #9CB051",
"S c #848E6A",
"D c #9A8A65",
"F c #829462",
"G c #A7AA60",
"H c #ACBF74",
"J c #A3C04E",
"K c #CFC87C",
"L c #B5B4B9",
"P c #CFAB8C",
"I c #B7C887",
"U c #B6C68C",
"Y c #BAC98D",
"T c #DCCD87",
"R c #DECB8A",
"E c #E1D28C",
"W c #CAD1BB",
"Q c #FFD5AA",
"! c #FFDBAE",
"~ c None",
/* pixels */
"~~~~~~~~~~~~~~~~",
"~~~~~~~~~~~~~~~~",
"~~~~~~~~~~~~~~~~",
"~~~~+;$;;;,;~~~~",
"~~~&8pfhMxjc>~~~",
"~~~w7USHisMr.~~~",
"~~~o3WLYkMJz;~~~",
"~~~%qFIZmnmn$~~~",
"~~~~X9ugle$,~~~~",
"~~~~~ CTET>~~~~~",
"~~~~~6GP!Q2~~~~~",
"~~~~5gAdDK;~~~~~",
"~~~~$1ym4t~~~~~~",
"~~~~~~;0+~~~~~~~",
"~~~~~~~~~~~~~~~~",
"~~~~~~~~~~~~~~~~"
};
