/* XPM */
static char *_7_DinoSprites___vita[] = {
/* columns rows colors chars-per-pixel */
"16 16 81 1 ",
"  c #2B301E",
". c #2E371D",
"X c #343A20",
"o c #343822",
"O c #353B22",
"+ c #363E21",
"@ c #353C22",
"# c #383822",
"$ c #3E3822",
"% c #383D24",
"& c #4F3624",
"* c #503724",
"= c #384023",
"- c #3B4223",
"; c #3A4522",
": c #40432A",
"> c #48532A",
", c #48522B",
"< c #4C572C",
"1 c #515525",
"2 c #5B5C2C",
"3 c #53602E",
"4 c #55632F",
"5 c #586530",
"6 c #586632",
"7 c #627433",
"8 c #657932",
"9 c #893926",
"0 c #8C3B2B",
"q c #6D8137",
"w c #6E8236",
"e c #6E8437",
"r c #6F8339",
"t c #6E803B",
"y c #758A3B",
"u c #798E3F",
"i c #7C913F",
"p c #7D9240",
"a c #7E9440",
"s c #839E3D",
"d c #86A03B",
"f c #89A43E",
"g c #809641",
"h c #829942",
"j c #839A42",
"k c #8D9E4A",
"l c #8B9C59",
"z c #8BA344",
"x c #8DA745",
"c c #8FA945",
"v c #90AA47",
"b c #92AD46",
"n c #95B346",
"m c #98B449",
"M c #9AB94A",
"N c #9DBB49",
"B c #9AA553",
"V c #9FB65D",
"C c #A0A35C",
"Z c #A5BE53",
"A c #ADB561",
"S c #A3B66D",
"D c #A3B969",
"F c #B4B966",
"G c #B6BB67",
"H c #A4C14F",
"J c #A4C24F",
"K c #A5C34F",
"L c #BFC66C",
"P c #939395",
"I c #9DAA8B",
"U c #BDCD90",
"Y c #D8C587",
"T c #E1C98F",
"R c #CFD7B9",
"E c #D3DCBC",
"W c #F6D0A5",
"Q c #FFD5AA",
"! c #FFD0AC",
"~ c #FFDDAF",
"^ c None",
/* pixels */
"^^^^^^^^^^^^^^^^",
"^^^^^^^^^^^^^^^^",
"^^^^^^^^^^^^^^^^",
"^^^^>qqygaip^^^^",
"^^^02DlVbzmh@^^^",
"^^^*1RPUfvKjX^^^",
"^^^$9IESNKKK-^^^",
"^^^#&8dsnq36X^^^",
"^^^^^=kGLFX^^^^^",
"^^^^@;C!~Q:^^^^^",
"^^^^>cBYWT%^^^^^",
"^^^^ <cMAZr^^^^^",
"^^^^^6p4.7t^^^^^",
"^^^^^^^^^^^^^^^^",
"^^^^^^^^^^^^^^^^",
"^^^^^^^^^^^^^^^^"
};
