/* XPM */
static char *_7_DinoSprites___vita2[] = {
/* columns rows colors chars-per-pixel */
"16 16 80 1 ",
"  c #29311C",
". c #2C341D",
"X c #313620",
"o c #343620",
"O c #363820",
"+ c #343E20",
"@ c #363C22",
"# c #383E23",
"$ c #63351F",
"% c #4F3623",
"& c #433822",
"* c #493923",
"= c #483C27",
"- c #673A26",
"; c #3D481F",
": c #3A4521",
"> c #3A4025",
", c #3C4527",
"< c #33402B",
"1 c #454F28",
"2 c #4A552C",
"3 c #55612F",
"4 c #576633",
"5 c #5D6939",
"6 c #647436",
"7 c #667931",
"8 c #677838",
"9 c #6B7D38",
"0 c #675F45",
"q c #676642",
"w c #6E7769",
"e c #797F6A",
"r c #8C3E2B",
"t c #6F8239",
"y c #708339",
"u c #70833B",
"i c #70833D",
"p c #73863C",
"a c #768A3B",
"s c #7C913F",
"d c #7D8349",
"f c #7E9440",
"g c #7B816A",
"h c #7B806B",
"j c #85A33A",
"k c #809641",
"l c #809741",
"z c #849B43",
"x c #849B44",
"c c #888D50",
"v c #8D9353",
"b c #929754",
"n c #89A243",
"m c #8CA545",
"M c #8CA744",
"N c #8EA745",
"B c #92AD47",
"V c #97B349",
"C c #98B649",
"Z c #9BBB49",
"A c #9CBC49",
"S c #9CB94C",
"D c #9DA955",
"F c #A0BD4D",
"G c #A2BF4E",
"H c #B1B466",
"J c #B7BE6A",
"K c #C3B677",
"L c #A4C34E",
"P c #A9C751",
"I c #F3D39F",
"U c #F6CEA4",
"Y c #F3D6A2",
"T c #F1D1A4",
"R c #FFDEB2",
"E c #CFD0CC",
"W c #CED1CC",
"Q c #FFFEFF",
"! c white",
"~ c None",
/* pixels */
"~~~~~~~~~~~~~~~~",
"~~~~~~~~~~~~~~~~",
"~~~~~~~~~~~~~~~~",
"~~~~~9kfkf7;#~~~",
"~~~~~8CBmzhh4%~~",
"~~~~~6FSn5QQ<r&~",
"~~~~~zPFLtWW=*~~",
"~~~~~2yCAjhw$-~~",
"~~~~~~~qJHv,oO~~",
"~~~~~~qTRUb:~~~~",
"~~~~~.cYYKNyX~~~",
"~~~~~>MDdZa3@~~~",
"~~~~~~@@ tp~~~~~",
"~~~~~~~~~~1~~~~~",
"~~~~~~~~~~~~~~~~",
"~~~~~~~~~~~~~~~~"
};
