/* XPM */
static char *_8_DinoSprites___vita[] = {
/* columns rows colors chars-per-pixel */
"16 16 82 1 ",
"  c #25291C",
". c #2D351E",
"X c #303620",
"o c #363621",
"O c #3A3722",
"+ c #333B22",
"@ c #353C22",
"# c #363E22",
"$ c #373E23",
"% c #433923",
"& c #573525",
"* c #384023",
"= c #394023",
"- c #3A4123",
"; c #3B4123",
": c #3B4324",
"> c #3B4225",
", c #3B4325",
"< c #3E4127",
"1 c #3C4525",
"2 c #40412A",
"3 c #5F4C23",
"4 c #455227",
"5 c #475229",
"6 c #49542B",
"7 c #4E5F2B",
"8 c #565B29",
"9 c #545D2F",
"0 c #55622E",
"q c #58682D",
"w c #893828",
"e c #8D3D2C",
"r c #6D8337",
"t c #6E8139",
"y c #6F823A",
"u c #76883F",
"i c #839C3A",
"p c #829A3D",
"a c #87A03F",
"s c #87A33F",
"d c #809741",
"f c #819741",
"g c #859E40",
"h c #918C59",
"j c #8BA544",
"k c #8DA844",
"l c #93AE48",
"z c #95B243",
"x c #95B346",
"c c #94B148",
"v c #97B24A",
"b c #98B34A",
"n c #99B44B",
"m c #99B54B",
"M c #9BB74B",
"N c #9AB54C",
"B c #9CB94A",
"V c #9DB94C",
"C c #9DBA4C",
"Z c #9FBB4D",
"A c #95A052",
"S c #95AA57",
"D c #9CB150",
"F c #A3A75E",
"G c #848E6A",
"H c #829462",
"J c #ACBF74",
"K c #A3C04E",
"L c #C8C277",
"P c #B5B4B9",
"I c #B7C887",
"U c #B6C68C",
"Y c #BAC98D",
"T c #D9C687",
"R c #DCCD87",
"E c #E1D18C",
"W c #E0C194",
"Q c #CAD1BB",
"! c #FFD4AA",
"~ c #FFD3AD",
"^ c #FFDDB0",
"/ c None",
/* pixels */
"////////////////",
"////////////////",
"////////////////",
"////+-$---,-////",
"///&9agkCnlN>///",
"///e8UGJpfCyX///",
"///O3QPYzCZn-///",
"///%wHISBnBN$///",
"////oqiaxr$>////",
"/////.ATER>/////",
"/////7F~^!2/////",
"////6jDhWL1/////",
"////$,t4ucf/////",
"//////// 50/////",
"////////////////",
"////////////////"
};
