/* XPM */
static char *_8_DinoSprites___vita2[] = {
/* columns rows colors chars-per-pixel */
"16 16 2 1 ",
"  c white",
". c None",
/* pixels */
"................",
"................",
"................",
".....        ...",
".....         ..",
".....          .",
".....         ..",
".....         ..",
".......       ..",
"......      ....",
".....        ...",
".....        ...",
"......     .....",
".......... .....",
"................",
"................"
};
