/* XPM */
static char *_9_DinoSprites___vita[] = {
/* columns rows colors chars-per-pixel */
"16 16 80 1 ",
"  c #2C301E",
". c #343A20",
"X c #343822",
"o c #353B22",
"O c #353C21",
"+ c #363E21",
"@ c #353C22",
"# c #353D23",
"$ c #373E22",
"% c #383822",
"& c #3E3822",
"* c #4F3624",
"= c #503724",
"- c #374122",
"; c #384023",
": c #3B4223",
"> c #3B4623",
", c #3C4226",
"< c #40432A",
"1 c #475129",
"2 c #49532A",
"3 c #48522B",
"4 c #4B562B",
"5 c #515525",
"6 c #5B5C2C",
"7 c #53602E",
"8 c #57672F",
"9 c #586530",
"0 c #5B6335",
"q c #606A37",
"w c #637535",
"e c #657932",
"r c #893926",
"t c #8C3B2B",
"y c #6D8137",
"u c #6E8236",
"i c #6E8437",
"p c #758A3B",
"a c #7C913F",
"s c #7D9240",
"d c #7E9440",
"f c #839E3D",
"g c #86A03B",
"h c #89A43E",
"j c #809641",
"k c #829942",
"l c #839A42",
"z c #869F42",
"x c #8D9E4A",
"c c #8B9C59",
"v c #9B9F59",
"b c #8AA244",
"n c #8BA344",
"m c #90AA47",
"M c #92AD46",
"N c #91AC48",
"B c #95B346",
"V c #98B449",
"C c #9DBB49",
"Z c #9FB65D",
"A c #A4BC54",
"S c #A3B66D",
"D c #A3B969",
"F c #B4B966",
"G c #B8BD68",
"H c #A4C14F",
"J c #A4C24F",
"K c #A5C34F",
"L c #BFC66C",
"P c #939395",
"I c #9DAA8B",
"U c #CCAF88",
"Y c #BDCD90",
"T c #E4CC91",
"R c #CFD7B9",
"E c #D3DCBC",
"W c #EFC4A1",
"Q c #FFD5AA",
"! c #FFDFB2",
"~ c None",
/* pixels */
"~~~~~~~~~~~~~~~~",
"~~~~~~~~~~~~~~~~",
"~~~~~~~~~~~~~~~~",
"~~~~2yypjdas~~~~",
"~~~t6DcZMnVl@~~~",
"~~~=5RPYhmHl.~~~",
"~~~&rIESCHKK:~~~",
"~~~%*egfBi79.~~~",
"~~~~~,nGLF.~~~~~",
"~~~~@,vW!Q<~~~~~",
"~~~~4Ns0UT,~~~~~",
"~~~~ 1nz0A-~~~~~",
"~~~~~~$#w8~~~~~~",
"~~~~~~~$4~~~~~~~",
"~~~~~~~~~~~~~~~~",
"~~~~~~~~~~~~~~~~"
};
