/* XPM */
static char *_1_DinoSprites___vita[] = {
/* columns rows colors chars-per-pixel */
"16 16 79 1 ",
"  c #29311C",
". c #2C341D",
"X c #313320",
"o c #313620",
"O c #363820",
"+ c #343A22",
"@ c #343E20",
"# c #363C22",
"$ c #473621",
"% c #4E3522",
"& c #433822",
"* c #673926",
"= c #6C3E29",
"- c #384121",
"; c #3A4025",
": c #454F28",
"> c #4A5725",
", c #4A552C",
"< c #505E2C",
"1 c #55612F",
"2 c #706D3A",
"3 c #647436",
"4 c #677838",
"5 c #6B7D38",
"6 c #675F45",
"7 c #676642",
"8 c #883929",
"9 c #6F8239",
"0 c #6E813E",
"q c #708339",
"w c #70833B",
"e c #73863C",
"r c #73873C",
"t c #768A3B",
"y c #779438",
"u c #7B9238",
"i c #7C913F",
"p c #7D8349",
"a c #758D4B",
"s c #7C9140",
"d c #829D3A",
"f c #809641",
"g c #809741",
"h c #849B43",
"j c #869E42",
"k c #888D50",
"l c #919554",
"z c #8AA345",
"x c #8CA744",
"c c #8EA745",
"v c #90AD44",
"b c #92AD47",
"n c #97B349",
"m c #98B649",
"M c #9ABA49",
"N c #9CBC49",
"B c #9CB94C",
"V c #9DA955",
"C c #99B450",
"Z c #9BB453",
"A c #A0BD4D",
"S c #A2BF4E",
"D c #A2AC59",
"F c #99AA66",
"G c #B0B266",
"H c #B7BE6A",
"J c #C3B677",
"K c #A2C04D",
"L c #A9C751",
"P c #9BA188",
"I c #BEBFB9",
"U c #F3D39F",
"Y c #D1DBB9",
"T c #D4DCBD",
"R c #F6CEA4",
"E c #F3D6A2",
"W c #F1D1A4",
"Q c #FFDEB2",
"! c None",
/* pixels */
"!!!!!!!!!!!!!!!!",
"!!!!!!!!!!!!!!!!",
"!!!!!!!!!!!!!!!!",
"!!!+>rsgsg5!!!!!",
"!!%0Funzbn4!!!!!",
"!&8aIPCjBS3!!!!!",
"!!$2YTCKSLh!!!!!",
"!!*=ydvMmq,!!!!!",
"!!Oo<DGH7!!!!!!!",
"!!!!-lRQW6!!!!!!",
"!!!owcJUEk.!!!!!",
"!!!#1tNpVx;!!!!!",
"!!!!!r9 ##!!!!!!",
"!!!!!:!!!!!!!!!!",
"!!!!!!!!!!!!!!!!",
"!!!!!!!!!!!!!!!!"
};
