/* XPM */
static char *_2_DinoSprites___vita[] = {
/* columns rows colors chars-per-pixel */
"16 16 82 1 ",
"  c #313B1D",
". c #313720",
"X c #343921",
"o c #363B23",
"O c #363D22",
"+ c #373E22",
"@ c #383822",
"# c #3E3822",
"$ c #3D3E28",
"% c #4F3624",
"& c #503724",
"* c #34401F",
"= c #384122",
"- c #394023",
"; c #394123",
": c #3B4323",
"> c #3E4626",
", c #414A26",
"< c #48522A",
"1 c #4A572B",
"2 c #4E5A2C",
"3 c #515525",
"4 c #525E2F",
"5 c #585A28",
"6 c #55612E",
"7 c #56632F",
"8 c #57642F",
"9 c #586630",
"0 c #596630",
"q c #687B36",
"w c #697151",
"e c #8C3B2B",
"r c #8C3C2B",
"t c #6C843E",
"y c #71843B",
"u c #73873B",
"i c #718839",
"p c #7A8F3F",
"a c #758841",
"s c #849F3F",
"d c #839A40",
"f c #829C40",
"g c #879F41",
"h c #849C42",
"j c #8D9E4A",
"k c #89A241",
"l c #8AA245",
"z c #8BA444",
"x c #92AD45",
"c c #93AD4A",
"v c #95B246",
"b c #9BB946",
"n c #97B249",
"m c #96B24A",
"M c #97B24A",
"N c #98B44A",
"B c #9AB04E",
"V c #9AB94A",
"C c #9FBD4D",
"Z c #9BA754",
"A c #95AC52",
"S c #9DB35C",
"D c #A0BE4E",
"F c #A1BF4E",
"G c #A2A55D",
"H c #AEB561",
"J c #B4B966",
"K c #B6BB67",
"L c #A3C14F",
"P c #A4C24F",
"I c #BFC66C",
"U c #B4C585",
"Y c #D8C587",
"T c #E4CD90",
"R c #CDD8B1",
"E c #D1DBB6",
"W c #F6D0A5",
"Q c #FFD4AA",
"! c #FFD0AC",
"~ c #FFDDAF",
"^ c #D5D6D1",
"/ c None",
/* pixels */
"////////////////",
"////////////////",
"//////279999////",
"////<agxFMnM-///",
"///e5RwSdhLy.///",
"///&3E^UbCLL-///",
"///#rtAcCLNp-///",
"///@%qksvi1/////",
"/////-jJIJo/////",
"/////*G!~Q$/////",
"////>hZYWT4/////",
"////,8lVHBi/////",
"/////Xl7 -//////",
"/////+</////////",
"////////////////",
"////////////////"
};
