/* XPM */
static char *_3_DinoSprites___vita[] = {
/* columns rows colors chars-per-pixel */
"16 16 83 1 ",
"  c #2C301E",
". c #343A20",
"X c #343822",
"o c #353B22",
"O c #363E21",
"+ c #353C22",
"@ c #363D22",
"# c #383822",
"$ c #3E3822",
"% c #4F3624",
"& c #503724",
"* c #374122",
"= c #384023",
"- c #3B4223",
"; c #3A4522",
": c #3D4326",
"> c #3C4525",
", c #404826",
"< c #40432A",
"1 c #475129",
"2 c #485129",
"3 c #49532A",
"4 c #48522B",
"5 c #515525",
"6 c #505F2B",
"7 c #505C2D",
"8 c #5B5C2C",
"9 c #53602E",
"0 c #586530",
"q c #657932",
"w c #893926",
"e c #8C3B2B",
"r c #6D8137",
"t c #6E8236",
"y c #6E8437",
"u c #758A3B",
"i c #7C913F",
"p c #7D9240",
"a c #7E9440",
"s c #839E3D",
"d c #86A03B",
"f c #89A43E",
"g c #809641",
"h c #829942",
"j c #839A42",
"k c #839B42",
"l c #8D9E4A",
"z c #8B9C59",
"x c #8AA145",
"c c #8BA344",
"v c #8CA644",
"b c #8DA845",
"n c #90AA47",
"m c #92AD46",
"M c #95B346",
"N c #98B449",
"B c #9AB84A",
"V c #9DBB49",
"C c #9AA553",
"Z c #9FB65D",
"A c #A0A35C",
"S c #A2BA52",
"D c #ADB560",
"F c #A3B66D",
"G c #A3B969",
"H c #B4B966",
"J c #B6BB67",
"K c #A4C14F",
"L c #A4C24F",
"P c #A5C34F",
"I c #BFC66C",
"U c #939395",
"Y c #9DAA8B",
"T c #BDCD90",
"R c #D8C587",
"E c #E1C98F",
"W c #CFD7B9",
"Q c #D3DCBC",
"! c #F6D0A5",
"~ c #FFD5AA",
"^ c #FFD0AC",
"/ c #FFDDAF",
"( c None",
/* pixels */
"((((((((((((((((",
"((((((((((((((((",
"((((((((((((((((",
"((((3rrugaip((((",
"(((e8GzZmcNj+(((",
"(((&5WUTfnKj.(((",
"((($wYQFVKPP-(((",
"(((#%qdsMy90.(((",
"(((((@lJIH.(((((",
"((((+;A^/~<(((((",
"((((3bCR!E:(((((",
"(((( 3vBDS*(((((",
"(((((@c76k((((((",
"(((((@4(>,((((((",
"((((((((((((((((",
"(((((((((((((((("
};
