/* XPM */
static char *_4_DinoSprites___vita[] = {
/* columns rows colors chars-per-pixel */
"16 16 83 1 ",
"  c #312F18",
". c #38331A",
"X c #313B1D",
"o c #313720",
"O c #343921",
"+ c #363B23",
"@ c #363D22",
"# c #373E22",
"$ c #383822",
"% c #3E3822",
"& c #3D3E28",
"* c #503724",
"= c #533C26",
"- c #34401F",
"; c #384122",
": c #394023",
"> c #3A4223",
", c #3B4323",
"< c #3E4626",
"1 c #414A26",
"2 c #48522A",
"3 c #49532A",
"4 c #4A572B",
"5 c #525E2C",
"6 c #525E2F",
"7 c #424D3A",
"8 c #505B32",
"9 c #55612E",
"0 c #57642F",
"q c #57652F",
"w c #556136",
"e c #556434",
"r c #586630",
"t c #596630",
"y c #737E57",
"u c #8D3D2B",
"i c #903F2D",
"p c #6D8036",
"a c #71843B",
"s c #73873B",
"d c #718839",
"f c #7A8F3F",
"g c #799038",
"h c #7A9339",
"j c #7A816A",
"k c #7B816B",
"l c #819743",
"z c #829C40",
"x c #859D42",
"c c #869844",
"v c #8AA245",
"b c #8BA444",
"n c #93B143",
"m c #96B446",
"M c #97B249",
"N c #96B24A",
"B c #97B24A",
"V c #98B44A",
"C c #9AB04E",
"Z c #9AB94A",
"A c #9BA754",
"S c #A1BF4E",
"D c #A2A65E",
"F c #AEB561",
"G c #B4B966",
"H c #B8BE68",
"J c #A3C04E",
"K c #A3C14E",
"L c #A3C14F",
"P c #A4C24F",
"I c #BFC66C",
"U c #B5B5B3",
"Y c #B6B9B1",
"T c #B7BCB1",
"R c #D8C587",
"E c #E4CD90",
"W c #F6D0A5",
"Q c #FFD4AA",
"! c #FFD0AC",
"~ c #FFDDAF",
"^ c #F2F2F4",
"/ c #FDFDFD",
"( c None",
/* pixels */
"((((((((((((((((",
"((((((((((((((((",
"((((((5rrrrr((((",
"((((38wlJBMB:(((",
"(((i.T^jfxLao(((",
"(((= Y/jnSSS:(((",
"(((%u7UpKKVh:(((",
"((($*eyhmd4(((((",
"(((((:cHIG+(((((",
"(((((;D!~Q&(((((",
"((((<zARWE5(((((",
"((((1qbZFCs(((((",
"(((((Ov9X:((((((",
"(((((#3(((((((((",
"((((((((((((((((",
"(((((((((((((((("
};
