/* XPM */
static char *_5_DinoSprites___vita[] = {
/* columns rows colors chars-per-pixel */
"16 16 2 1 ",
"  c white",
". c None",
/* pixels */
"................",
"................",
"................",
"...        .....",
"..         .....",
".          .....",
"..         .....",
"..         .....",
"..       .......",
"....      ......",
"...        .....",
"...        .....",
".....     ......",
"..... ..........",
"................",
"................"
};
