/* XPM */
static char *_7_DinoSprites___vita[] = {
/* columns rows colors chars-per-pixel */
"16 16 76 1 ",
"  c #2F391D",
". c #383621",
"X c #363C21",
"o c #363D22",
"O c #373D22",
"+ c #413A1C",
"@ c #4A3D23",
"# c #5D3D27",
"$ c #573F28",
"% c #7D3D2A",
"& c #394125",
"* c #3C4525",
"= c #404826",
"- c #485129",
"; c #48522A",
": c #49522A",
"> c #485529",
", c #4B552A",
"< c #4B572C",
"1 c #4B582B",
"2 c #4D5C2B",
"3 c #4F5F2B",
"4 c #505F2B",
"5 c #505E2D",
"6 c #53602E",
"7 c #54632F",
"8 c #586530",
"9 c #5A6831",
"0 c #5D6B33",
"q c #637034",
"w c #667B35",
"e c #6C7C3B",
"r c #645C42",
"t c #833C2A",
"y c #6E8137",
"u c #708437",
"i c #7B903F",
"p c #7E9440",
"a c #809641",
"s c #819B40",
"d c #819842",
"f c #869E43",
"g c #879F43",
"h c #8C9D59",
"j c #88A243",
"k c #8DA442",
"l c #8AA145",
"z c #8EA945",
"x c #8FA846",
"c c #90AB41",
"v c #91A648",
"b c #92AB49",
"n c #95AF49",
"m c #97B445",
"M c #97B349",
"N c #98B448",
"B c #9BA356",
"V c #94AC59",
"C c #ADB95E",
"Z c #A0B36B",
"A c #A0B468",
"S c #B1B763",
"D c #B2BC62",
"F c #A3C14F",
"G c #A4C24F",
"H c #A8C750",
"J c #AACA52",
"K c #949496",
"L c #D9B691",
"P c #B4C58D",
"I c #BBC896",
"U c #D4C889",
"Y c #F1CE9F",
"T c #CCD3B8",
"R c #D2DABB",
"E c None",
/* pixels */
"EEEEEEEEEEEEEEEE",
"EEEEEEEEEEEEEEEE",
"EEEEEEEEEEEEEEEE",
"EEEEEEEEEEEEEEEE",
"EEEEEEEEEEEEEEEE",
"EEEEEE#$wyupaid6",
"EEEEEEt@VhANfMx<",
"EEEEEE%+PKTcfFn;",
"EEEEEE. ARImJGJ0",
"EEEEo&3>qkve689;",
"EEEE1bjBLYUrEEEE",
"EEEEE,xCSD5EEEEE",
"EEEEEol26sEEEEEE",
"EEEEEo;E*=EEEEEE",
"EEEEEEEEEEEEEEEE",
"EEEEEEEEEEEEEEEE"
};
