/* XPM */
static char *_7_DinoSprites___vita2[] = {
/* columns rows colors chars-per-pixel */
"16 16 81 1 ",
"  c #2C301E",
". c #313B1D",
"X c #343A20",
"o c #343923",
"O c #353B22",
"+ c #363E21",
"@ c #353C22",
"# c #363D22",
"$ c #383822",
"% c #3E3822",
"& c #3C3F29",
"* c #4F3624",
"= c #503724",
"- c #384122",
"; c #384023",
": c #3B4223",
"> c #3A4522",
", c #475129",
"< c #48522A",
"1 c #49532A",
"2 c #48522B",
"3 c #515525",
"4 c #525E2F",
"5 c #5B5C2C",
"6 c #53602E",
"7 c #55612E",
"8 c #586530",
"9 c #657932",
"0 c #893926",
"q c #8C3B2B",
"w c #6D8137",
"e c #6E8236",
"r c #6E8437",
"t c #73873B",
"y c #758A3B",
"u c #7C913F",
"i c #7D9240",
"p c #7E9440",
"a c #839E3D",
"s c #86A03B",
"d c #89A43E",
"f c #809641",
"g c #829942",
"h c #839A42",
"j c #8D9E4A",
"k c #8B9C59",
"l c #8AA145",
"z c #8BA344",
"x c #8CA644",
"c c #8DA845",
"v c #90AA47",
"b c #92AD46",
"n c #95B346",
"m c #98B449",
"M c #9AB04E",
"N c #9AB94A",
"B c #9DBB49",
"V c #9AA553",
"C c #9FB65D",
"Z c #A0A35C",
"A c #AEB561",
"S c #A3B66D",
"D c #A3B969",
"F c #B4B966",
"G c #B6BB67",
"H c #A4C14F",
"J c #A4C24F",
"K c #A5C34F",
"L c #BFC66C",
"P c #939395",
"I c #9DAA8B",
"U c #BDCD90",
"Y c #D8C587",
"T c #E4CD90",
"R c #CFD7B9",
"E c #D3DCBC",
"W c #F6D0A5",
"Q c #FFD4AA",
"! c #FFD0AC",
"~ c #FFDDAF",
"^ c None",
/* pixels */
"^^^^^^^^^^^^^^^^",
"^^^^^^^^^^^^^^^^",
"^^^^^^^^^^^^^^^^",
"^^^^iupfyww1^^^^",
"^^^@gmzbCkD5q^^^",
"^^^OgJvdUPR3=^^^",
"^^^:JJJBSEI0%^^^",
"^^^O86rnas9=$^^^",
"^^^^^oGLGj:^^^^^",
"^^^^^&Q~!Z>@^^^^",
"^^^^^4TWYVc1^^^^",
"^^^^^tMANx, ^^^^",
"^^^^^^:.7l@^^^^^",
"^^^^^^^^^1@^^^^^",
"^^^^^^^^^^^^^^^^",
"^^^^^^^^^^^^^^^^"
};
