/* XPM */
static char *_8_DinoSprites___vita[] = {
/* columns rows colors chars-per-pixel */
"16 16 70 1 ",
"  c #2C381A",
". c #393722",
"X c #323822",
"o c #393821",
"O c #4E3B1E",
"+ c #443922",
"@ c #483A23",
"# c #4C3E25",
"$ c #523A25",
"% c #7D3B28",
"& c #3A4325",
"* c #3D4525",
"= c #384825",
"- c #404D26",
"; c #495329",
": c #49522A",
"> c #4B5A2B",
", c #4F5C2C",
"< c #515D2D",
"1 c #525F2D",
"2 c #4A4A31",
"3 c #55642D",
"4 c #586630",
"5 c #586631",
"6 c #5B6932",
"7 c #5D6A32",
"8 c #647435",
"9 c #677736",
"0 c #636141",
"q c #823D2B",
"w c #6C8137",
"e c #71823B",
"r c #73843B",
"t c #75893C",
"y c #798F3E",
"u c #7E953F",
"i c #7D9240",
"p c #7D9340",
"a c #7F9541",
"s c #819742",
"d c #89A144",
"f c #88A246",
"g c #89A346",
"h c #8EA841",
"j c #8DA548",
"k c #8FA94D",
"l c #92AA4B",
"z c #94AF48",
"x c #96B343",
"c c #96B149",
"v c #97B24B",
"b c #9AB64B",
"n c #9CB84B",
"m c #9FBC4D",
"M c #85887E",
"N c #B19C73",
"B c #B19F72",
"V c #A2C04F",
"C c #A3C14F",
"Z c #A7C650",
"A c #A9C952",
"S c #CEC07F",
"D c #AFBE81",
"F c #AEC185",
"G c #D1C586",
"H c #D8C589",
"J c #C2CBA9",
"K c #CED6B5",
"L c #D3D5CF",
"P c None",
/* pixels */
"PPPPPPPPPPPPPPPP",
"PPPPPPPPPPPPPPPP",
"PPPPPPPPPPPPPPPP",
"PPPPPPPPPPPPPPPP",
"PPPPPP+@>,16446:",
"PPPPP.q#fjlnbcn4",
"PPPPPP%OFMJhtmd*",
"PPPPPo$ DLKxZZA7",
"PPPPPP=*wkgupps3",
"PPPP:iueNHG0PPPP",
"PPPPP8ceBS2PPPPP",
"PPPPPP8c*4PPPPPP",
"PPPPPPP&XPPPPPPP",
"PPPPPPPPPPPPPPPP",
"PPPPPPPPPPPPPPPP",
"PPPPPPPPPPPPPPPP"
};
