/* XPM */
static char *_9_DinoSprites___vita2[] = {
/* columns rows colors chars-per-pixel */
"16 16 79 1 ",
"  c #2C301E",
". c #343A20",
"X c #343822",
"o c #353B22",
"O c #363E21",
"+ c #353C22",
"@ c #363E22",
"# c #383822",
"$ c #3E3822",
"% c #4F3624",
"& c #503724",
"* c #364022",
"= c #374122",
"- c #384023",
"; c #3B4223",
": c #3A4522",
"> c #3C4226",
", c #40432A",
"< c #475129",
"1 c #49532A",
"2 c #48522B",
"3 c #4E5A2C",
"4 c #515525",
"5 c #5B5C2C",
"6 c #53602E",
"7 c #586530",
"8 c #657932",
"9 c #7E7D4E",
"0 c #893926",
"q c #8C3B2B",
"w c #6D8137",
"e c #6E8236",
"r c #6E8437",
"t c #758A3B",
"y c #7C913F",
"u c #7E973E",
"i c #7C9140",
"p c #7D9240",
"a c #7E9440",
"s c #839E3D",
"d c #86A03B",
"f c #89A43E",
"g c #809641",
"h c #829942",
"j c #839A42",
"k c #8D9E4A",
"l c #8B9C59",
"z c #8BA344",
"x c #8BA544",
"c c #8DA845",
"v c #90AA47",
"b c #92AD46",
"n c #95B346",
"m c #98B449",
"M c #9DBB49",
"N c #9CA854",
"B c #9EB551",
"V c #9FB65D",
"C c #A0A35C",
"Z c #A3B66D",
"A c #A3B969",
"S c #B4B966",
"D c #B6BB67",
"F c #BEA57C",
"G c #A4C14F",
"H c #A4C24F",
"J c #A5C34F",
"K c #BFC66C",
"L c #939395",
"P c #9DAA8B",
"I c #BDCD90",
"U c #E2CA8F",
"Y c #CFD7B9",
"T c #D3DCBC",
"R c #F5CFA4",
"E c #FFD5AA",
"W c #FFD4AD",
"Q c #FFDDB0",
"! c None",
/* pixels */
"!!!!!!!!!!!!!!!!",
"!!!!!!!!!!!!!!!!",
"!!!!!!!!!!!!!!!!",
"!!!!pyagtww1!!!!",
"!!!+hmzbVlA5q!!!",
"!!!ohHvfILY4&!!!",
"!!!;HHHMZTP0$!!!",
"!!!o76rnsd8&#!!!",
"!!!!!XDKDk;!!!!!",
"!!!!!>EQWC:+!!!!",
"!!!!!>URFNc1!!!!",
"!!!!!-B9ux< !!!!",
"!!!!!!+=p3!!!!!!",
"!!!!!!!!!!!!!!!!",
"!!!!!!!!!!!!!!!!",
"!!!!!!!!!!!!!!!!"
};
