/* XPM */
static char *_0_DinoSprites___vita2[] = {
/* columns rows colors chars-per-pixel */
"16 16 85 1 ",
"  c #2C301E",
". c #303620",
"X c #353C22",
"o c #353D23",
"O c #363D22",
"+ c #363E23",
"@ c #383822",
"# c #3E3822",
"$ c #383D23",
"% c #4D3420",
"& c #503724",
"* c #374122",
"= c #374322",
"- c #384023",
"; c #394023",
": c #3A4123",
"> c #3B4123",
", c #3B4225",
"< c #3B4325",
"1 c #3D4326",
"2 c #3C4525",
"3 c #404826",
"4 c #40432A",
"5 c #475129",
"6 c #485129",
"7 c #49532A",
"8 c #48522B",
"9 c #4D5A2B",
"0 c #535728",
"q c #505F2B",
"w c #505C2D",
"e c #5C5D2F",
"r c #5B6C2C",
"t c #873823",
"y c #8C3B2B",
"u c #6F823A",
"i c #71843B",
"p c #71853B",
"a c #829A3D",
"s c #819741",
"d c #839B42",
"f c #8F8D57",
"g c #8BA541",
"h c #8AA145",
"j c #8DA044",
"k c #8CA644",
"l c #8CA841",
"z c #8DA845",
"x c #8FAA44",
"c c #93AE48",
"v c #95B243",
"b c #95B447",
"n c #98B846",
"m c #97B24A",
"M c #98B34A",
"N c #99B44B",
"B c #9BB74B",
"V c #9AB54C",
"C c #9AB84A",
"Z c #9DB94C",
"A c #9DBA4C",
"S c #9EBB4D",
"D c #9AA553",
"F c #91A953",
"G c #A0A25C",
"H c #A2BA52",
"J c #848D6A",
"K c #889763",
"L c #AAAD60",
"P c #ADB560",
"I c #B8BE69",
"U c #ACBF74",
"Y c #A3C04E",
"T c #B2B8B3",
"R c #B8B7B9",
"E c #B6C786",
"W c #B3C18A",
"Q c #BAC98D",
"! c #D8C587",
"~ c #E1C98F",
"^ c #F6D0A5",
"/ c #FFD7AB",
"( c #FFD1AC",
") c #FFDDB0",
"_ c None",
/* pixels */
"________________",
"________________",
"________________",
"____><;o9pp8____",
"___,NcMAxgley___",
"___.uAdaUJW0&___",
"___;mYAvQRTt#___",
"___;VNbnFEK%@___",
"____<,fILjr_____",
"_____4/)(G=o____",
"_____2~^!Dz8____",
"_____*HGCk5 ____",
"______drwjo_____",
"______32_8o_____",
"________________",
"________________"
};
