/* XPM */
static char *ddd0d6ec081941afe79903c9dba884b9SnFI6nP3vzUszDvi[] = {
/* columns rows colors chars-per-pixel */
"24 24 8 1 ",
"  c None",
". c #323821",
"X c #C43F31",
"o c #88A043",
"O c #9FBC4D",
"+ c #D8B78F",
"@ c #FFD7A8",
"# c white",
/* pixels */
"                        ",
"                        ",
"                        ",
"                        ",
"             .....      ",
"      .......oooo..     ",
"     .OOOOOOOoooo.X.    ",
"     .OoooOOooooo.X.    ",
"     ..OOO.Oo#.#o...    ",
"     .OOOOOOo#.#.X.     ",
"     .OOOOOOo###.X.     ",
"     .OOOOOOoooo...     ",
"     .....Oooooo.       ",
"        .@@@@+o.        ",
"        .@@@@+o...      ",
"        .@@@@+oOO.      ",
"        .O++Oooo..      ",
"        .OOOOOo..       ",
"        .Oo..Oo.        ",
"         .o. .o.        ",
"          ..  ..        ",
"                        ",
"                        ",
"                        "
};
