/* XPM */
static char *_0_DinoSprites___vita[] = {
/* columns rows colors chars-per-pixel */
"16 16 73 1 ",
"  c #2C381A",
". c #393722",
"X c #333820",
"o c #393821",
"O c #4E3B1E",
"+ c #443922",
"@ c #483A23",
"# c #4C3E25",
"$ c #523A25",
"% c #7D3B28",
"& c #394024",
"* c #3C4525",
"= c #3D4525",
"- c #384825",
"; c #495329",
": c #49522A",
"> c #495529",
", c #4B5A2B",
"< c #4F5C2C",
"1 c #515D2D",
"2 c #525F2D",
"3 c #50612B",
"4 c #51622B",
"5 c #586630",
"6 c #586631",
"7 c #5B6932",
"8 c #5D6A32",
"9 c #5D6C33",
"0 c #687937",
"q c #646140",
"w c #823D2B",
"e c #6C8137",
"r c #6D8237",
"t c #75893C",
"y c #798E3D",
"u c #7E953F",
"i c #7B8B41",
"p c #7D9240",
"a c #7D9340",
"s c #7F9541",
"d c #819742",
"f c #88974B",
"g c #89A144",
"h c #88A246",
"j c #89A246",
"k c #8CA744",
"l c #8EA841",
"z c #8DA548",
"x c #8FA94D",
"c c #92AA4B",
"v c #93AD48",
"b c #96B343",
"n c #96B149",
"m c #9AB64B",
"M c #9CB84B",
"N c #9FBC4D",
"B c #85887E",
"V c #AF9973",
"C c #B8BB69",
"Z c #A2C04F",
"A c #A3C14F",
"S c #A7C650",
"D c #A9C952",
"F c #CEC17F",
"G c #AFBE81",
"H c #AEC185",
"J c #D4C583",
"K c #D4C987",
"L c #DAC789",
"P c #C2CBA9",
"I c #CED6B5",
"U c #D3D5CF",
"Y c None",
/* pixels */
"YYYYYYYYYYYYYYYY",
"YYYYYYYYYYYYYYYY",
"YYYYYYYYYYYYYYYY",
"YYYYYYYYYYYYYYYY",
"YYYYYY+@,<27557:",
"YYYYY.w#hzcMmnM5",
"YYYYYY%OHBPltNg=",
"YYYYYo$ GUIbSSD8",
"YYYYYY-=exgsppd2",
"YYYY:syiVLKqYYYY",
"YYYYY0kCJJfYYYYY",
"YYYYYXvr43;YYYYY",
"YYYYY&9YYYYYYYYY",
"YYYYYYYYYYYYYYYY",
"YYYYYYYYYYYYYYYY",
"YYYYYYYYYYYYYYYY"
};
