/* XPM */
static char *_1_DinoSprites___vita2[] = {
/* columns rows colors chars-per-pixel */
"16 16 82 1 ",
"  c #2B331E",
". c #303620",
"X c #353622",
"o c #3A3722",
"O c #333921",
"+ c #333B22",
"@ c #363C21",
"# c #353C22",
"$ c #373E23",
"% c #433923",
"& c #573525",
"* c #384122",
"= c #384023",
"- c #394023",
"; c #3A4123",
": c #3B4123",
"> c #3B4225",
", c #3B4325",
"< c #3E4127",
"1 c #3E4626",
"2 c #3F4826",
"3 c #404A26",
"4 c #404329",
"5 c #5F4C23",
"6 c #565B29",
"7 c #545D2F",
"8 c #56642F",
"9 c #58682D",
"0 c #5A6B2F",
"q c #566330",
"w c #893828",
"e c #8D3D2C",
"r c #6D8337",
"t c #6F823A",
"y c #839C3A",
"u c #829A3D",
"i c #87A03F",
"p c #87A33F",
"a c #819741",
"s c #819840",
"d c #859E40",
"f c #879B44",
"g c #87A242",
"h c #8DA844",
"j c #92AC47",
"k c #92A44B",
"l c #93AE48",
"z c #95B243",
"x c #95B346",
"c c #97B24A",
"v c #98B34A",
"b c #99B44B",
"n c #99B54B",
"m c #9BB74B",
"M c #9AB54C",
"N c #9CB94A",
"B c #9DB94C",
"V c #9DBA4C",
"C c #9FBB4D",
"Z c #9EBC4C",
"A c #95A052",
"S c #95AA57",
"D c #A1A45C",
"F c #848E6A",
"G c #829462",
"H c #ACBF74",
"J c #A3C04E",
"K c #BCC06B",
"L c #C6C077",
"P c #B5B4B9",
"I c #B7C887",
"U c #B6C68C",
"Y c #BAC98D",
"T c #D9C687",
"R c #DCCD87",
"E c #E1D18C",
"W c #E7C897",
"Q c #CAD1BB",
"! c #FFD0AB",
"~ c #FFD4AA",
"^ c #FFDDB0",
"/ c None",
/* pixels */
"////////////////",
"////////////////",
"////////////////",
"////:,->-$-#////",
"///>blbZhdi7&///",
"///.tVsuHFU6e///",
"///-cJVzYPQ5o///",
"///-MbbNSIGw%///",
"////,#rxiy9X////",
"/////,RETA /////",
"/////4~^!D02////",
"/////-LWKks2////",
"/////-Zfgj=/////",
"//////8#2qO/////",
"////////////////",
"////////////////"
};
