/* XPM */
static char *_aad2f445ea74e7bf5656977e2179b41Qtk9ASsmsr17xWnz[] = {
/* columns rows colors chars-per-pixel */
"24 24 8 1 ",
"  c None",
". c #323821",
"X c #C43F31",
"o c #88A043",
"O c #9FBC4D",
"+ c #D8B78F",
"@ c #FFD7A8",
"# c white",
/* pixels */
"                        ",
"                        ",
"                        ",
"                        ",
"      .........         ",
"     .OOOOOOOoo...      ",
"     .OoooOOooooo..     ",
"     ..OOO.Oo#.#o.X.    ",
"     .OOOOOOo#.#o.X.    ",
"     .OOOOOOo###o...    ",
"     .OOOOOOoooo.X.     ",
"     ...OOOooooo.X.     ",
"        ..OOOooo...     ",
"        .OOOOoo..       ",
"        .@@@@+o.        ",
"        .@@@@+oO..      ",
"        .@@@@+ooO.      ",
"        .O++Oooo..      ",
"        .OOOOOo.        ",
"        .Oo..Oo.        ",
"         ... ...        ",
"                        ",
"                        ",
"                        "
};
