/* XPM */
static char *_2_DinoSprites___vita2[] = {
/* columns rows colors chars-per-pixel */
"16 16 86 1 ",
"  c #353622",
". c #3A3722",
"X c #333821",
"o c #333A21",
"O c #333B22",
"+ c #343A20",
"@ c #353B22",
"# c #343D20",
"$ c #363C21",
"% c #353C22",
"& c #383E22",
"* c #433923",
"= c #573525",
"- c #37411E",
"; c #384122",
": c #3A4123",
"> c #3B4223",
", c #3E4625",
"< c #3F4726",
"1 c #3F4826",
"2 c #3D4228",
"3 c #404329",
"4 c #545926",
"5 c #535C2C",
"6 c #604D26",
"7 c #55612F",
"8 c #56642F",
"9 c #566330",
"0 c #5B6A32",
"q c #637C32",
"w c #6A7C35",
"e c #8B3A2C",
"r c #8D3D2C",
"t c #6E8437",
"y c #768B3B",
"u c #788D3C",
"i c #7C913F",
"p c #7D9240",
"a c #7E9440",
"s c #809B3E",
"d c #87A13C",
"f c #89A43E",
"g c #809641",
"h c #829942",
"j c #839A42",
"k c #869F40",
"l c #849C42",
"z c #879B44",
"x c #8B9C59",
"c c #87A042",
"v c #87A142",
"b c #8BA344",
"n c #90AA47",
"m c #92AD46",
"M c #91A34A",
"N c #93AE48",
"B c #92B146",
"V c #96B149",
"C c #98B449",
"Z c #9DBB49",
"A c #9EBE4A",
"S c #9DB94C",
"D c #9EBC4C",
"F c #96A153",
"G c #9FB65D",
"H c #A1BE4E",
"J c #A2BF4E",
"K c #A6AA5E",
"L c #9EB267",
"P c #A3B66D",
"I c #A4C24F",
"U c #BCC06B",
"Y c #C6C077",
"T c #939396",
"R c #B4C294",
"E c #BDCD90",
"W c #D8C686",
"Q c #DCCD87",
"! c #E0D18C",
"~ c #E7C897",
"^ c #D2DBBB",
"/ c #D3DCBC",
"( c #FED0AB",
") c #FFD4AA",
"_ c #FFDDB0",
"` c None",
/* pixels */
"````````````````",
"````````````````",
"````````````````",
"````piagyw-O````",
"```%hCbmGxL5=```",
"```@hInfET^4r```",
"```>IJJZP/R6.```",
"```@7lSVldqe*```",
"`````OtABv0@````",
"`````2Q!WF#`````",
"`````3)_(Ks1````",
"`````>Y~UMu3````",
"`````>AzvN&`````",
"``````9%37O`````",
"````````````````",
"````````````````"
};
