/* XPM */
static char *_2_DinoSprites___vita[] = {
/* columns rows colors chars-per-pixel */
"16 16 76 1 ",
"  c #25291C",
". c #2F391D",
"X c #383621",
"o c #333821",
"O c #353D22",
"+ c #373D22",
"@ c #413A1C",
"# c #4A3D23",
"$ c #5D3D27",
"% c #573F28",
"& c #7D3D2A",
"* c #394125",
"= c #48522A",
"- c #49522A",
"; c #48522B",
": c #485429",
"> c #485529",
", c #4C572B",
"< c #4B572C",
"1 c #4B582B",
"2 c #505E2D",
"3 c #53602E",
"4 c #55622E",
"5 c #54632F",
"6 c #586530",
"7 c #5A6831",
"8 c #5D6B33",
"9 c #637034",
"0 c #667B35",
"q c #6C7C3A",
"w c #666045",
"e c #833C2A",
"r c #6E8137",
"t c #708437",
"y c #70833B",
"u c #728A3A",
"i c #7B903F",
"p c #7E9440",
"a c #7F9641",
"s c #81844B",
"d c #809641",
"f c #819842",
"g c #869E43",
"h c #879F43",
"j c #8C9D59",
"k c #88A143",
"l c #8EA443",
"z c #8FA846",
"x c #90AB41",
"c c #92AD47",
"v c #92AB48",
"b c #94AA49",
"n c #95AF49",
"m c #94B247",
"M c #97B445",
"N c #97B349",
"B c #98B448",
"V c #9EA657",
"C c #94AC59",
"Z c #AEB760",
"A c #A0B36B",
"S c #A0B468",
"D c #B3B964",
"F c #B9A87E",
"G c #A3C14F",
"H c #A4C24F",
"J c #A8C750",
"K c #AACA52",
"L c #949496",
"P c #DAB691",
"I c #B4C58D",
"U c #BBC896",
"Y c #EDC99E",
"T c #CCD3B8",
"R c #D2DABB",
"E c None",
/* pixels */
"EEEEEEEEEEEEEEEE",
"EEEEEEEEEEEEEEEE",
"EEEEEEEEEEEEEEEE",
"EEEEEEEEEEEEEEEE",
"EEEEEEEEEEEEEEEE",
"EEEEEE$%0rtpdif3",
"EEEEEEe#CjSBgNz<",
"EEEEEE&@ILTxgGn=",
"EEEEEEX.SRUMHHK8",
"EEEE+*2>9lbq447-",
"EEEE1vkVPYIwEEEE",
"EEEEE1csDZXEEEEE",
"EEEEEXy>umfEEEEE",
"EEEEEEEE -4EEEEE",
"EEEEEEEEEEEEEEEE",
"EEEEEEEEEEEEEEEE"
};
