/* XPM */
static char *_f01a5bcb6dc466a80f7358e115a50c2MIpl2z7LMlQyf0Il[] = {
/* columns rows colors chars-per-pixel */
"24 24 8 1 ",
"  c None",
". c #323821",
"X c #C43F31",
"o c #88A043",
"O c #9FBC4D",
"+ c #D8B78F",
"@ c #FFD7A8",
"# c white",
/* pixels */
"                        ",
"                        ",
"                        ",
"                        ",
"                        ",
"                        ",
"         .............. ",
"        ..X.ooooOOOOOOO.",
"        .X..oooooOOoooO.",
"         .X.o#.#oO.OOO..",
"        .X..o#.#oOOOOOO.",
"        ....o###oOOOOOO.",
"          ..oooooOOOOOO.",
"      ....o..oooo...... ",
"      .OOooo+@@@@.      ",
"       .ooOO.++..       ",
"        .ooo.OO.        ",
"         ....O.         ",
"           .o.          ",
"           ..           ",
"                        ",
"                        ",
"                        ",
"                        "
};
