/* XPM */
static char *_44178ab536140b5d752a4483c108141CzwbRPtiQUX3YT9Z[] = {
/* columns rows colors chars-per-pixel */
"24 24 8 1 ",
"  c None",
". c #323821",
"X c #C43F31",
"o c #88A043",
"O c #9FBC4D",
"+ c #D8B78F",
"@ c #FFD7A8",
"# c white",
/* pixels */
"                        ",
"                        ",
"                        ",
"                        ",
"      ............      ",
"     .OOOOOOOoooo..     ",
"     .OoooOOooooo.X.    ",
"     ..OOO.Oo#.#o.X.    ",
"     .OOOOOOo#.#o...    ",
"     .OOOOOOo###.X.     ",
"     .OOOOOOoooo.X.     ",
"     .....Oooooo...     ",
"        .OOOOoo..       ",
"        .@@@@+o.        ",
"        .@@@@+o...      ",
"        .@@@@+oOO.      ",
"        .O++Oooo..      ",
"        .OOOOOo..       ",
"        .Oo..Oo.        ",
"         .o. .o.        ",
"          ..  ..        ",
"                        ",
"                        ",
"                        "
};
