/* XPM */
static char *  monster_xpm[] = {
"24 24 469 2",
"  	c #192B63",
". 	c #18285D",
"+ 	c #18285E",
"@ 	c #182A62",
"# 	c #182A61",
"$ 	c #182A5E",
"% 	c #16295B",
"& 	c #16285A",
"* 	c #162A5D",
"= 	c #162A60",
"- 	c #17295E",
"; 	c #172A5F",
"> 	c #1A2D64",
", 	c #1A2D65",
"' 	c #182B63",
") 	c #182A60",
"! 	c #182B62",
"~ 	c #192C64",
"{ 	c #182B61",
"] 	c #192D63",
"^ 	c #1B2E66",
"/ 	c #192B60",
"( 	c #18275F",
"_ 	c #18265C",
": 	c #192960",
"< 	c #17295F",
"[ 	c #182C62",
"} 	c #192B61",
"| 	c #18275A",
"1 	c #1A2959",
"2 	c #212E59",
"3 	c #192D65",
"4 	c #182E66",
"5 	c #182C63",
"6 	c #172A62",
"7 	c #192B62",
"8 	c #172658",
"9 	c #19295D",
"0 	c #192C60",
"a 	c #182A5D",
"b 	c #172A5C",
"c 	c #16245A",
"d 	c #18275D",
"e 	c #16275A",
"f 	c #152758",
"g 	c #152759",
"h 	c #16285B",
"i 	c #16285C",
"j 	c #222C54",
"k 	c #272D50",
"l 	c #182753",
"m 	c #47486B",
"n 	c #273258",
"o 	c #162D62",
"p 	c #172C62",
"q 	c #1A2B63",
"r 	c #182659",
"s 	c #1A2A60",
"t 	c #182C64",
"u 	c #192C62",
"v 	c #142253",
"w 	c #152658",
"x 	c #162457",
"y 	c #152453",
"z 	c #152454",
"A 	c #142456",
"B 	c #142554",
"C 	c #16244E",
"D 	c #434467",
"E 	c #273058",
"F 	c #162757",
"G 	c #43446B",
"H 	c #3D4B62",
"I 	c #132C4C",
"J 	c #182D65",
"K 	c #192C66",
"L 	c #1A2D67",
"M 	c #18275C",
"N 	c #1A2C65",
"O 	c #192D66",
"P 	c #192D67",
"Q 	c #142455",
"R 	c #17295D",
"S 	c #172558",
"T 	c #142250",
"U 	c #152250",
"V 	c #14204C",
"W 	c #2D3254",
"X 	c #4A4D6E",
"Y 	c #19274E",
"Z 	c #162654",
"` 	c #3D4064",
" .	c #324B56",
"..	c #143432",
"+.	c #182C61",
"@.	c #182C66",
"#.	c #1A2B66",
"$.	c #1A2961",
"%.	c #19285E",
"&.	c #182B64",
"*.	c #1A2C64",
"=.	c #152452",
"-.	c #162657",
";.	c #172859",
">.	c #162456",
",.	c #162353",
"'.	c #172656",
").	c #162554",
"!.	c #19244B",
"~.	c #565580",
"{.	c #2D474A",
"].	c #12243E",
"^.	c #1E2B4C",
"/.	c #282D47",
"(.	c #344759",
"_.	c #4C5A76",
":.	c #20315F",
"<.	c #192C65",
"[.	c #1A2A61",
"}.	c #17285C",
"|.	c #162558",
"1.	c #152556",
"2.	c #162656",
"3.	c #142352",
"4.	c #152656",
"5.	c #162556",
"6.	c #1E2B45",
"7.	c #595A85",
"8.	c #47546D",
"9.	c #243142",
"0.	c #2A3248",
"a.	c #181E2F",
"b.	c #475074",
"c.	c #747DB1",
"d.	c #364470",
"e.	c #172B61",
"f.	c #172B60",
"g.	c #16295C",
"h.	c #17285B",
"i.	c #162659",
"j.	c #162758",
"k.	c #142351",
"l.	c #152554",
"m.	c #172657",
"n.	c #14244E",
"o.	c #183734",
"p.	c #545E84",
"q.	c #545B84",
"r.	c #2C3A4B",
"s.	c #090F1E",
"t.	c #060B16",
"u.	c #414B6D",
"v.	c #7682B7",
"w.	c #32475F",
"x.	c #152753",
"y.	c #17295C",
"z.	c #17295B",
"A.	c #17275A",
"B.	c #152251",
"C.	c #152451",
"D.	c #152351",
"E.	c #152553",
"F.	c #162555",
"G.	c #162655",
"H.	c #202C52",
"I.	c #545E87",
"J.	c #656C9F",
"K.	c #314056",
"L.	c #333C57",
"M.	c #030912",
"N.	c #20283C",
"O.	c #1F283B",
"P.	c #6D7DAF",
"Q.	c #294E53",
"R.	c #14294E",
"S.	c #172759",
"T.	c #18285A",
"U.	c #182759",
"V.	c #172557",
"W.	c #162352",
"X.	c #14224D",
"Y.	c #13234E",
"Z.	c #152552",
"`.	c #162756",
" +	c #152757",
".+	c #172755",
"++	c #293753",
"@+	c #505F85",
"#+	c #5B6495",
"$+	c #313F59",
"%+	c #384564",
"&+	c #2B3A52",
"*+	c #46577A",
"=+	c #222D43",
"-+	c #6073A1",
";+	c #5A739B",
">+	c #1E2E56",
",+	c #172455",
"'+	c #14214B",
")+	c #14234F",
"!+	c #152652",
"~+	c #14244B",
"{+	c #174039",
"]+	c #214D46",
"^+	c #313E58",
"/+	c #38476B",
"(+	c #384665",
"_+	c #3C4C6D",
":+	c #223445",
"<+	c #354764",
"[+	c #576E9B",
"}+	c #6683B1",
"|+	c #1E3251",
"1+	c #14224F",
"2+	c #162557",
"3+	c #152455",
"4+	c #14224B",
"5+	c #14234E",
"6+	c #13244F",
"7+	c #132450",
"8+	c #142453",
"9+	c #132640",
"0+	c #18483D",
"a+	c #154538",
"b+	c #112130",
"c+	c #42557C",
"d+	c #425172",
"e+	c #415679",
"f+	c #273A56",
"g+	c #172337",
"h+	c #47618A",
"i+	c #557A9B",
"j+	c #153A44",
"k+	c #152655",
"l+	c #152654",
"m+	c #162658",
"n+	c #12214A",
"o+	c #14244F",
"p+	c #142450",
"q+	c #132350",
"r+	c #13224E",
"s+	c #263556",
"t+	c #445B7B",
"u+	c #26434C",
"v+	c #0A1728",
"w+	c #374C6E",
"x+	c #2C4059",
"y+	c #3D577E",
"z+	c #29445C",
"A+	c #050D18",
"B+	c #2D4264",
"C+	c #4B7195",
"D+	c #1D4550",
"E+	c #15224F",
"F+	c #14234D",
"G+	c #142451",
"H+	c #162450",
"I+	c #37456D",
"J+	c #495986",
"K+	c #2C3C5B",
"L+	c #031225",
"M+	c #1A3B44",
"N+	c #2A465A",
"O+	c #2E4C74",
"P+	c #304D69",
"Q+	c #07101D",
"R+	c #071021",
"S+	c #4B6B9B",
"T+	c #486390",
"U+	c #14204B",
"V+	c #152450",
"W+	c #15234F",
"X+	c #162351",
"Y+	c #132451",
"Z+	c #132551",
"`+	c #162451",
" @	c #182651",
".@	c #3A4A72",
"+@	c #3E5079",
"@@	c #2D3C5A",
"#@	c #011129",
"$@	c #092424",
"%@	c #192D3C",
"&@	c #304A6C",
"*@	c #395679",
"=@	c #081121",
"-@	c #000918",
";@	c #1E2E46",
">@	c #47648D",
",@	c #121F46",
"'@	c #15244F",
")@	c #152350",
"!@	c #16224F",
"~@	c #15214D",
"{@	c #142550",
"]@	c #152550",
"^@	c #1B2A52",
"/@	c #334966",
"(@	c #253B51",
"_@	c #0F1C2F",
":@	c #01122A",
"<@	c #0B192B",
"[@	c #0B1726",
"}@	c #283F5A",
"|@	c #28415D",
"1@	c #061020",
"2@	c #040B19",
"3@	c #1D2E49",
"4@	c #14244C",
"5@	c #14224E",
"6@	c #15214C",
"7@	c #15204B",
"8@	c #14234C",
"9@	c #14224A",
"0@	c #14214A",
"a@	c #132049",
"b@	c #1C2A51",
"c@	c #2A485B",
"d@	c #113433",
"e@	c #02142A",
"f@	c #001229",
"g@	c #112C39",
"h@	c #193D49",
"i@	c #173254",
"j@	c #012146",
"k@	c #05162E",
"l@	c #091329",
"m@	c #070F23",
"n@	c #142137",
"o@	c #19284D",
"p@	c #16234F",
"q@	c #16234E",
"r@	c #141F49",
"s@	c #15214B",
"t@	c #132045",
"u@	c #142046",
"v@	c #121E46",
"w@	c #131F48",
"x@	c #1B294F",
"y@	c #31486E",
"z@	c #1E3348",
"A@	c #0C162D",
"B@	c #0A162E",
"C@	c #1A3949",
"D@	c #234C59",
"E@	c #5D87BC",
"F@	c #3C6597",
"G@	c #0E2A4F",
"H@	c #111F43",
"I@	c #142149",
"J@	c #15224C",
"K@	c #131F46",
"L@	c #13224D",
"M@	c #121F43",
"N@	c #131F45",
"O@	c #131D43",
"P@	c #131F47",
"Q@	c #18264B",
"R@	c #293E60",
"S@	c #16233E",
"T@	c #111C3E",
"U@	c #192949",
"V@	c #354F7B",
"W@	c #3C6188",
"X@	c #6693CA",
"Y@	c #6997CD",
"Z@	c #2D5A7B",
"`@	c #0D2641",
" #	c #13204B",
".#	c #111E43",
"+#	c #111D42",
"@#	c #101B3F",
"##	c #121C43",
"$#	c #121D41",
"%#	c #111D32",
"&#	c #111D3B",
"*#	c #121F40",
"=#	c #263F66",
"-#	c #395989",
";#	c #567FB8",
">#	c #608ECA",
",#	c #5A8BC5",
"'#	c #2E607A",
")#	c #244D6D",
"!#	c #121F42",
"~#	c #14204A",
"{#	c #14214C",
"]#	c #15224D",
"^#	c #101A3C",
"/#	c #10193B",
"(#	c #101A3D",
"_#	c #101C3D",
":#	c #111D41",
"<#	c #182748",
"[#	c #3F6297",
"}#	c #476EA9",
"|#	c #4D79AC",
"1#	c #44749C",
"2#	c #5A8ACA",
"3#	c #5080B7",
"4#	c #2F5077",
"5#	c #151F47",
"6#	c #131F49",
"7#	c #12204A",
"8#	c #122049",
"9#	c #131B41",
"0#	c #11193D",
"a#	c #111A3D",
"b#	c #111B3D",
"c#	c #111C3F",
"d#	c #121E43",
"e#	c #406196",
"f#	c #507BB6",
"g#	c #25596C",
"h#	c #346685",
"i#	c #5A8AC6",
"j#	c #365583",
"k#	c #152246",
"l#	c #121D43",
"m#	c #121E47",
"n#	c #121F48",
"o#	c #13204A",
"p#	c #131F4A",
"q#	c #151E43",
"r#	c #151E42",
"s#	c #161F43",
"t#	c #151F44",
"u#	c #152046",
"v#	c #162148",
"w#	c #17214A",
"x#	c #162149",
"y#	c #19264A",
"z#	c #263B62",
"A#	c #1B384E",
"B#	c #2F476D",
"C#	c #233459",
"D#	c #172044",
"E#	c #141D41",
"F#	c #141F44",
"G#	c #152048",
"H#	c #162048",
"I#	c #162046",
"J#	c #162146",
"K#	c #152148",
"L#	c #152149",
"M#	c #16214A",
"N#	c #252E4E",
"O#	c #252E4F",
"P#	c #263051",
"Q#	c #273254",
"R#	c #283356",
"S#	c #293356",
"T#	c #283154",
"U#	c #273053",
"V#	c #283156",
"W#	c #263254",
"X#	c #252F52",
"Y#	c #262F53",
"Z#	c #283055",
"`#	c #282F53",
" $	c #272E50",
".$	c #263053",
"+$	c #273054",
"@$	c #283053",
"#$	c #273052",
"$$	c #253154",
"%$	c #263255",
"&$	c #273156",
"*$	c #273157",
"  . + @ # $ % & * = - ; > , ' - ) ! ~ { ] ^ > / ",
"( _ : < < { ! ! [ } | 1 2 3 4 5 6 ! 7 8 9 0 a b ",
"c d + e f g h i h j k l m n o p [ ~ q r s t u ! ",
"v w e x y z A B C D E F G H I J K L q M N O 3 P ",
"Q h R S T U T V W X Y Z `  ...+.@.#.$.%.  &.  *.",
"=.-.;.>.,.'.).!.~.{.].^./.(._.:.<.~ [.$ ; - }.|.",
"1.2.).3.4.;.5.6.7.8.9.0.a.b.c.d.e.f.; g.% h.i.v ",
"j.2.k.k.l.m.n.o.p.q.r.s.t.u.v.w.x.% y.b z.A.8 B.",
"=.C.D.E.F.G.H.I.J.K.L.M.N.O.P.Q.R.j.S.h.T.U.V.W.",
"X.Y.Z.`. +.+++@+#+$+%+&+*+=+-+;+>+3.=.2.j.8 8 ,+",
"'+)+!+G.-.~+{+]+^+/+(+_+:+<+[+}+|+1+=.F.1.5.2+3+",
"4+5+6+7+8+9+0+a+b+c+d+e+f+g+h+i+j+D.l.k+l+4.m+-.",
"n+o+p+q+r+s+t+u+v+w+x+y+z+A+B+C+D+E+E.Z.Z.F.m.;.",
"F+G+E.y H+I+J+K+L+M+N+O+P+Q+R+S+T+U+V+W+H+X+,.-.",
"Y+Z+!+`+ @.@+@@@#@$@%@&@*@=@-@;@>@,@'@1+)@!@~@D.",
"{@o+]@5+^@/@(@_@:@<@[@}@|@1@-@2@3@4@C.5@5@6@7@5@",
"8@9@0@a@b@c@d@e@f@g@h@i@j@k@l@m@n@o@p@q@~@r@s@X.",
"t@u@v@w@x@y@z@A@B@C@D@E@F@G@H@I@I@I@J@J@0@K@0@L@",
"M@N@O@P@Q@R@S@T@U@V@W@X@Y@Z@`@P@7@6@'+s@0@w@a@ #",
".#+#@###$#%#&#*#=#-#;#>#,#'#)#!#~#'+'+{#]#]#{#{#",
"@#^#/#^#(#_#:#<#[#}#|#1#2#3#4#5#6#7#7#8#U+{#{#V ",
"9#0#a#b#c#d#,@Q@e#f#g#h#i#j#k#l#m#n#K@K@a@~#o#p#",
"q#r#s#t#u#v#w#x#y#z#A#B#C#D#E#F#G#H#I#J#K#L#M#M#",
"N#O#P#Q#R#S#T#U#V#W#X#Y#Z#`# $P#.$+$@$#$$$%$&$*$"};
