/* XPM */
static char * collectible_xpm[] = {
"24 24 443 2",
"  	c #192C65",
". 	c #18285D",
"+ 	c #182B63",
"@ 	c #182A62",
"# 	c #182B5E",
"$ 	c #16295A",
"% 	c #162759",
"& 	c #162A5C",
"* 	c #162A61",
"= 	c #17295E",
"- 	c #172A5F",
"; 	c #1B2E65",
"> 	c #1B2D66",
", 	c #192B63",
"' 	c #16285C",
") 	c #192A60",
"! 	c #172B62",
"~ 	c #192D66",
"{ 	c #182C62",
"] 	c #192D64",
"^ 	c #1C2F69",
"/ 	c #1A2D66",
"( 	c #192B61",
"_ 	c #182861",
": 	c #17255A",
"< 	c #1B2B62",
"[ 	c #172A60",
"} 	c #192C63",
"| 	c #192D65",
"1 	c #182E64",
"2 	c #1A2C65",
"3 	c #172759",
"4 	c #1A2B62",
"5 	c #1A2E67",
"6 	c #1A2F69",
"7 	c #192F68",
"8 	c #182C64",
"9 	c #172A62",
"0 	c #1A2C63",
"a 	c #162453",
"b 	c #1A295C",
"c 	c #192C5F",
"d 	c #182A5B",
"e 	c #17295B",
"f 	c #16245A",
"g 	c #1A285F",
"h 	c #182960",
"i 	c #152758",
"j 	c #152659",
"k 	c #16285B",
"l 	c #16295C",
"m 	c #18275B",
"n 	c #192654",
"o 	c #536B91",
"p 	c #5D799E",
"q 	c #223769",
"r 	c #182F65",
"s 	c #172C62",
"t 	c #1A2C64",
"u 	c #1B2D65",
"v 	c #172456",
"w 	c #182D66",
"x 	c #192D63",
"y 	c #132151",
"z 	c #152658",
"A 	c #16275A",
"B 	c #162456",
"C 	c #152452",
"D 	c #152455",
"E 	c #142557",
"F 	c #142555",
"G 	c #152553",
"H 	c #16234F",
"I 	c #354165",
"J 	c #88A3BE",
"K 	c #95B0C9",
"L 	c #42537B",
"M 	c #182D64",
"N 	c #192C67",
"O 	c #1A2E68",
"P 	c #1B2C65",
"Q 	c #17265A",
"R 	c #1B2E68",
"S 	c #152555",
"T 	c #17295D",
"U 	c #172B5F",
"V 	c #19265A",
"W 	c #14214E",
"X 	c #15224F",
"Y 	c #14224F",
"Z 	c #14204C",
"` 	c #15214C",
" .	c #14224D",
"..	c #435171",
"+.	c #839EBD",
"@.	c #87A5C8",
"#.	c #546684",
"$.	c #192A61",
"%.	c #192D67",
"&.	c #182C67",
"*.	c #1B2C67",
"=.	c #1A2960",
"-.	c #19275D",
";.	c #152351",
">.	c #162657",
",.	c #162352",
"'.	c #182758",
").	c #162555",
"!.	c #182552",
"~.	c #1D2C56",
"{.	c #7F97B7",
"].	c #8BA5C8",
"^.	c #2D3C66",
"/.	c #1A285C",
"(.	c #192A5F",
"_.	c #182A5F",
":.	c #18285B",
"<.	c #152457",
"[.	c #152556",
"}.	c #172656",
"|.	c #172555",
"1.	c #132251",
"2.	c #162758",
"3.	c #18295B",
"4.	c #162658",
"5.	c #162552",
"6.	c #364161",
"7.	c #909FB2",
"8.	c #99ACBE",
"9.	c #404C6B",
"0.	c #243161",
"a.	c #192C62",
"b.	c #182C63",
"c.	c #172B60",
"d.	c #17285B",
"e.	c #17275B",
"f.	c #142252",
"g.	c #17285A",
"h.	c #132250",
"i.	c #142451",
"j.	c #152554",
"k.	c #172758",
"l.	c #152657",
"m.	c #152655",
"n.	c #1B2B57",
"o.	c #3B4766",
"p.	c #2B375E",
"q.	c #7886A8",
"r.	c #8292B4",
"s.	c #2E3C61",
"t.	c #47526E",
"u.	c #24345E",
"v.	c #172A5D",
"w.	c #182759",
"x.	c #152450",
"y.	c #152250",
"z.	c #152654",
"A.	c #162454",
"B.	c #192A58",
"C.	c #45526F",
"D.	c #2F3D62",
"E.	c #8091B0",
"F.	c #899BBB",
"G.	c #34426A",
"H.	c #485573",
"I.	c #1B2C5A",
"J.	c #172859",
"K.	c #17295C",
"L.	c #18275A",
"M.	c #182658",
"N.	c #162351",
"O.	c #13234E",
"P.	c #152653",
"Q.	c #162858",
"R.	c #152858",
"S.	c #182859",
"T.	c #172553",
"U.	c #192454",
"V.	c #253763",
"W.	c #677083",
"X.	c #A0B0C4",
"Y.	c #A1B6CE",
"Z.	c #68758C",
"`.	c #2D3B69",
" +	c #18295A",
".+	c #142251",
"++	c #162451",
"@+	c #172858",
"#+	c #182659",
"$+	c #182556",
"%+	c #14214A",
"&+	c #14234F",
"*+	c #162754",
"=+	c #172756",
"-+	c #172657",
";+	c #162152",
">+	c #192758",
",+	c #192A5A",
"'+	c #434F6D",
")+	c #98A5BD",
"!+	c #99A9C5",
"~+	c #505B77",
"{+	c #13224D",
"]+	c #162556",
"^+	c #152557",
"/+	c #162557",
"(+	c #14224C",
"_+	c #14244F",
":+	c #13244E",
"<+	c #13244F",
"[+	c #152350",
"}+	c #172350",
"|+	c #182959",
"1+	c #1E2E58",
"2+	c #5B6482",
"3+	c #8BB0D5",
"4+	c #90B8DC",
"5+	c #5B6789",
"6+	c #1F2E5D",
"7+	c #152656",
"8+	c #17275A",
"9+	c #122049",
"0+	c #142550",
"a+	c #13234F",
"b+	c #142450",
"c+	c #12204A",
"d+	c #172452",
"e+	c #162756",
"f+	c #182956",
"g+	c #575F74",
"h+	c #795A7D",
"i+	c #A25976",
"j+	c #B35B75",
"k+	c #834E6E",
"l+	c #586074",
"m+	c #1D2C58",
"n+	c #152652",
"o+	c #14234D",
"p+	c #142552",
"q+	c #152453",
"r+	c #162554",
"s+	c #162654",
"t+	c #424F6C",
"u+	c #9099AB",
"v+	c #6D436E",
"w+	c #791E41",
"x+	c #891F3B",
"y+	c #773F63",
"z+	c #8B96AE",
"A+	c #475671",
"B+	c #18204D",
"C+	c #162250",
"D+	c #162450",
"E+	c #172352",
"F+	c #132553",
"G+	c #132651",
"H+	c #162452",
"I+	c #152451",
"J+	c #162652",
"K+	c #162653",
"L+	c #182855",
"M+	c #697B91",
"N+	c #A0A0CA",
"O+	c #77356A",
"P+	c #7F192F",
"Q+	c #87182A",
"R+	c #873764",
"S+	c #9293C4",
"T+	c #8195A7",
"U+	c #182752",
"V+	c #152552",
"W+	c #13224E",
"X+	c #15204B",
"Y+	c #142651",
"Z+	c #152651",
"`+	c #15244E",
" @	c #14244D",
".@	c #14244E",
"+@	c #15244F",
"@@	c #1B2A53",
"#@	c #7A9EC0",
"$@	c #B3C5E1",
"%@	c #7F68A2",
"&@	c #892740",
"*@	c #982737",
"=@	c #805D92",
"-@	c #ADBCDC",
";@	c #A5C0D0",
">@	c #263962",
",@	c #14224E",
"'@	c #15214D",
")@	c #15204A",
"!@	c #14224A",
"~@	c #15214A",
"{@	c #142049",
"]@	c #122249",
"^@	c #1B284E",
"/@	c #688AB0",
"(@	c #9EB7D6",
"_@	c #884A77",
":@	c #C72A3E",
"<@	c #D22839",
"[@	c #90355D",
"}@	c #A3B2CE",
"|@	c #90ADC6",
"1@	c #243760",
"2@	c #152551",
"3@	c #162350",
"4@	c #16224E",
"5@	c #141F48",
"6@	c #15214B",
"7@	c #14234E",
"8@	c #132045",
"9@	c #152047",
"0@	c #121E45",
"a@	c #131F48",
"b@	c #13214A",
"c@	c #122048",
"d@	c #162248",
"e@	c #4F6A91",
"f@	c #6874B2",
"g@	c #BA3453",
"h@	c #E73845",
"i@	c #E13243",
"j@	c #C42945",
"k@	c #726BA8",
"l@	c #59759D",
"m@	c #1B2B55",
"n@	c #15224D",
"o@	c #15224C",
"p@	c #15234C",
"q@	c #15224B",
"r@	c #131F43",
"s@	c #142046",
"t@	c #131D43",
"u@	c #142048",
"v@	c #132048",
"w@	c #111E44",
"x@	c #131F44",
"y@	c #32436D",
"z@	c #3F509A",
"A@	c #734E84",
"B@	c #573375",
"C@	c #44206F",
"D@	c #5C2E71",
"E@	c #3F4892",
"F@	c #374A7C",
"G@	c #19244E",
"H@	c #16214C",
"I@	c #14214B",
"J@	c #131F46",
"K@	c #132049",
"L@	c #13204B",
"M@	c #111F44",
"N@	c #121E43",
"O@	c #101B3E",
"P@	c #131D44",
"Q@	c #121D46",
"R@	c #121D44",
"S@	c #121E41",
"T@	c #111D41",
"U@	c #172547",
"V@	c #3B517E",
"W@	c #495A97",
"X@	c #2F3376",
"Y@	c #2E337A",
"Z@	c #3F4E91",
"`@	c #3C5281",
" #	c #1B264F",
".#	c #14214D",
"+#	c #16224F",
"@#	c #0F193A",
"##	c #10193A",
"$#	c #101A3B",
"%#	c #101A3C",
"&#	c #111D40",
"*#	c #121E42",
"=#	c #111C3F",
"-#	c #131B3E",
";#	c #1A2247",
">#	c #202953",
",#	c #242C5C",
"'#	c #1D2652",
")#	c #141C46",
"!#	c #151D47",
"~#	c #131F4A",
"{#	c #12204B",
"]#	c #14214C",
"^#	c #141B42",
"/#	c #11193D",
"(#	c #121A3D",
"_#	c #111B3C",
":#	c #121C3E",
"<#	c #121E44",
"[#	c #122047",
"}#	c #121C41",
"|#	c #121D41",
"1#	c #121D42",
"2#	c #111C41",
"3#	c #141C43",
"4#	c #101A3E",
"5#	c #121E48",
"6#	c #121F49",
"7#	c #131F45",
"8#	c #14204A",
"9#	c #131B40",
"0#	c #141D43",
"a#	c #131D42",
"b#	c #141F47",
"c#	c #151F49",
"d#	c #131E46",
"e#	c #121C42",
"f#	c #141B41",
"g#	c #111A3E",
"h#	c #111D42",
"i#	c #131E47",
"j#	c #131E44",
"k#	c #141E44",
"l#	c #121F46",
"m#	c #131F47",
"n#	c #283150",
"o#	c #283151",
"p#	c #293354",
"q#	c #2B3557",
"r#	c #2B3659",
"s#	c #2C3658",
"t#	c #2B3456",
"u#	c #2A3355",
"v#	c #2C3459",
"w#	c #2A3556",
"x#	c #293357",
"y#	c #2A3357",
"z#	c #2B3357",
"A#	c #2B3256",
"B#	c #2A3153",
"C#	c #293353",
"D#	c #293356",
"E#	c #2B3356",
"F#	c #2B3355",
"G#	c #2A3354",
"H#	c #283456",
"I#	c #293558",
"J#	c #2A3459",
"  . . + @ # $ % & * = - ; > , ' ) ! ~ { ] ^ / ( ",
"_ : < [ - }   | 1 2 3 4 5 6 7 8 9 + 0 a b c d e ",
"f g h % i j k k l m n o p q r s { t u v < w x + ",
"y z A B C D E F G H I J K L M ~ N O P Q R O | O ",
"S T U V W X Y Z `  ...+.@.#.$.%.&.*.=.-.  8 t > ",
";.>.d B ,.'.).H H !.~.{.].^./.~ ~   < (._.- :.<.",
"[.}.|.1.2.3.4.a 5.~.6.7.8.9.0.a.b.c._.l $ d.e.f.",
"g.3 h.i.j.k.l.m.n.o.p.q.r.s.t.u.e l T v.e e.w.X ",
"C x.y.G ).}.z.A.B.C.D.E.F.G.H.I.2.J.g.K.3.L.M.N.",
" .O.P.Q.R.S.T.U.S.V.W.X.Y.Z.`. +4..+++>.@+k.#+$+",
"%+&+*+=+2.-+;+>+m ,+'+)+!+~+3.J.k.{+a ]+^+]+/+D ",
"(+_+:+<+j.[+}+'.|+1+2+3+4+5+6+S.|.y.7+7+z.7+8+>.",
"9+0+i.a+b+c+d+e+f+g+h+i+j+k+l+m+y.,.m.P.n+).3 e ",
"o+p+z.S q+r+r+s+t+u+v+w+x+y+z+A+B+C+x.H D+E+,.4.",
"F+G+n+H+I+J+K+L+M+N+O+P+Q+R+S+T+U+V+x.W+C }+X+H+",
"Y+0+Z+`+ @.@+@@@#@$@%@&@*@=@-@;@>@K+5.,@Y '@)@&+",
" @!@~@{@]@!@%+^@/@(@_@:@<@[@}@|@1@2@3@H 4@5@6@7@",
"8@9@0@a@b@(+c@d@e@f@g@h@i@j@k@l@m@n@o@p@!@0@q@O.",
"r@s@t@u@b@v@w@x@y@z@A@B@C@D@E@F@G@H@I@6@~@J@K@L@",
"M@N@O@P@Q@R@S@T@U@V@W@X@Y@Z@`@ #6@I@I@.#+#H  ..#",
"O@@###$#%#&#N@*#=#-#;#>#,#'#)#!#~#{#{#9+I@.#]#]#",
"^#/#(#_#:#<#[#J@N@}#|#1#2#3#4#<#5#6#7#J@8#8#L@~#",
"}#9#0#a#<#b#c#a@d#0@0@e#e#f#g#h#Q@i#j#k#l#m#5@a@",
"n#o#p#q#r#s#t#u#v#w#x#y#z#A#B#C#D#E#F#G#H#I#J#J#"};
