/* XPM */
static char *fc0aa700a5664b9df1539bce0ef90830gtBtDp2AwPTzkrUC[] = {
/* columns rows colors chars-per-pixel */
"24 24 19 1 ",
"  c #25131A",
". c #575F0F",
"X c #564D11",
"o c #5B5112",
"O c #515810",
"+ c #5C5916",
"@ c #675F0F",
"# c #605D17",
"$ c #766F0D",
"% c #7B730E",
"& c #6C6310",
"* c #6B6A14",
"= c #692464",
"- c #847E0C",
"; c #CC2F7B",
": c #FF5277",
"> c #88810D",
", c #FF94AB",
"< c #DFE0E8",
/* pixels */
"@$oXXX&@@%@+@&X+ooX@X@@&",
"@@&oooXX&XX@@*&Xo@o@X@OO",
"@X$%&&X@O++@X#@&@OX&@OXX",
"XXX+&X&@X+O@X+@&oX@$&XXX",
"OXXoX&&O&@X@o+@oX&$@X&+X",
"&&+oX@+@@&@@&X&XXX&@OXo&",
"Xo&@@@oo+@&  +@.O@@oOX@X",
"X+oO@@&$oX ,: $@$$-%@X@o",
"%@@o%&X@@ :,,: X@X@X@$%$",
"o@$@o&&X ;::<,; $X+XooXX",
"+@$@%O+ ;::::<,: X@XXo@+",
"@&XX&@ ;:::::,<,: @OoOoo",
">oo&@@ ::,<,<<<<, @&XXoo",
"@Xoo%$ =;;;;::;;= oo@@+X",
"OX&&X&X =:::,,<; @OOXXo@",
"%%@+oooX =:,,<; @&X@&&Xo",
"%&++%%+oX ;,:; Oo@XXX&X@",
"&%%>&@+%&X ;: +&$&XX&@O&",
"oXo@@O%%$%@  Xoo@@O$&$@+",
"X%@&@OoX&O%&XoX@&XXo$-$X",
">$@&XXoX+%-@&+oX@oOo@X@$",
"o@XO&&XoX@&@&o&X@XO@oXo@",
"+X$@X&OX&o@&@@&&OX&&@oXX",
"XXX@o@&@$X&X+@XO&&@ooOX$"
};
