/* XPM */
static char * down_xpm[] = {
"24 24 475 2",
"  	c #192C65",
". 	c #18285D",
"+ 	c #182B63",
"@ 	c #182A62",
"# 	c #182B5E",
"$ 	c #16295A",
"% 	c #162759",
"& 	c #162A5C",
"* 	c #162A60",
"= 	c #17295D",
"- 	c #172A5F",
"; 	c #1B2E65",
"> 	c #1B2D66",
", 	c #192B63",
"' 	c #16285C",
") 	c #192A60",
"! 	c #172B62",
"~ 	c #192D66",
"{ 	c #182C62",
"] 	c #192D64",
"^ 	c #1C2F69",
"/ 	c #1A2D66",
"( 	c #192B61",
"_ 	c #182861",
": 	c #17255A",
"< 	c #1B2B62",
"[ 	c #172A60",
"} 	c #192C63",
"| 	c #192D65",
"1 	c #182D63",
"2 	c #192B62",
"3 	c #162756",
"4 	c #192A5F",
"5 	c #1A2D65",
"6 	c #1A2F69",
"7 	c #192F68",
"8 	c #182C64",
"9 	c #172A62",
"0 	c #1A2C63",
"a 	c #162453",
"b 	c #1A295C",
"c 	c #192C5F",
"d 	c #182A5B",
"e 	c #17295B",
"f 	c #16245A",
"g 	c #1A285F",
"h 	c #182960",
"i 	c #152758",
"j 	c #152659",
"k 	c #16275A",
"l 	c #14244E",
"m 	c #101C3A",
"n 	c #0D1226",
"o 	c #14192B",
"p 	c #191F34",
"q 	c #131C33",
"r 	c #14234A",
"s 	c #162C5F",
"t 	c #172C62",
"u 	c #1A2C64",
"v 	c #1B2D65",
"w 	c #172456",
"x 	c #182D66",
"y 	c #192D63",
"z 	c #132151",
"A 	c #152658",
"B 	c #162456",
"C 	c #152452",
"D 	c #152454",
"E 	c #122047",
"F 	c #0A0A11",
"G 	c #171515",
"H 	c #202020",
"I 	c #7B7E80",
"J 	c #94979A",
"K 	c #525252",
"L 	c #0A0A0C",
"M 	c #121E3D",
"N 	c #192C67",
"O 	c #1A2E68",
"P 	c #1B2C65",
"Q 	c #17265A",
"R 	c #1B2E68",
"S 	c #152555",
"T 	c #172B5F",
"U 	c #19265A",
"V 	c #14214E",
"W 	c #15224F",
"X 	c #0E1428",
"Y 	c #070404",
"Z 	c #333231",
"` 	c #8D9092",
" .	c #BBC1C4",
"..	c #B6BCBF",
"+.	c #818385",
"@.	c #151314",
"#.	c #0A0C12",
"$.	c #172959",
"%.	c #182C67",
"&.	c #1B2C67",
"*.	c #1A2960",
"=.	c #19275D",
"-.	c #152351",
";.	c #162657",
">.	c #162352",
",.	c #162450",
"'.	c #0B0D18",
").	c #060301",
"!.	c #0A0807",
"~.	c #868889",
"{.	c #7C7D7E",
"].	c #464646",
"^.	c #555555",
"/.	c #1E1B1A",
"(.	c #050405",
"_.	c #111D3B",
":.	c #182A5F",
"<.	c #18285B",
"[.	c #152457",
"}.	c #152556",
"|.	c #172656",
"1.	c #172555",
"2.	c #132251",
"3.	c #162757",
"4.	c #131E3F",
"5.	c #070505",
"6.	c #070301",
"7.	c #070605",
"8.	c #1C1B1A",
"9.	c #080503",
"0.	c #070403",
"a.	c #070302",
"b.	c #060200",
"c.	c #0B0F19",
"d.	c #172B5E",
"e.	c #172B60",
"f.	c #16295C",
"g.	c #17285B",
"h.	c #17275B",
"i.	c #142252",
"j.	c #17285A",
"k.	c #172759",
"l.	c #132250",
"m.	c #142451",
"n.	c #152453",
"o.	c #121C3B",
"p.	c #070504",
"q.	c #050201",
"r.	c #080402",
"s.	c #070402",
"t.	c #090503",
"u.	c #0A0B13",
"v.	c #152651",
"w.	c #172A5D",
"x.	c #182759",
"y.	c #152450",
"z.	c #152250",
"A.	c #152552",
"B.	c #152553",
"C.	c #0F162D",
"D.	c #50413A",
"E.	c #52443F",
"F.	c #120D0A",
"G.	c #1F1B18",
"H.	c #7E6459",
"I.	c #32251D",
"J.	c #08070B",
"K.	c #132249",
"L.	c #172858",
"M.	c #17295C",
"N.	c #18295B",
"O.	c #18275A",
"P.	c #182658",
"Q.	c #162351",
"R.	c #14224D",
"S.	c #13234E",
"T.	c #152653",
"U.	c #162858",
"V.	c #152857",
"W.	c #131D3D",
"X.	c #080606",
"Y.	c #14110E",
"Z.	c #665D5A",
"`.	c #5D5A61",
" +	c #674D3E",
".+	c #88776B",
"++	c #6F666C",
"@+	c #433E38",
"#+	c #040201",
"$+	c #0B0E18",
"%+	c #142251",
"&+	c #162451",
"*+	c #172758",
"=+	c #182659",
"-+	c #182556",
";+	c #14214A",
">+	c #14234F",
",+	c #162754",
"'+	c #172756",
")+	c #162551",
"!+	c #0B0C15",
"~+	c #171412",
"{+	c #91867E",
"]+	c #B5AEA5",
"^+	c #DEB99F",
"/+	c #E1BCA3",
"(+	c #B2A49A",
"_+	c #8B7A71",
":+	c #050302",
"<+	c #121D3B",
"[+	c #172757",
"}+	c #13224D",
"|+	c #162556",
"1+	c #152557",
"2+	c #162557",
"3+	c #152455",
"4+	c #14224C",
"5+	c #14244F",
"6+	c #13244E",
"7+	c #13244F",
"8+	c #1A2743",
"9+	c #19242C",
"0+	c #232832",
"a+	c #907270",
"b+	c #D29F87",
"c+	c #D79E86",
"d+	c #DBA68C",
"e+	c #C28874",
"f+	c #4F3634",
"g+	c #0D160E",
"h+	c #1A2F41",
"i+	c #172455",
"j+	c #152656",
"k+	c #152654",
"l+	c #17275A",
"m+	c #122049",
"n+	c #142550",
"o+	c #13234F",
"p+	c #17244C",
"q+	c #313D4F",
"r+	c #274452",
"s+	c #293E4E",
"t+	c #45566A",
"u+	c #4C2A25",
"v+	c #502D25",
"w+	c #4C2C27",
"x+	c #525D6C",
"y+	c #3D5A6A",
"z+	c #214C3B",
"A+	c #2B4048",
"B+	c #182047",
"C+	c #152655",
"D+	c #152652",
"E+	c #162555",
"F+	c #14234D",
"G+	c #142552",
"H+	c #152554",
"I+	c #1F2240",
"J+	c #3D4A6C",
"K+	c #273A47",
"L+	c #1F414D",
"M+	c #4A687B",
"N+	c #4E5056",
"O+	c #502F1D",
"P+	c #444549",
"Q+	c #526C83",
"R+	c #45827B",
"S+	c #2F703E",
"T+	c #375E6A",
"U+	c #1B2440",
"V+	c #17224F",
"W+	c #16234F",
"X+	c #172352",
"Y+	c #162658",
"Z+	c #132553",
"`+	c #132651",
" @	c #172451",
".@	c #23243D",
"+@	c #745B5C",
"@@	c #604C46",
"#@	c #244847",
"$@	c #4F7A92",
"%@	c #637A8B",
"&@	c #5C7B90",
"*@	c #687C8D",
"=@	c #608AA6",
"-@	c #438169",
";@	c #3B8031",
">@	c #486E82",
",@	c #202A44",
"'@	c #152451",
")@	c #13224E",
"!@	c #172350",
"~@	c #15204B",
"{@	c #162452",
"]@	c #142651",
"^@	c #15244E",
"/@	c #272940",
"(@	c #CCA18B",
"_@	c #D3A48C",
":@	c #474552",
"<@	c #3E5975",
"[@	c #6B90A6",
"}@	c #6993AB",
"|@	c #7C9FB4",
"1@	c #496F89",
"2@	c #384D5B",
"3@	c #2E382B",
"4@	c #415376",
"5@	c #22243F",
"6@	c #162552",
"7@	c #14224E",
"8@	c #14224F",
"9@	c #15214D",
"0@	c #15204A",
"a@	c #14244D",
"b@	c #14224A",
"c@	c #15214A",
"d@	c #142049",
"e@	c #182244",
"f@	c #6D5353",
"g@	c #956556",
"h@	c #3B2D40",
"i@	c #3D476E",
"j@	c #4A5F8B",
"k@	c #4A608C",
"l@	c #4A5F8A",
"m@	c #485982",
"n@	c #33334E",
"o@	c #543B39",
"p@	c #725B5F",
"q@	c #2B253B",
"r@	c #142450",
"s@	c #162350",
"t@	c #16224E",
"u@	c #141F48",
"v@	c #15214B",
"w@	c #14234E",
"x@	c #132045",
"y@	c #152047",
"z@	c #121E45",
"A@	c #131F48",
"B@	c #13214A",
"C@	c #192349",
"D@	c #1C2342",
"E@	c #2D344D",
"F@	c #3D4777",
"G@	c #343556",
"H@	c #25292F",
"I@	c #2B2B3C",
"J@	c #3A3F6A",
"K@	c #413D5A",
"L@	c #C3937F",
"M@	c #D4AF98",
"N@	c #3A2E41",
"O@	c #15224C",
"P@	c #15234C",
"Q@	c #15224B",
"R@	c #131F43",
"S@	c #142046",
"T@	c #131D43",
"U@	c #142048",
"V@	c #132048",
"W@	c #2E3650",
"X@	c #5A75B0",
"Y@	c #435483",
"Z@	c #1D3136",
"`@	c #28313D",
" #	c #333865",
".#	c #363049",
"+#	c #936252",
"@#	c #85625B",
"##	c #1D1F42",
"$#	c #16214C",
"%#	c #14214B",
"&#	c #131F46",
"*#	c #132049",
"=#	c #13204B",
"-#	c #111F44",
";#	c #121E43",
">#	c #101B3E",
",#	c #131D44",
"'#	c #121D46",
")#	c #121D44",
"!#	c #121E40",
"~#	c #222B3F",
"{#	c #556D9D",
"]#	c #3B486A",
"^#	c #172638",
"/#	c #201E2B",
"(#	c #332C3C",
"_#	c #3D3641",
":#	c #292937",
"<#	c #1D2243",
"[#	c #14204A",
"}#	c #14214D",
"|#	c #16224F",
"1#	c #0F193A",
"2#	c #10193A",
"3#	c #101A3B",
"4#	c #101A3C",
"5#	c #111D40",
"6#	c #332E3C",
"7#	c #726971",
"8#	c #403E45",
"9#	c #141E38",
"0#	c #1F1D30",
"a#	c #3D3646",
"b#	c #625A65",
"c#	c #262436",
"d#	c #151D43",
"e#	c #131F49",
"f#	c #12204B",
"g#	c #14214C",
"h#	c #141B42",
"i#	c #11193D",
"j#	c #121A3D",
"k#	c #111B3C",
"l#	c #121C3E",
"m#	c #171E3B",
"n#	c #403947",
"o#	c #777077",
"p#	c #433C4B",
"q#	c #181D39",
"r#	c #141D3C",
"s#	c #1F1F35",
"t#	c #302F43",
"u#	c #171C36",
"v#	c #121D43",
"w#	c #121E48",
"x#	c #121F49",
"y#	c #131F45",
"z#	c #131F4A",
"A#	c #121C41",
"B#	c #131B40",
"C#	c #141D43",
"D#	c #131D42",
"E#	c #121E44",
"F#	c #141F47",
"G#	c #161E42",
"H#	c #1D1B31",
"I#	c #1F1B30",
"J#	c #1E1D32",
"K#	c #151E40",
"L#	c #121C42",
"M#	c #141B41",
"N#	c #111A3D",
"O#	c #111D42",
"P#	c #131E47",
"Q#	c #131E44",
"R#	c #141E44",
"S#	c #121F46",
"T#	c #131F47",
"U#	c #283150",
"V#	c #283151",
"W#	c #293354",
"X#	c #2B3557",
"Y#	c #2B3659",
"Z#	c #2C3658",
"`#	c #2B3456",
" $	c #2B3252",
".$	c #2D3355",
"+$	c #2A3353",
"@$	c #293356",
"#$	c #2A3357",
"$$	c #2B3357",
"%$	c #2B3256",
"&$	c #2A3153",
"*$	c #293353",
"=$	c #2B3356",
"-$	c #2B3355",
";$	c #2A3354",
">$	c #283456",
",$	c #293558",
"'$	c #2A3459",
"  . . + @ # $ % & * = - ; > , ' ) ! ~ { ] ^ / ( ",
"_ : < [ - }   | 1 2 3 4 5 6 7 8 9 + 0 a b c d e ",
"f g h % i j k l m n o p q r s t { u v w < x y + ",
"z A k B C D E F G H I J K L M | N O P Q R O | O ",
"S = T U V W X Y Z `  ...+.@.#.$.%.&.*.=.  8 u > ",
"-.;.d B >.,.'.).!.~.{.].^./.(._.|   < 4 :.- <.[.",
"}.|.1.2.3.4.5.6.7.^.8.9.0.a.b.c.d.e.:.f.$ g.h.i.",
"j.k.l.m.n.o.p.b.9.q.r.s.).t.b.u.v.f.= w.e h.x.W ",
"C y.z.A.B.C.6.s.D.E.F.G.H.I.q.J.K.L.j.M.N.O.P.Q.",
"R.S.T.U.V.W.X.Y.Z.`. +.+++@+#+$+a %+&+;.L.*+=+-+",
";+>+,+'+3.)+!+~+{+]+^+/+(+_+:+<+[+}+a |+1+|+2+3+",
"4+5+6+7+n.8+9+0+a+b+c+d+e+f+g+h+i+z.j+j+k+j+l+;.",
"m+n+m.o+p+q+r+s+t+u+v+w+x+y+z+A+B+Q.C+T.D+E+k.e ",
"F+G+k+H+I+J+K+L+M+N+O+P+Q+R+S+T+U+V+y.W+,.X+>.Y+",
"Z+`+D+ @.@+@@@#@$@%@&@*@=@-@;@>@,@'@y.)@C !@~@{@",
"]@n+v.^@/@(@_@:@<@[@}@|@1@2@3@4@5@A.6@7@8@9@0@>+",
"a@b@c@d@e@f@g@h@i@j@k@l@m@n@o@p@q@r@s@W+t@u@v@w@",
"x@y@z@A@B@C@D@E@F@G@H@I@J@K@L@M@N@O@O@P@b@z@Q@S.",
"R@S@T@U@B@V@R@W@X@Y@Z@`@ #.#+#@###$#%#v@c@&#*#=#",
"-#;#>#,#'#)#!#~#{#]#^#/#(#_#:#<#[#%#%#}#|#W+R.}#",
">#1#2#3#4#5#W.6#7#8#9#0#a#b#c#d#e#f#f#m+%#}#g#g#",
"h#i#j#k#l#;#m#n#o#p#q#r#s#t#u#v#w#x#y#&#[#[#=#z#",
"A#B#C#D#E#F#G#H#I#J#K#L#A#M#N#O#'#P#Q#R#S#T#u@A@",
"U#V#W#X#Y#Z#`# $.$+$@$#$$$%$&$*$@$=$-$;$>$,$'$'$"};
