/* XPM */
static char *_324a41f2b7e4d4ba83e095507b234356vkIqEXTaVP3naF7[] = {
/* columns rows colors chars-per-pixel */
"24 24 114 2 ",
"   c black",
".  c #050301",
"X  c #160D04",
"o  c #1B1005",
"O  c #1D1105",
"+  c #211406",
"@  c #251607",
"#  c #2B1300",
"$  c #2B1A09",
"%  c #2D1B09",
"&  c #301500",
"*  c #351800",
"=  c #381B00",
"-  c #3D1B00",
";  c #301B08",
":  c #331F0B",
">  c #351F0B",
",  c #351F0C",
"<  c #3A2006",
"1  c #3D2004",
"2  c #36220E",
"3  c #432304",
"4  c #472707",
"5  c #4C2807",
"6  c #48270B",
"7  c #472A0E",
"8  c #4F2B08",
"9  c #482A0E",
"0  c #4B2D0E",
"q  c #4C2E0E",
"w  c #512A07",
"e  c #502A08",
"r  c #502B0E",
"t  c #532F0D",
"y  c #562F0F",
"u  c #5C340D",
"i  c #4B2D12",
"p  c #4F3012",
"a  c #44311D",
"s  c #503112",
"d  c #573412",
"f  c #543515",
"g  c #583512",
"h  c #5F3712",
"j  c #5A3715",
"k  c #5F3A13",
"l  c #5A3816",
"z  c #633C16",
"x  c #643D16",
"c  c #643D18",
"v  c #493621",
"b  c #66411B",
"n  c #6C4218",
"m  c #70451C",
"M  c #734920",
"N  c #8E6B2F",
"B  c #936B2D",
"V  c #946B2D",
"C  c #916D30",
"Z  c #967133",
"A  c #967337",
"S  c #9A7030",
"D  c #9C7231",
"F  c #9E7433",
"G  c #9B7335",
"H  c #9A7435",
"J  c #9D7636",
"K  c #9B7739",
"L  c #9F7B3D",
"P  c #A07432",
"I  c #A17634",
"U  c #A27836",
"Y  c #A57B37",
"T  c #A87A37",
"R  c #A37A38",
"E  c #A67B39",
"W  c #A37C3A",
"Q  c #A67D3B",
"!  c #A67E3C",
"~  c #A87B38",
"^  c #A97F3B",
"/  c #A47E40",
"(  c #AE803A",
")  c #A9803C",
"_  c #AE813C",
"`  c #B0823C",
"'  c #B1843E",
"]  c #A58042",
"[  c #AB8342",
"{  c #AD8241",
"}  c #AE8442",
"|  c #AE8646",
" . c #AF8847",
".. c #B68841",
"X. c #B38846",
"o. c #B28B49",
"O. c #B68B48",
"+. c #B38C4B",
"@. c #B58D4B",
"#. c #B38C4C",
"$. c #B48E4D",
"%. c #B88D4B",
"&. c #B98E4C",
"*. c #B6904E",
"=. c #BA904D",
"-. c #BD924F",
";. c #BA9352",
":. c #BD9250",
">. c #BD9450",
",. c #BF9654",
"<. c #C19752",
"1. c #C39956",
"2. c #C49A57",
"3. c #C59C58",
/* pixels */
"u d j p d 1 < 7 9 s 0 # y r t d 1 d l d 4 g z 8 ",
"k @ @ @ @ @ @ + @ @ @                         m ",
"t @ Q U D F 1.U F ~ @                         M ",
"q @ 1.X.I S 1.U F ~ @                         m ",
"l @ 2._ { V U U F U @         .               t ",
"g @ 1...P F >.>.>.J @ @ @ @ @ @ @ X           m ",
"& @ >.<.U >.3.>.D H @ | O.~ O.O.N X           m ",
"8 @ Q Q U 1.3.>.U D @ ) ( Y ^ O.N X           t ",
"d @ 1.@.U =.,.3.=.D @ =.` I D O.N X           m ",
"z @ _ R Y J U U =.D @ ;.>.S D ^ N @ @ @ @ @ @ M ",
"1 @ _ >.-.T G U =.D @ ;.;.^ D A N ; J U [ K @ m ",
"g @ 2.3.>.~ S =.A D @ $.>.^ D ;.N > ! X.[ Z @ h ",
"9 @ 3.3.3.O.C D D D @ W ^ Q ^ ;.N , ) X.F K @ m ",
"5 @ 1.2.>.O.S D U =.@ $.1.) D ;.N , [ X.[ K @ x ",
"= @ ^ _ E J B =.D U @ *.2.^ D D N : X.X.X.F @ 3 ",
"6 @ 2.2.>.:.D =.U U @ $.1.=.D ^ N 2 I U X.K @ * ",
"s @ 3.3.2.=.R =.U D @ R ) D D ^ N a [ J [ [ @ * ",
"q @ 2.=.^ J U =.>.] @ +.>.O.D ^ N a ) [ [ [ @ e ",
"1 @ ^ S R  .^ >.>.D @ #.3.&.' D N 2 U X.[ L @ c ",
"c @ &.I 1.1.>.D C R @ Q 2.>.' D N a X.X.F [ @ b ",
"s @ O.I %.3.R R R R @ R 1.1.' A N v o.X.F [ @ b ",
"s @ O.I } =.>.S =.=.@ J ` ' ' H N v o.X.F / @ b ",
"q @ @ @ @ @ @ @ + o O + @ @ @ @ $ % % % % % % c ",
"= d t e - w 5 e z l d t m m n d i f f s g x z 8 "
};
