/* XPM */
static char *_08c6ecaf43b4242e72ed776d72dee2eByTgmf0NJt3deoQz[] = {
/* columns rows colors chars-per-pixel */
"24 24 13 1 ",
"  c #575F0F",
". c #564D11",
"X c #5B5112",
"o c #515810",
"O c #5C5916",
"+ c #675F0F",
"@ c #605D17",
"# c #766F0D",
"$ c #7B730E",
"% c #6C6310",
"& c #6B6A14",
"* c #847E0C",
"= c #88810D",
/* pixels */
"+#X...%++$+O+%.OXX.+.++%",
"++%XXX..%..++&%.X+X+.+oo",
"+.#$%%.+oOO+.@+%+o.%+o..",
"...O%.%+.Oo+.O+%X.+#%...",
"o..X.%%o%+.+XO+X.%#+.%O.",
"%%OX.+O++%++%.%...%+o.X%",
".X%+++XXO+%o+O+ o++Xo.+.",
".OXo++%#X..XX%#+##*$+.+X",
"$++X$%.++%%.X%X.+.+.+#$#",
"X+#+X%%..X%$%.OX#.O.XX..",
"O+#+$oOXX..%#++.%.+..X+O",
"+%..%+$#$O+X+..#o.+oXoXX",
"=XX%++.o+$%+%oo++O+%..XX",
"+.XX$#%.X+%+.X#+++XX++O.",
"o.%%.%.+OX+%+.%.#+oo..X+",
"$$+OXXX.X%++%+#%+%.+%%.X",
"$%OO$$OX.+%o#=ooX+...%.+",
"%$$=%+O$%.#%#%O%#%..%+o%",
"X.X++o$$#$+#O.XX++o#%#+O",
".$+%+oX.%o$%.X.+%..X#*#.",
"=#+%..X.O$*+%OX.+XoX+.+#",
"X+.o%%.X.+%+%X%.+.o+X.X+",
"O.#+.%o.%X+%++%%o.%%+X..",
"...+X+%+#.%.O+.o%%+XXo.#"
};
