/* XPM */
static char * floor_xpm[] = {
"24 24 359 2",
"  	c #192C65",
". 	c #18285D",
"+ 	c #182B63",
"@ 	c #182A62",
"# 	c #182B5E",
"$ 	c #16295A",
"% 	c #162759",
"& 	c #162A5C",
"* 	c #162A61",
"= 	c #17295E",
"- 	c #172A5F",
"; 	c #1B2E65",
"> 	c #1B2D66",
", 	c #192B63",
"' 	c #16285C",
") 	c #192A60",
"! 	c #172B62",
"~ 	c #192D66",
"{ 	c #182C62",
"] 	c #192D64",
"^ 	c #1C2F69",
"/ 	c #1A2D66",
"( 	c #192B61",
"_ 	c #182861",
": 	c #17255A",
"< 	c #1B2B62",
"[ 	c #172A60",
"} 	c #192C63",
"| 	c #192D65",
"1 	c #182E64",
"2 	c #1A2C65",
"3 	c #172759",
"4 	c #1A2B62",
"5 	c #1A2E67",
"6 	c #1A2F69",
"7 	c #192F68",
"8 	c #182C64",
"9 	c #172A62",
"0 	c #1A2C63",
"a 	c #162453",
"b 	c #1A295C",
"c 	c #192C5F",
"d 	c #182A5B",
"e 	c #17295B",
"f 	c #16245A",
"g 	c #1A285F",
"h 	c #182960",
"i 	c #152758",
"j 	c #152659",
"k 	c #16285B",
"l 	c #16295C",
"m 	c #18275B",
"n 	c #172454",
"o 	c #182A5F",
"p 	c #182B60",
"q 	c #182D64",
"r 	c #172F65",
"s 	c #172C62",
"t 	c #1A2C64",
"u 	c #1B2D65",
"v 	c #172456",
"w 	c #182D66",
"x 	c #192D63",
"y 	c #132151",
"z 	c #152658",
"A 	c #16275A",
"B 	c #162456",
"C 	c #152452",
"D 	c #152455",
"E 	c #142557",
"F 	c #142555",
"G 	c #152553",
"H 	c #14224F",
"I 	c #172553",
"J 	c #152857",
"K 	c #17275A",
"L 	c #182A61",
"M 	c #192C67",
"N 	c #1A2E68",
"O 	c #1B2C65",
"P 	c #17265A",
"Q 	c #1B2E68",
"R 	c #152555",
"S 	c #17295D",
"T 	c #172B5F",
"U 	c #19265A",
"V 	c #14214E",
"W 	c #15224F",
"X 	c #14204C",
"Y 	c #15214C",
"Z 	c #14214D",
"` 	c #142351",
" .	c #152554",
"..	c #192A61",
"+.	c #192D67",
"@.	c #182C67",
"#.	c #1B2C67",
"$.	c #1A2960",
"%.	c #19275D",
"&.	c #152351",
"*.	c #162657",
"=.	c #162352",
"-.	c #182758",
";.	c #162555",
">.	c #16234F",
",.	c #172451",
"'.	c #152552",
").	c #162656",
"!.	c #19295E",
"~.	c #16265B",
"{.	c #19275C",
"].	c #192A5F",
"^.	c #18285B",
"/.	c #152457",
"(.	c #152556",
"_.	c #172656",
":.	c #172555",
"<.	c #132251",
"[.	c #162758",
"}.	c #18295B",
"|.	c #162658",
"1.	c #162552",
"2.	c #172557",
"3.	c #1A285C",
"4.	c #132253",
"5.	c #19285C",
"6.	c #182B62",
"7.	c #182C63",
"8.	c #172B60",
"9.	c #17285B",
"0.	c #17275B",
"a.	c #142252",
"b.	c #17285A",
"c.	c #132250",
"d.	c #142451",
"e.	c #172758",
"f.	c #152657",
"g.	c #152655",
"h.	c #162655",
"i.	c #182757",
"j.	c #19285B",
"k.	c #162452",
"l.	c #18295C",
"m.	c #172A5D",
"n.	c #182759",
"o.	c #152450",
"p.	c #152250",
"q.	c #152654",
"r.	c #162454",
"s.	c #162857",
"t.	c #162756",
"u.	c #18295A",
"v.	c #152454",
"w.	c #172859",
"x.	c #17295C",
"y.	c #18275A",
"z.	c #182658",
"A.	c #162351",
"B.	c #14224D",
"C.	c #13234E",
"D.	c #152653",
"E.	c #162858",
"F.	c #152858",
"G.	c #182859",
"H.	c #192454",
"I.	c #172858",
"J.	c #172959",
"K.	c #182A5E",
"L.	c #18295F",
"M.	c #142251",
"N.	c #162451",
"O.	c #182659",
"P.	c #182556",
"Q.	c #14214A",
"R.	c #14234F",
"S.	c #162754",
"T.	c #172756",
"U.	c #172657",
"V.	c #162152",
"W.	c #192758",
"X.	c #182959",
"Y.	c #17295A",
"Z.	c #13224D",
"`.	c #162556",
" +	c #152557",
".+	c #162557",
"++	c #14224C",
"@+	c #14244F",
"#+	c #13244E",
"$+	c #13244F",
"%+	c #152350",
"&+	c #172350",
"*+	c #152656",
"=+	c #122049",
"-+	c #142550",
";+	c #13234F",
">+	c #142450",
",+	c #12204A",
"'+	c #172452",
")+	c #152753",
"!+	c #172658",
"~+	c #182656",
"{+	c #152652",
"]+	c #14234D",
"^+	c #142552",
"/+	c #152453",
"(+	c #162554",
"_+	c #172654",
":+	c #16214D",
"<+	c #17234E",
"[+	c #152551",
"}+	c #18204D",
"|+	c #162250",
"1+	c #162450",
"2+	c #172352",
"3+	c #132553",
"4+	c #132651",
"5+	c #152451",
"6+	c #162652",
"7+	c #162653",
"8+	c #162654",
"9+	c #162553",
"0+	c #141E48",
"a+	c #16224D",
"b+	c #15244E",
"c+	c #14244E",
"d+	c #13224E",
"e+	c #15204B",
"f+	c #142651",
"g+	c #152651",
"h+	c #14244D",
"i+	c #15244F",
"j+	c #16244F",
"k+	c #162651",
"l+	c #131F48",
"m+	c #15234E",
"n+	c #13234D",
"o+	c #14224E",
"p+	c #15214D",
"q+	c #15204A",
"r+	c #14224A",
"s+	c #15214A",
"t+	c #142049",
"u+	c #122249",
"v+	c #15224B",
"w+	c #131F47",
"x+	c #14204A",
"y+	c #16234E",
"z+	c #13234C",
"A+	c #162350",
"B+	c #16224E",
"C+	c #141F48",
"D+	c #15214B",
"E+	c #14234E",
"F+	c #132045",
"G+	c #152047",
"H+	c #121E45",
"I+	c #13214A",
"J+	c #122048",
"K+	c #131F46",
"L+	c #111E43",
"M+	c #111D41",
"N+	c #14224B",
"O+	c #16214C",
"P+	c #15224D",
"Q+	c #15224C",
"R+	c #15234C",
"S+	c #131F43",
"T+	c #142046",
"U+	c #131D43",
"V+	c #142048",
"W+	c #132048",
"X+	c #111E44",
"Y+	c #121E42",
"Z+	c #121E40",
"`+	c #121E41",
" @	c #111E42",
".@	c #14214B",
"+@	c #132049",
"@@	c #13204B",
"#@	c #111F44",
"$@	c #121E43",
"%@	c #101B3E",
"&@	c #131D44",
"*@	c #121D46",
"=@	c #121D44",
"-@	c #101C3F",
";@	c #111C3E",
">@	c #111D3D",
",@	c #111D40",
"'@	c #131D47",
")@	c #15204C",
"!@	c #151D47",
"~@	c #151E47",
"{@	c #16224F",
"]@	c #0F193A",
"^@	c #10193A",
"/@	c #101A3B",
"(@	c #101A3C",
"_@	c #111C3F",
":@	c #121B3E",
"<@	c #111B3D",
"[@	c #131E45",
"}@	c #151F49",
"|@	c #121B44",
"1@	c #131F4A",
"2@	c #12204B",
"3@	c #14214C",
"4@	c #141B42",
"5@	c #11193D",
"6@	c #121A3D",
"7@	c #111B3C",
"8@	c #121C3E",
"9@	c #121E44",
"0@	c #122047",
"a@	c #121C41",
"b@	c #121D42",
"c@	c #111C41",
"d@	c #141C43",
"e@	c #101A3E",
"f@	c #121E48",
"g@	c #121F49",
"h@	c #131F45",
"i@	c #131B40",
"j@	c #141D43",
"k@	c #131D42",
"l@	c #141F47",
"m@	c #131E46",
"n@	c #121C42",
"o@	c #141B41",
"p@	c #111A3E",
"q@	c #111D42",
"r@	c #131E47",
"s@	c #131E44",
"t@	c #141E44",
"u@	c #121F46",
"v@	c #283150",
"w@	c #283151",
"x@	c #293354",
"y@	c #2B3557",
"z@	c #2B3659",
"A@	c #2C3658",
"B@	c #2B3456",
"C@	c #2A3355",
"D@	c #2C3459",
"E@	c #2A3556",
"F@	c #293357",
"G@	c #2A3357",
"H@	c #2B3357",
"I@	c #2B3256",
"J@	c #2A3153",
"K@	c #293353",
"L@	c #293356",
"M@	c #2B3356",
"N@	c #2B3355",
"O@	c #2A3354",
"P@	c #283456",
"Q@	c #293558",
"R@	c #2A3459",
"  . . + @ # $ % & * = - ; > , ' ) ! ~ { ] ^ / ( ",
"_ : < [ - }   | 1 2 3 4 5 6 7 8 9 + 0 a b c d e ",
"f g h % i j k k l m n o p q r s { t u v < w x + ",
"y z A B C D E F G H I J K L q ~ M N O P Q N | N ",
"R S T U V W H X Y Z `  .3 . ..+.@.#.$.%.  8 t > ",
"&.*.d B =.-.;.>.>.,.'.).!.~.{.~ ~   < ].o - ^./.",
"(._.:.<.[.}.|.a 1.1.G 2.3.4.5.6.7.8.o l $ 9.0.a.",
"b.3 c.d. .e.f.g.g.h.i.j.i.k.l.}.e l S m.e 0.n.W ",
"C o.p.G ;._.q.r.s.t.-.u.v.i.^.% [.w.b.x.}.y.z.A.",
"B.C.D.E.F.G.I H.I.$ u.J.}.K.L.b.|.M.N.*.I.e.O.P.",
"Q.R.S.T.[.U.V.W.m G.X.Y.u.b.9.w.e.Z.a `. +`..+D ",
"++@+#+$+ .%+&+-.w.s.s.I.X.b.9.G.:.p.*+*+q.*+K *.",
"=+-+d.;+>+,+'+t.t.)+'.q.g.t.!+~+p.=.g.D.{+;.3 e ",
"]+^+q.R /+(+(+ .g._+:+<+[+'./+a }+|+o.>.1+2+=.|.",
"3+4+{+k.5+6+7+8+q.9+0+a+b+c+;+>+[+'.o.d+C &+e+k.",
"f+-+g+b+h+c+i+j+k+>.l+Z.m+m+]+n+@+'.1.o+H p+q+R.",
"h+r+s+t+u+r+Q.Q.v+w+x+d+m+y+]+z+n+>+A+>.B+C+D+E+",
"F+G+H+l+I+++J+K+L+M+Q.N+O+P+m+>.B.Q+Q+R+r+H+v+C.",
"S+T+U+V+I+W+X+Y+M+Z+`+ @C+v+t+0+Y O+.@D+s+K++@@@",
"#@$@%@&@*@=@`+M+-@;@>@,@'@)@!@~@D+.@.@Z {@>.B.Z ",
"%@]@^@/@(@,@$@Y+_@:@<@-@[@}@|@!@1@2@2@=+.@Z 3@3@",
"4@5@6@7@8@9@0@K+$@a@a@b@c@d@e@9@f@g@h@K+x+x+@@1@",
"a@i@j@k@9@l@}@l+m@H+H+n@n@o@p@q@*@r@s@t@u@w+C+l+",
"v@w@x@y@z@A@B@C@D@E@F@G@H@I@J@K@L@M@N@O@P@Q@R@R@"};
