/* XPM */
static char * left_xpm[] = {
"24 24 469 2",
"  	c #192C65",
". 	c #18285D",
"+ 	c #182B63",
"@ 	c #182A62",
"# 	c #182B5E",
"$ 	c #16295A",
"% 	c #162759",
"& 	c #162A5C",
"* 	c #162A61",
"= 	c #172A5E",
"- 	c #14244F",
"; 	c #162145",
"> 	c #162247",
", 	c #131E43",
"' 	c #13224B",
") 	c #192A5F",
"! 	c #172B62",
"~ 	c #192D66",
"{ 	c #182C62",
"] 	c #192D64",
"^ 	c #1C2F69",
"/ 	c #1A2D66",
"( 	c #192B61",
"_ 	c #182861",
": 	c #17255A",
"< 	c #1B2B62",
"[ 	c #172A60",
"} 	c #172A5F",
"| 	c #192C63",
"1 	c #192D65",
"2 	c #182E63",
"3 	c #172857",
"4 	c #0E1223",
"5 	c #0B0B12",
"6 	c #0B0D12",
"7 	c #0C0D12",
"8 	c #08070A",
"9 	c #09090F",
"0 	c #0D1224",
"a 	c #152656",
"b 	c #1A2C62",
"c 	c #162453",
"d 	c #1A295C",
"e 	c #192C5F",
"f 	c #182A5B",
"g 	c #17295B",
"h 	c #16245A",
"i 	c #1A285F",
"j 	c #182960",
"k 	c #152758",
"l 	c #152659",
"m 	c #16285B",
"n 	c #162959",
"o 	c #101831",
"p 	c #070404",
"q 	c #1B1B1B",
"r 	c #59595A",
"s 	c #515153",
"t 	c #1F1E1F",
"u 	c #0F0C0B",
"v 	c #070506",
"w 	c #111B36",
"x 	c #1B2C63",
"y 	c #172456",
"z 	c #182D66",
"A 	c #192D63",
"B 	c #132151",
"C 	c #152658",
"D 	c #16275A",
"E 	c #162456",
"F 	c #152452",
"G 	c #152455",
"H 	c #142557",
"I 	c #142554",
"J 	c #14224B",
"K 	c #0B0F1B",
"L 	c #20201F",
"M 	c #7F8183",
"N 	c #BBC0C3",
"O 	c #B7BCBF",
"P 	c #787A7C",
"Q 	c #1C1A19",
"R 	c #060302",
"S 	c #0B101C",
"T 	c #182856",
"U 	c #172659",
"V 	c #1B2E68",
"W 	c #1A2E68",
"X 	c #152555",
"Y 	c #17295D",
"Z 	c #172B5F",
"` 	c #19265A",
" .	c #14214E",
"..	c #15224F",
"+.	c #14224F",
"@.	c #14204A",
"#.	c #0F1733",
"$.	c #0B090A",
"%.	c #5C5B5B",
"&.	c #9FA3A5",
"*.	c #8F9294",
"=.	c #676768",
"-.	c #5B5B5B",
";.	c #0F0E0E",
">.	c #070401",
",.	c #070505",
"'.	c #121B3A",
").	c #182C64",
"!.	c #1A2C64",
"~.	c #1B2D66",
"{.	c #152351",
"].	c #162657",
"^.	c #162352",
"/.	c #182758",
"(.	c #162555",
"_.	c #16224D",
":.	c #111935",
"<.	c #0A0705",
"[.	c #4E4E4E",
"}.	c #3C3B3A",
"|.	c #100D0C",
"1.	c #161311",
"2.	c #080503",
"3.	c #060300",
"4.	c #060303",
"5.	c #151F41",
"6.	c #192A5E",
"7.	c #182A5F",
"8.	c #18285B",
"9.	c #152457",
"0.	c #152556",
"a.	c #172656",
"b.	c #172555",
"c.	c #132251",
"d.	c #162758",
"e.	c #18295B",
"f.	c #162658",
"g.	c #162452",
"h.	c #131D3D",
"i.	c #060505",
"j.	c #332720",
"k.	c #392D25",
"l.	c #301F18",
"m.	c #2D211B",
"n.	c #130E09",
"o.	c #070301",
"p.	c #060301",
"q.	c #09090E",
"r.	c #15224C",
"s.	c #16295B",
"t.	c #17285B",
"u.	c #17275B",
"v.	c #142252",
"w.	c #17285A",
"x.	c #172759",
"y.	c #132250",
"z.	c #142451",
"A.	c #152554",
"B.	c #172758",
"C.	c #152657",
"D.	c #14234A",
"E.	c #0B111E",
"F.	c #35221D",
"G.	c #9C7D69",
"H.	c #786762",
"I.	c #7C7774",
"J.	c #453C33",
"K.	c #0A0B16",
"L.	c #142450",
"M.	c #17295C",
"N.	c #182759",
"O.	c #152450",
"P.	c #152250",
"Q.	c #152553",
"R.	c #152654",
"S.	c #162454",
"T.	c #162855",
"U.	c #0F1A36",
"V.	c #231113",
"W.	c #AE826D",
"X.	c #D7B9A4",
"Y.	c #E2CFBC",
"Z.	c #958375",
"`.	c #1F1813",
" +	c #060604",
".+	c #0F1D22",
"++	c #162950",
"@+	c #18275A",
"#+	c #182658",
"$+	c #162351",
"%+	c #14224D",
"&+	c #13234E",
"*+	c #152653",
"=+	c #162858",
"-+	c #152858",
";+	c #182859",
">+	c #172553",
",+	c #192454",
"'+	c #172858",
")+	c #152754",
"!+	c #162040",
"~+	c #3F2B31",
"{+	c #9F6C5E",
"]+	c #C48C7A",
"^+	c #8B6051",
"/+	c #1C1616",
"(+	c #13171E",
"_+	c #1E3730",
":+	c #1E3B44",
"<+	c #172A54",
"[+	c #182659",
"}+	c #182556",
"|+	c #14214A",
"1+	c #14234F",
"2+	c #162754",
"3+	c #172756",
"4+	c #172657",
"5+	c #162152",
"6+	c #192758",
"7+	c #18275B",
"8+	c #192956",
"9+	c #242635",
"0+	c #373038",
"a+	c #47261F",
"b+	c #342528",
"c+	c #263141",
"d+	c #213546",
"e+	c #223F3F",
"f+	c #26433C",
"g+	c #19314E",
"h+	c #162556",
"i+	c #162557",
"j+	c #14224C",
"k+	c #13244E",
"l+	c #13244F",
"m+	c #152350",
"n+	c #172350",
"o+	c #172859",
"p+	c #162857",
"q+	c #182652",
"r+	c #22363C",
"s+	c #3E4E59",
"t+	c #4E4649",
"u+	c #3F4F62",
"v+	c #2A4559",
"w+	c #234055",
"x+	c #324760",
"y+	c #2B453D",
"z+	c #1B3B49",
"A+	c #152753",
"B+	c #152756",
"C+	c #17275A",
"D+	c #122049",
"E+	c #142550",
"F+	c #13234F",
"G+	c #12204A",
"H+	c #172452",
"I+	c #162756",
"J+	c #16244E",
"K+	c #263649",
"L+	c #567E94",
"M+	c #7B92A1",
"N+	c #51738B",
"O+	c #354D5C",
"P+	c #334B62",
"Q+	c #395369",
"R+	c #2C4E35",
"S+	c #1A3C45",
"T+	c #152752",
"U+	c #162655",
"V+	c #14234D",
"W+	c #142552",
"X+	c #152453",
"Y+	c #162554",
"Z+	c #152655",
"`+	c #172654",
" @	c #16214C",
".@	c #20253F",
"+@	c #36476D",
"@@	c #425980",
"#@	c #3D4C67",
"$@	c #404563",
"%@	c #435686",
"&@	c #323E43",
"*@	c #264B30",
"=@	c #182D49",
"-@	c #162450",
";@	c #172352",
">@	c #132553",
",@	c #132651",
"'@	c #152652",
")@	c #152451",
"!@	c #162652",
"~@	c #162653",
"{@	c #162654",
"]@	c #162552",
"^@	c #141E48",
"/@	c #212740",
"(@	c #33375E",
"_@	c #313258",
":@	c #755557",
"<@	c #9B8A88",
"[@	c #4D465F",
"}@	c #232F33",
"|@	c #193245",
"1@	c #14244D",
"2@	c #15204B",
"3@	c #142651",
"4@	c #152651",
"5@	c #15244E",
"6@	c #14244E",
"7@	c #15244F",
"8@	c #16244F",
"9@	c #162651",
"0@	c #16234F",
"a@	c #131F47",
"b@	c #293452",
"c@	c #41528C",
"d@	c #36395B",
"e@	c #8D645B",
"f@	c #B7A090",
"g@	c #4C3E44",
"h@	c #132648",
"i@	c #14224E",
"j@	c #15214D",
"k@	c #15204A",
"l@	c #14224A",
"m@	c #15214A",
"n@	c #142049",
"o@	c #122249",
"p@	c #15224B",
"q@	c #141F49",
"r@	c #2D3859",
"s@	c #3D4B86",
"t@	c #373F60",
"u@	c #5F6F98",
"v@	c #4F5574",
"w@	c #23293B",
"x@	c #162350",
"y@	c #16224E",
"z@	c #141F48",
"A@	c #15214B",
"B@	c #14234E",
"C@	c #132045",
"D@	c #152047",
"E@	c #121E45",
"F@	c #131F48",
"G@	c #13214A",
"H@	c #122048",
"I@	c #131F46",
"J@	c #111E43",
"K@	c #111D40",
"L@	c #162041",
"M@	c #292D3D",
"N@	c #2E334B",
"O@	c #303B52",
"P@	c #4D6190",
"Q@	c #373F5C",
"R@	c #262438",
"S@	c #171F42",
"T@	c #15234C",
"U@	c #131F43",
"V@	c #142046",
"W@	c #131D43",
"X@	c #142048",
"Y@	c #132048",
"Z@	c #111E44",
"`@	c #121E42",
" #	c #111D41",
".#	c #18233E",
"+#	c #373A4A",
"@#	c #5B555B",
"##	c #3C3742",
"$#	c #18223B",
"%#	c #2B2A3B",
"&#	c #453E48",
"*#	c #373448",
"=#	c #192042",
"-#	c #14204B",
";#	c #132049",
">#	c #13204B",
",#	c #111F44",
"'#	c #121E43",
")#	c #101B3E",
"!#	c #131D44",
"~#	c #121D46",
"{#	c #121D44",
"]#	c #121E41",
"^#	c #121D41",
"/#	c #121C3D",
"(#	c #262B3F",
"_#	c #444550",
":#	c #514D59",
"<#	c #35344A",
"[#	c #151D40",
"}#	c #333146",
"|#	c #484253",
"1#	c #262A44",
"2#	c #142148",
"3#	c #14214B",
"4#	c #14214D",
"5#	c #16224F",
"6#	c #0F193A",
"7#	c #10193A",
"8#	c #101A3B",
"9#	c #101A3C",
"0#	c #121C3F",
"a#	c #151C3C",
"b#	c #161C3A",
"c#	c #131C3B",
"d#	c #141E40",
"e#	c #151F47",
"f#	c #151C40",
"g#	c #171D42",
"h#	c #141F47",
"i#	c #12204B",
"j#	c #14214C",
"k#	c #141B42",
"l#	c #11193D",
"m#	c #121A3D",
"n#	c #111B3C",
"o#	c #121C3E",
"p#	c #121E44",
"q#	c #122047",
"r#	c #121C41",
"s#	c #131C41",
"t#	c #121D42",
"u#	c #111C41",
"v#	c #141C43",
"w#	c #101A3E",
"x#	c #121E48",
"y#	c #121F49",
"z#	c #131F45",
"A#	c #131F4A",
"B#	c #131B40",
"C#	c #141D43",
"D#	c #131D42",
"E#	c #151F49",
"F#	c #131E46",
"G#	c #121C42",
"H#	c #141B41",
"I#	c #111A3D",
"J#	c #111D42",
"K#	c #131E47",
"L#	c #131E44",
"M#	c #141E44",
"N#	c #121F46",
"O#	c #283150",
"P#	c #283151",
"Q#	c #293354",
"R#	c #2B3557",
"S#	c #2B3659",
"T#	c #2C3658",
"U#	c #2B3456",
"V#	c #2A3355",
"W#	c #2C3459",
"X#	c #2A3556",
"Y#	c #293357",
"Z#	c #2A3356",
"`#	c #2B3155",
" $	c #2A3152",
".$	c #293352",
"+$	c #293356",
"@$	c #2B3356",
"#$	c #2B3355",
"$$	c #2A3354",
"%$	c #283456",
"&$	c #293558",
"*$	c #2A3459",
"  . . + @ # $ % & * = - ; > , ' ) ! ~ { ] ^ / ( ",
"_ : < [ } |   1 2 3 4 5 6 7 8 9 0 a b c d e f g ",
"h i j % k l m m n o p q r s t u v w x y < z A + ",
"B C D E F G H I J K L M N O P Q R S T U V W 1 W ",
"X Y Z `  ...+.@.#.$.%.&.*.=.-.;.>.,.'.`   ).!.~.",
"{.].f E ^./.(._.:.<.Q [.}.|.1.2.3.4.5.6.7.} 8.9.",
"0.a.b.c.d.e.f.g.h.i.j.k.l.m.n.o.p.q.r.s.$ t.u.v.",
"w.x.y.z.A.B.C.X D.E.F.G.H.I.J.o.o.K.L.M.g u.N...",
"F O.P.Q.(.a.R.S.T.U.V.W.X.Y.Z.`. +.+++g e.@+#+$+",
"%+&+*+=+-+;+>+,+'+)+!+~+{+]+^+/+(+_+:+<+'+B.[+}+",
"|+1+2+3+d.4+5+6+7+;+8+9+0+a+b+c+d+e+f+g+a h+i+G ",
"j+- k+l+A.m+n+/.o+p+q+r+s+t+u+v+w+x+y+z+A+B+C+].",
"D+E+z.F+L.G+H+I+I+A+J+K+L+M+N+O+P+Q+R+S+T+U+x.g ",
"V+W+R.X X+Y+Y+A.Z+`+ @.@+@@@#@$@%@&@*@=@-@;@^.f.",
">@,@'@g.)@!@~@{@R.]@^@/@(@_@:@<@[@}@|@1@F n+2@g.",
"3@E+4@5@1@6@7@8@9@0@a@b@c@d@e@f@g@h@!@i@+.j@k@1+",
"1@l@m@n@o@l@|+|+p@a@q@r@s@t@u@v@w@- x@0@y@z@A@B@",
"C@D@E@F@G@j+H@I@J@K@L@M@N@O@P@Q@R@S@p@T@l@E@p@&+",
"U@V@W@X@G@Y@Z@`@ #.#+#@###$#%#&#*#=#-#A@m@I@;#>#",
",#'#)#!#~#{#]#^#/#(#_#:#<#[#}#|#1#2#3#4#5#0@%+4#",
")#6#7#8#9#K@'#`@0#a#b#c#d#e#f#g#h#i#i#D+3#4#j#j#",
"k#l#m#n#o#p#q#I@'#r#s#t#u#v#w#p#x#y#z#I@@.@.>#A#",
"r#B#C#D#p#h#E#F@F#E@E@G#r#H#I#J#~#K#L#M#N#a@z@F@",
"O#P#Q#R#S#T#U#V#W#X#Y#Z#V#`# $.$+$@$#$$$%$&$*$*$"};
