/* XPM */
static char *bde03b99e0db4399d502a5b2656da655bn44kyjgGbwgLjAI[] = {
/* columns rows colors chars-per-pixel */
"24 24 19 1 ",
"  c #323821",
". c #564D11",
"X c #5B5112",
"o c #515810",
"O c #5C5916",
"+ c #675F0F",
"@ c #605D17",
"# c #766F0D",
"$ c #7B730E",
"% c #6C6310",
"& c #6B6A14",
"* c #C43F31",
"= c #847E0C",
"- c #88810D",
"; c #88A043",
": c #9FBC4D",
"> c #D8B78F",
", c #FFD7A8",
"< c white",
/* pixels */
"+#X...%++$+O+%.OXX.+.++%",
"++%XXX..%..++&%.X+X+.+oo",
"+.#$%%.+oOO+.@+%+o.%+o..",
"...O%.%+.Oo+.O+%X.+#%...",
"o..X.%            #+.%O.",
"%%OX.  ;;;;::::::: +o.X%",
".X%+ * ;;;;;::;;;: Xo.+.",
".OXo * ;< <;: :::  $+.+X",
"$++X   ;< <;:::::: .+#$#",
"X+#+X * <<<;:::::: .XX..",
"O+#+$ * ;;;;:::::: ..X+O",
"+%..%   ;;;;;:     oXoXX",
"-XX%++.  ;;:::: +O+%..XX",
"+.XX$#%. ;>,,,, ++XX++O.",
"o.%%.%   ;>,,,, #+oo..X+",
"$$+OXX ::;>,,,, +%.+%%.X",
"$%OO$$  ;;;:>>: X+...%.+",
"%$$-%+O  ;::::: #%..%+o%",
"X.X++o$$ ;:  ;: ++o#%#+O",
".$+%+oX. ; % ; +%..X#=#.",
"-#+%..X.  =+  X.+XoX+.+#",
"X+.o%%.X.+%+%X%.+.o+X.X+",
"O.#+.%o.%X+%++%%o.%%+X..",
"...+X+%+#.%.O+.o%%+XXo.#"
};
