/* XPM */
static char * player_xpm[] = {
"24 24 469 2",
"  	c #192C65",
". 	c #18285D",
"+ 	c #182B63",
"@ 	c #182A62",
"# 	c #182B5E",
"$ 	c #16295A",
"% 	c #162759",
"& 	c #162A5C",
"* 	c #162A61",
"= 	c #17295E",
"- 	c #172A5F",
"; 	c #1B2E65",
"> 	c #1B2D66",
", 	c #192B63",
"' 	c #16285C",
") 	c #192A60",
"! 	c #172B62",
"~ 	c #192D66",
"{ 	c #182C62",
"] 	c #192D64",
"^ 	c #1C2F69",
"/ 	c #1A2D66",
"( 	c #192B61",
"_ 	c #182861",
": 	c #17255A",
"< 	c #1B2B62",
"[ 	c #172A60",
"} 	c #192C63",
"| 	c #192D65",
"1 	c #182E64",
"2 	c #1A2C64",
"3 	c #172759",
"4 	c #1A2B62",
"5 	c #1A2E67",
"6 	c #1A2F69",
"7 	c #192F67",
"8 	c #182C64",
"9 	c #172A62",
"0 	c #1A2C63",
"a 	c #162453",
"b 	c #1A295C",
"c 	c #192C5F",
"d 	c #182A5B",
"e 	c #17295B",
"f 	c #16245A",
"g 	c #1A285F",
"h 	c #182960",
"i 	c #152758",
"j 	c #152659",
"k 	c #16285B",
"l 	c #16295B",
"m 	c #18275B",
"n 	c #162452",
"o 	c #18295B",
"p 	c #172B5E",
"q 	c #162E61",
"r 	c #172C61",
"s 	c #182C61",
"t 	c #1B2D65",
"u 	c #172456",
"v 	c #182D66",
"w 	c #192D63",
"x 	c #132151",
"y 	c #152658",
"z 	c #16275A",
"A 	c #162456",
"B 	c #152452",
"C 	c #152455",
"D 	c #142557",
"E 	c #142555",
"F 	c #152451",
"G 	c #101938",
"H 	c #0D1123",
"I 	c #0B0E17",
"J 	c #22242C",
"K 	c #2A2C35",
"L 	c #171C2A",
"M 	c #111D3C",
"N 	c #182A60",
"O 	c #1A2E68",
"P 	c #1B2C65",
"Q 	c #17265A",
"R 	c #1B2E68",
"S 	c #152555",
"T 	c #17295D",
"U 	c #172B5F",
"V 	c #19265A",
"W 	c #14214E",
"X 	c #15224F",
"Y 	c #14224F",
"Z 	c #14204B",
"` 	c #121B3A",
" .	c #09080D",
"..	c #201D1C",
"+.	c #4B4A49",
"@.	c #9CA0A1",
"#.	c #AEB2B5",
"$.	c #555757",
"%.	c #060404",
"&.	c #131F43",
"*.	c #1B2C66",
"=.	c #1A2960",
"-.	c #19275D",
";.	c #152351",
">.	c #162657",
",.	c #162352",
"'.	c #182758",
").	c #162555",
"!.	c #16234E",
"~.	c #0F1528",
"{.	c #090707",
"].	c #242424",
"^.	c #8B8D8F",
"/.	c #B4B9BC",
"(.	c #9B9FA2",
"_.	c #77797A",
":.	c #141312",
"<.	c #0D1220",
"[.	c #192B60",
"}.	c #1B2B61",
"|.	c #192A5F",
"1.	c #182A5F",
"2.	c #18285B",
"3.	c #152457",
"4.	c #152556",
"5.	c #172656",
"6.	c #172555",
"7.	c #132251",
"8.	c #162758",
"9.	c #141F45",
"0.	c #0A0B12",
"a.	c #080503",
"b.	c #1A1A1A",
"c.	c #717273",
"d.	c #404142",
"e.	c #1E1E1E",
"f.	c #232020",
"g.	c #0C0A08",
"h.	c #080709",
"i.	c #111C3A",
"j.	c #16295C",
"k.	c #17285B",
"l.	c #17275B",
"m.	c #142252",
"n.	c #17285A",
"o.	c #132250",
"p.	c #142451",
"q.	c #152554",
"r.	c #172758",
"s.	c #152657",
"t.	c #111E40",
"u.	c #060301",
"v.	c #090807",
"w.	c #232221",
"x.	c #0D0C0B",
"y.	c #070402",
"z.	c #070301",
"A.	c #070403",
"B.	c #0E162C",
"C.	c #172A5D",
"D.	c #182759",
"E.	c #152450",
"F.	c #152250",
"G.	c #152553",
"H.	c #070505",
"I.	c #1F1713",
"J.	c #231C19",
"K.	c #060402",
"L.	c #0F0B08",
"M.	c #3A2D27",
"N.	c #160F0B",
"O.	c #0B0E1A",
"P.	c #162858",
"Q.	c #17295C",
"R.	c #18275A",
"S.	c #182658",
"T.	c #162351",
"U.	c #14224D",
"V.	c #13234E",
"W.	c #152653",
"X.	c #152858",
"Y.	c #182859",
"Z.	c #172452",
"`.	c #121937",
" +	c #080505",
".+	c #0B0908",
"++	c #564B46",
"@+	c #4D4647",
"#+	c #392B21",
"$+	c #544A44",
"%+	c #765F5B",
"&+	c #241F1B",
"*+	c #0C0F1D",
"=+	c #162450",
"-+	c #172858",
";+	c #182659",
">+	c #182556",
",+	c #14214A",
"'+	c #14234F",
")+	c #162754",
"!+	c #172756",
"~+	c #172657",
"{+	c #162152",
"]+	c #18234E",
"^+	c #0C0E19",
"/+	c #151110",
"(+	c #79746F",
"_+	c #929798",
":+	c #BA947C",
"<+	c #BCA799",
"[+	c #808285",
"}+	c #4C433D",
"|+	c #08080A",
"1+	c #101C39",
"2+	c #162556",
"3+	c #152557",
"4+	c #162557",
"5+	c #14224C",
"6+	c #14244F",
"7+	c #13244E",
"8+	c #13244F",
"9+	c #152350",
"0+	c #172350",
"a+	c #1A2A54",
"b+	c #152633",
"c+	c #181819",
"d+	c #9A847E",
"e+	c #E3BAA2",
"f+	c #E9B79C",
"g+	c #E9B89C",
"h+	c #CA9B86",
"i+	c #45332F",
"j+	c #111C22",
"k+	c #1A2B47",
"l+	c #152656",
"m+	c #152654",
"n+	c #17275A",
"o+	c #122049",
"p+	c #142550",
"q+	c #13234F",
"r+	c #142450",
"s+	c #12204A",
"t+	c #25324F",
"u+	c #234350",
"v+	c #1E2B32",
"w+	c #50505E",
"x+	c #724743",
"y+	c #7B483D",
"z+	c #764E49",
"A+	c #5D535C",
"B+	c #27313C",
"C+	c #1D3846",
"D+	c #32455B",
"E+	c #17234B",
"F+	c #152652",
"G+	c #14234D",
"H+	c #142552",
"I+	c #152453",
"J+	c #162554",
"K+	c #1A2651",
"L+	c #36465E",
"M+	c #2E4E5F",
"N+	c #254459",
"O+	c #46637B",
"P+	c #484E5A",
"Q+	c #47322D",
"R+	c #45505D",
"S+	c #51738B",
"T+	c #365C71",
"U+	c #274251",
"V+	c #435F74",
"W+	c #202A4A",
"X+	c #16234F",
"Y+	c #172352",
"Z+	c #162658",
"`+	c #132553",
" @	c #132651",
".@	c #162652",
"+@	c #1D284E",
"@@	c #3F4B64",
"#@	c #303E4D",
"$@	c #213E4D",
"%@	c #4B7188",
"&@	c #6B869A",
"*@	c #688AA1",
"=@	c #6F8A9D",
"-@	c #55829D",
";@	c #2C5362",
">@	c #25363D",
",@	c #455975",
"'@	c #28304D",
")@	c #13214C",
"!@	c #15204B",
"~@	c #142651",
"{@	c #152651",
"]@	c #15244E",
"^@	c #14244D",
"/@	c #1F2549",
"(@	c #493F54",
"_@	c #3F3641",
":@	c #2B3441",
"<@	c #425C77",
"[@	c #638CA4",
"}@	c #6C99B2",
"|@	c #6D98B0",
"1@	c #436681",
"2@	c #2F3F51",
"3@	c #332F36",
"4@	c #524A63",
"5@	c #2B2A46",
"6@	c #15214D",
"7@	c #15204A",
"8@	c #14224A",
"9@	c #15214A",
"0@	c #142049",
"a@	c #122249",
"b@	c #292B47",
"c@	c #A28170",
"d@	c #BD9580",
"e@	c #483B4B",
"f@	c #3C476D",
"g@	c #495E84",
"h@	c #4A6087",
"i@	c #495F86",
"j@	c #425279",
"k@	c #32304C",
"l@	c #977368",
"m@	c #C2A590",
"n@	c #4B3D4B",
"o@	c #15224E",
"p@	c #16224E",
"q@	c #141F48",
"r@	c #15214B",
"s@	c #14234E",
"t@	c #132045",
"u@	c #152047",
"v@	c #121E45",
"w@	c #131F48",
"x@	c #13214A",
"y@	c #1E2445",
"z@	c #795C59",
"A@	c #AE7966",
"B@	c #4B3D54",
"C@	c #384171",
"D@	c #34375C",
"E@	c #313558",
"F@	c #32355A",
"G@	c #3B426D",
"H@	c #3F4469",
"I@	c #916359",
"J@	c #A27F73",
"K@	c #322C44",
"L@	c #15224B",
"M@	c #142046",
"N@	c #131D43",
"O@	c #142048",
"P@	c #132048",
"Q@	c #121E43",
"R@	c #1C2140",
"S@	c #2B283A",
"T@	c #2E324C",
"U@	c #4F66A1",
"V@	c #41517C",
"W@	c #242A43",
"X@	c #2B3453",
"Y@	c #4F659F",
"Z@	c #485A81",
"`@	c #2F2F42",
" #	c #272846",
".#	c #131F46",
"+#	c #132049",
"@#	c #13204B",
"##	c #111F44",
"$#	c #101B3E",
"%#	c #131D44",
"&#	c #121D46",
"*#	c #121D44",
"=#	c #121E41",
"-#	c #111D41",
";#	c #111C3E",
">#	c #22283E",
",#	c #465480",
"'#	c #354160",
")#	c #172043",
"!#	c #1E2843",
"~#	c #3B486C",
"{#	c #373F5F",
"]#	c #1A2447",
"^#	c #14214B",
"/#	c #14214D",
"(#	c #16224F",
"_#	c #0F193A",
":#	c #10193A",
"<#	c #101A3B",
"[#	c #101A3C",
"}#	c #111D40",
"|#	c #121E42",
"1#	c #141A37",
"2#	c #3A3748",
"3#	c #585461",
"4#	c #36313D",
"5#	c #161E3D",
"6#	c #1E223C",
"7#	c #4F4D55",
"8#	c #544E59",
"9#	c #232841",
"0#	c #13204A",
"a#	c #12204B",
"b#	c #14214C",
"c#	c #141B42",
"d#	c #11193D",
"e#	c #121A3D",
"f#	c #111B3C",
"g#	c #121C3E",
"h#	c #121E44",
"i#	c #122047",
"j#	c #54505D",
"k#	c #87868B",
"l#	c #403948",
"m#	c #181D3C",
"n#	c #1D1E39",
"o#	c #55505A",
"p#	c #837F83",
"q#	c #353344",
"r#	c #131E45",
"s#	c #131F45",
"t#	c #14204A",
"u#	c #131F4A",
"v#	c #121C41",
"w#	c #131B40",
"x#	c #141D43",
"y#	c #131D42",
"z#	c #141F47",
"A#	c #151F49",
"B#	c #323146",
"C#	c #474454",
"D#	c #1F1F35",
"E#	c #131B3E",
"F#	c #151A3E",
"G#	c #242439",
"H#	c #484555",
"I#	c #252742",
"J#	c #141E46",
"K#	c #131E44",
"L#	c #141E44",
"M#	c #121F46",
"N#	c #131F47",
"O#	c #283150",
"P#	c #283151",
"Q#	c #293354",
"R#	c #2B3557",
"S#	c #2B3659",
"T#	c #2C3658",
"U#	c #2B3456",
"V#	c #2A3355",
"W#	c #2C3459",
"X#	c #2A3352",
"Y#	c #2C3352",
"Z#	c #293254",
"`#	c #2A3356",
" $	c #2B3155",
".$	c #2B3151",
"+$	c #2B324D",
"@$	c #2B3356",
"#$	c #2B3355",
"$$	c #2A3354",
"%$	c #283456",
"&$	c #293558",
"*$	c #2A3459",
"  . . + @ # $ % & * = - ; > , ' ) ! ~ { ] ^ / ( ",
"_ : < [ - }   | 1 2 3 4 5 6 7 8 9 + 0 a b c d e ",
"f g h % i j k k l m n o e p q r s 2 t u < v w + ",
"x y z A B C D E F G H I J K L M N O P Q R O | O ",
"S T U V W X Y Z `  ...+.@.#.$.%.&.*.=.-.  8 2 > ",
";.>.d A ,.'.).!.~.{.].^./.(._.:.<.[.}.|.1.- 2.3.",
"4.5.6.7.8.o >.9.0.a.b.c.d.e.f.g.h.i.1.j.$ k.l.m.",
"n.3 o.p.q.r.s.t.h.u.v.w.x.y.z.u.A.B.T C.e l.D.X ",
"B E.F.G.).5.q.G H.u.I.J.K.L.M.N.z.O.P.Q.o R.S.T.",
"U.V.W.P.X.Y.Z.`. +.+++@+#+$+%+&+A.*+=+>.-+r.;+>+",
",+'+)+!+8.~+{+]+^+/+(+_+:+<+[+}+|+1+a 2+3+2+4+C ",
"5+6+7+8+q.9+0+a+b+c+d+e+f+g+h+i+j+k+S l+m+l+n+>.",
"o+p+p.q+r+s+]+t+u+v+w+x+y+z+A+B+C+D+E+W.F+).3 e ",
"G+H+m+S I+J+K+L+M+N+O+P+Q+R+S+T+U+V+W+X+=+Y+,.Z+",
"`+ @F+n F .@+@@@#@$@%@&@*@=@-@;@>@,@'@)@B 0+!@n ",
"~@p+{@]@^@^@/@(@_@:@<@[@}@|@1@2@3@4@5@U.Y 6@7@'+",
"^@8@9@0@a@8@b@c@d@e@f@g@h@i@j@k@l@m@n@o@p@q@r@s@",
"t@u@v@w@x@5+y@z@A@B@C@D@E@F@G@H@I@J@K@L@8@v@L@V.",
"&.M@N@O@x@P@Q@R@S@T@U@V@W@X@Y@Z@`@ #9@r@9@.#+#@#",
"##Q@$#%#&#*#=#-#;#>#,#'#)#!#~#{#]#^#^#/#(#X+U./#",
"$#_#:#<#[#}#Q@|#1#2#3#4#5#6#7#8#9#0#a#o+^#/#b#b#",
"c#d#e#f#g#h#i#.#1#j#k#l#m#n#o#p#q#r#s#.#t#t#@#u#",
"v#w#x#y#h#z#A#w@w#B#C#D#E#F#G#H#I#J#K#L#M#N#q@w@",
"O#P#Q#R#S#T#U#V#W#X#Y#Z#`# $.$+$Q#@$#$$$%$&$*$*$"};
