/* XPM */
static char * right_player_xpm[] = {
"24 24 459 2",
"  	c #192C65",
". 	c #18285D",
"+ 	c #182B63",
"@ 	c #182A62",
"# 	c #182B5E",
"$ 	c #16295A",
"% 	c #162759",
"& 	c #162A5C",
"* 	c #162A60",
"= 	c #17295D",
"- 	c #172A5F",
"; 	c #1B2E64",
"> 	c #1B2D65",
", 	c #192B63",
"' 	c #16285C",
") 	c #192A60",
"! 	c #172B62",
"~ 	c #192D66",
"{ 	c #182C62",
"] 	c #192D64",
"^ 	c #1C2F69",
"/ 	c #1A2D66",
"( 	c #192B61",
"_ 	c #182861",
": 	c #17255A",
"< 	c #1B2B62",
"[ 	c #172A60",
"} 	c #192C63",
"| 	c #192D65",
"1 	c #182E64",
"2 	c #1A2C64",
"3 	c #172758",
"4 	c #1A2A61",
"5 	c #1A2F69",
"6 	c #192F68",
"7 	c #182C64",
"8 	c #172A62",
"9 	c #1A2C63",
"0 	c #162453",
"a 	c #1A295C",
"b 	c #192C5F",
"c 	c #182A5B",
"d 	c #17295B",
"e 	c #16245A",
"f 	c #1A285F",
"g 	c #182960",
"h 	c #152758",
"i 	c #152659",
"j 	c #16285B",
"k 	c #15224C",
"l 	c #121B3B",
"m 	c #152146",
"n 	c #142147",
"o 	c #162957",
"p 	c #172F65",
"q 	c #172C62",
"r 	c #172456",
"s 	c #182D66",
"t 	c #192D63",
"u 	c #132151",
"v 	c #152658",
"w 	c #16275A",
"x 	c #162456",
"y 	c #152452",
"z 	c #152455",
"A 	c #142556",
"B 	c #12224A",
"C 	c #0D1120",
"D 	c #09080E",
"E 	c #08070A",
"F 	c #0A0C10",
"G 	c #090B10",
"H 	c #0B0D15",
"I 	c #0F1830",
"J 	c #172A5D",
"K 	c #192C66",
"L 	c #1A2E68",
"M 	c #1B2C65",
"N 	c #17265A",
"O 	c #1B2E68",
"P 	c #152555",
"Q 	c #172B5F",
"R 	c #19265A",
"S 	c #14214E",
"T 	c #15224F",
"U 	c #14224D",
"V 	c #0D1427",
"W 	c #070405",
"X 	c #0E0C0A",
"Y 	c #1B1B1B",
"Z 	c #555556",
"` 	c #4D4D4E",
" .	c #151413",
"..	c #080606",
"+.	c #132042",
"@.	c #182B65",
"#.	c #1B2C67",
"$.	c #1A2960",
"%.	c #19275D",
"&.	c #1B2D66",
"*.	c #152351",
"=.	c #162657",
"-.	c #162352",
";.	c #182757",
">.	c #142148",
",.	c #0A0C13",
"'.	c #060302",
").	c #21201F",
"!.	c #7F8182",
"~.	c #BAC0C3",
"{.	c #B7BBBF",
"].	c #707274",
"^.	c #181716",
"/.	c #0F172C",
"(.	c #182B5F",
"_.	c #192C64",
":.	c #192A5F",
"<.	c #182A5F",
"[.	c #18285B",
"}.	c #152457",
"|.	c #152556",
"1.	c #172656",
"2.	c #172555",
"3.	c #132251",
"4.	c #162757",
"5.	c #172858",
"6.	c #101934",
"7.	c #070404",
"8.	c #070401",
"9.	c #121111",
"0.	c #616262",
"a.	c #696A6A",
"b.	c #979A9C",
"c.	c #9EA2A4",
"d.	c #4D4C4B",
"e.	c #0A090D",
"f.	c #13224A",
"g.	c #172B60",
"h.	c #16295C",
"i.	c #17285B",
"j.	c #17275B",
"k.	c #142252",
"l.	c #17285A",
"m.	c #172759",
"n.	c #132250",
"o.	c #142451",
"p.	c #152554",
"q.	c #162656",
"r.	c #101A37",
"s.	c #060301",
"t.	c #070300",
"u.	c #090604",
"v.	c #171413",
"w.	c #100D0C",
"x.	c #424241",
"y.	c #4D4D4D",
"z.	c #1A1817",
"A.	c #090606",
"B.	c #132044",
"C.	c #182759",
"D.	c #152450",
"E.	c #152250",
"F.	c #152553",
"G.	c #162555",
"H.	c #121E40",
"I.	c #060300",
"J.	c #140F0B",
"K.	c #30221B",
"L.	c #2F1F19",
"M.	c #3A2F26",
"N.	c #291F1A",
"O.	c #070607",
"P.	c #132148",
"Q.	c #172859",
"R.	c #17295C",
"S.	c #18295B",
"T.	c #18275A",
"U.	c #182658",
"V.	c #162351",
"W.	c #13234E",
"X.	c #152653",
"Y.	c #162858",
"Z.	c #152858",
"`.	c #182858",
" +	c #152045",
".+	c #0A0911",
"++	c #080402",
"@+	c #51493F",
"#+	c #726D6B",
"$+	c #7C6A63",
"%+	c #977864",
"&+	c #2B1C19",
"*+	c #0E1526",
"=+	c #16244F",
"-+	c #142251",
";+	c #162451",
">+	c #182659",
",+	c #182556",
"'+	c #14214A",
")+	c #14234F",
"!+	c #162754",
"~+	c #172756",
"{+	c #162758",
"]+	c #172657",
"^+	c #152546",
"/+	c #0F1D1D",
"(+	c #060604",
"_+	c #231C17",
":+	c #A18F80",
"<+	c #DECCB9",
"[+	c #D5B7A1",
"}+	c #A47764",
"|+	c #1D0F13",
"1+	c #172757",
"2+	c #13224D",
"3+	c #162556",
"4+	c #152557",
"5+	c #162557",
"6+	c #14224C",
"7+	c #14244F",
"8+	c #13244E",
"9+	c #13244F",
"0+	c #182E4A",
"a+	c #2D6131",
"b+	c #264B26",
"c+	c #12161B",
"d+	c #211818",
"e+	c #936657",
"f+	c #C38C7A",
"g+	c #976659",
"h+	c #37272F",
"i+	c #152043",
"j+	c #172553",
"k+	c #152656",
"l+	c #152654",
"m+	c #17275A",
"n+	c #122049",
"o+	c #142550",
"p+	c #14254F",
"q+	c #1C4139",
"r+	c #3B7223",
"s+	c #254C3B",
"t+	c #21393E",
"u+	c #262F3E",
"v+	c #352426",
"w+	c #492720",
"x+	c #353139",
"y+	c #222635",
"z+	c #182656",
"A+	c #152655",
"B+	c #152652",
"C+	c #14234D",
"D+	c #142552",
"E+	c #152751",
"F+	c #214D3B",
"G+	c #38612A",
"H+	c #263756",
"I+	c #1F414A",
"J+	c #2C4B56",
"K+	c #415061",
"L+	c #50474A",
"M+	c #3D515A",
"N+	c #203438",
"O+	c #162250",
"P+	c #18204D",
"Q+	c #16234F",
"R+	c #162450",
"S+	c #172352",
"T+	c #162658",
"U+	c #132553",
"V+	c #132651",
"W+	c #162551",
"X+	c #15264F",
"Y+	c #214D38",
"Z+	c #3A6B1E",
"`+	c #2D425B",
" @	c #2C4257",
".@	c #37535C",
"+@	c #55768D",
"@@	c #7C94A3",
"#@	c #50788D",
"$@	c #223043",
"%@	c #142450",
"&@	c #152551",
"*@	c #152552",
"=@	c #13224E",
"-@	c #172350",
";@	c #15204B",
">@	c #162452",
",@	c #142651",
"'@	c #152651",
")@	c #15244E",
"!@	c #14244D",
"~@	c #1A3742",
"{@	c #316819",
"]@	c #33413D",
"^@	c #405282",
"/@	c #414560",
"(@	c #3E4D6A",
"_@	c #40557D",
":@	c #344367",
"<@	c #1D223D",
"[@	c #13234D",
"}@	c #162552",
"|@	c #14224E",
"1@	c #14224F",
"2@	c #15214D",
"3@	c #15204A",
"4@	c #14224A",
"5@	c #15214A",
"6@	c #142049",
"7@	c #122249",
"8@	c #142548",
"9@	c #1D3E38",
"0@	c #263729",
"a@	c #544C62",
"b@	c #A28F8B",
"c@	c #6F5053",
"d@	c #32345B",
"e@	c #32365B",
"f@	c #1F2640",
"g@	c #13234C",
"h@	c #162350",
"i@	c #16224E",
"j@	c #141F48",
"k@	c #15214B",
"l@	c #14234E",
"m@	c #132045",
"n@	c #152047",
"o@	c #121E45",
"p@	c #131F48",
"q@	c #13214A",
"r@	c #132347",
"s@	c #11223C",
"t@	c #4F4143",
"u@	c #B59C8C",
"v@	c #7C5853",
"w@	c #383F65",
"x@	c #405088",
"y@	c #27324D",
"z@	c #15234C",
"A@	c #15224B",
"B@	c #131F43",
"C@	c #142046",
"D@	c #131D43",
"E@	c #142048",
"F@	c #132048",
"G@	c #111E44",
"H@	c #121F41",
"I@	c #242B38",
"J@	c #505779",
"K@	c #5A6B95",
"L@	c #353D5C",
"M@	c #3C4A82",
"N@	c #2B3552",
"O@	c #141E48",
"P@	c #15214C",
"Q@	c #16214C",
"R@	c #14214B",
"S@	c #131F46",
"T@	c #132049",
"U@	c #13204B",
"V@	c #111F44",
"W@	c #121E43",
"X@	c #101B3E",
"Y@	c #131D44",
"Z@	c #121D46",
"`@	c #121D44",
" #	c #121E41",
".#	c #151B38",
"+#	c #272538",
"@#	c #38405D",
"##	c #485C86",
"$#	c #2B3747",
"%#	c #2E3348",
"&#	c #2A2C3C",
"*#	c #171E3F",
"=#	c #141D46",
"-#	c #14214D",
";#	c #16224F",
">#	c #0F193A",
",#	c #10193A",
"'#	c #101A3B",
")#	c #101A3C",
"!#	c #111D40",
"~#	c #161D3B",
"{#	c #393648",
"]#	c #473E48",
"^#	c #262933",
"/#	c #142131",
"(#	c #413C46",
"_#	c #5F595F",
":#	c #35394A",
"<#	c #1A2344",
"[#	c #141F49",
"}#	c #12204B",
"|#	c #14214C",
"1#	c #141B42",
"2#	c #11193D",
"3#	c #121A3D",
"4#	c #111B3C",
"5#	c #121C3E",
"6#	c #121E44",
"7#	c #122047",
"8#	c #242841",
"9#	c #403D4D",
"0#	c #2A2C40",
"a#	c #131C3A",
"b#	c #323146",
"c#	c #494653",
"d#	c #3C3E4A",
"e#	c #20283F",
"f#	c #131E46",
"g#	c #131F49",
"h#	c #131F45",
"i#	c #14204A",
"j#	c #131F4A",
"k#	c #121C41",
"l#	c #131B40",
"m#	c #141D43",
"n#	c #131D42",
"o#	c #141F47",
"p#	c #151F49",
"q#	c #141E41",
"r#	c #151E42",
"s#	c #121C42",
"t#	c #131B3E",
"u#	c #161B3E",
"v#	c #151C3C",
"w#	c #141D40",
"x#	c #121D45",
"y#	c #131E47",
"z#	c #131E44",
"A#	c #141E44",
"B#	c #121F46",
"C#	c #131F47",
"D#	c #283150",
"E#	c #283151",
"F#	c #293354",
"G#	c #2B3557",
"H#	c #2B3659",
"I#	c #2C3658",
"J#	c #2B3456",
"K#	c #2A3355",
"L#	c #2C3459",
"M#	c #2A3456",
"N#	c #293357",
"O#	c #2A3357",
"P#	c #2B3357",
"Q#	c #2C3256",
"R#	c #2B3153",
"S#	c #293353",
"T#	c #293356",
"U#	c #2B3356",
"V#	c #2B3355",
"W#	c #2A3354",
"X#	c #283456",
"Y#	c #293558",
"Z#	c #2A3459",
"  . . + @ # $ % & * = - ; > , ' ) ! ~ { ] ^ / ( ",
"_ : < [ - }   | 1 2 3 4 / 5 6 7 8 + 9 0 a b c d ",
"e f g % h i j j $ k l m n o p q { 2 > r < s t + ",
"u v w x y z A B C D E F G H I J K L M N O L | L ",
"P = Q R S T U V W X Y Z `  ...+.@.#.$.%.  7 2 &.",
"*.=.c x -.;.>.,.'.).!.~.{.].^./.(._.< :.<.- [.}.",
"|.1.2.3.4.5.6.7.8.9.0.a.b.c.d.e.f.g.<.h.$ i.j.k.",
"l.m.n.o.p.q.r.s.t.u.v.w.x.y.z.A.B.h.= J d j.C.T ",
"y D.E.F.G.1.H.E I.t.J.K.L.M.N.O.P.Q.l.R.S.T.U.V.",
"U W.X.Y.Z.`. +.+s.++@+#+$+%+&+*+=+-+;+=.5.3 >+,+",
"'+)+!+~+{+]+^+/+(+_+:+<+[+}+|+H.1+2+0 3+4+3+5+z ",
"6+7+8+9+p.0+a+b+c+d+e+f+g+h+i+j+2.E.k+k+l+k+m+=.",
"n+o+o.9+p+q+r+s+t+u+v+w+x+y+z+z+E.-.A+X.B+G.m.d ",
"C+D+l+l+E+F+G+H+I+J+K+L+M+N+O+0 P+O+D.Q+R+S+-.T+",
"U+V+B+W+X+Y+Z+`+ @.@+@@@#@$@6+%@&@*@D.=@y -@;@>@",
",@o+'@)@!@~@{@]@^@/@(@_@:@<@C+[@7+*@}@|@1@2@3@)+",
"!@4@5@6@7@8@9@0@a@b@c@d@e@f@C+g@[@%@h@Q+i@j@k@l@",
"m@n@o@p@q@6+r@s@t@u@v@w@x@y@z@Q+U k k z@4@o@A@W.",
"B@C@D@E@q@F@G@H@I@J@K@L@M@N@n O@P@Q@R@k@5@S@T@U@",
"V@W@X@Y@Z@`@ #.#+#@###$#%#&#*#=#k@R@R@-#;#Q+U -#",
"X@>#,#'#)#!#W@~#{#]#^#/#(#_#:#<#[#}#}#n+R@-#|#|#",
"1#2#3#4#5#6#7#B@8#9#0#a#b#c#d#e#f#g#h#S@i#i#U@j#",
"k#l#m#n#6#o#p#p@Y@q#r#s#t#u#v#w#x#y#z#A#B#C#j@p@",
"D#E#F#G#H#I#J#K#L#M#N#O#P#Q#R#S#T#U#V#W#X#Y#Z#Z#"};
