/* XPM */
static char * up_xpm[] = {
"24 24 458 2",
"  	c #192C65",
". 	c #18285D",
"+ 	c #182B63",
"@ 	c #182A62",
"# 	c #182B5E",
"$ 	c #16295A",
"% 	c #162759",
"& 	c #162A5C",
"* 	c #162A61",
"= 	c #17295D",
"- 	c #172A5E",
"; 	c #1B2D64",
"> 	c #1B2C65",
", 	c #192B62",
"' 	c #16285C",
") 	c #192A60",
"! 	c #172B62",
"~ 	c #192D66",
"{ 	c #182C62",
"] 	c #192D64",
"^ 	c #1C2F69",
"/ 	c #1A2D66",
"( 	c #192B61",
"_ 	c #182861",
": 	c #17255A",
"< 	c #1B2B62",
"[ 	c #172A60",
"} 	c #172A5F",
"| 	c #192C63",
"1 	c #192D65",
"2 	c #182E64",
"3 	c #1A2C65",
"4 	c #172758",
"5 	c #192A5F",
"6 	c #1A2D64",
"7 	c #192E66",
"8 	c #182C64",
"9 	c #172A62",
"0 	c #1A2C63",
"a 	c #162453",
"b 	c #1A295C",
"c 	c #192C5F",
"d 	c #182A5B",
"e 	c #17295B",
"f 	c #16245A",
"g 	c #1A285F",
"h 	c #182960",
"i 	c #152758",
"j 	c #152659",
"k 	c #16285B",
"l 	c #172452",
"m 	c #131C3B",
"n 	c #19213C",
"o 	c #1A233D",
"p 	c #131D35",
"q 	c #12203D",
"r 	c #142551",
"s 	c #172B5D",
"t 	c #1A2C64",
"u 	c #1B2D65",
"v 	c #172456",
"w 	c #182D66",
"x 	c #192D63",
"y 	c #132151",
"z 	c #152658",
"A 	c #16275A",
"B 	c #162456",
"C 	c #152452",
"D 	c #152455",
"E 	c #142557",
"F 	c #142554",
"G 	c #14224A",
"H 	c #0A0D1B",
"I 	c #191717",
"J 	c #6A6C6D",
"K 	c #757778",
"L 	c #3D3E3F",
"M 	c #1B1B1B",
"N 	c #0C0C10",
"O 	c #121E3F",
"P 	c #17265A",
"Q 	c #1B2E68",
"R 	c #1A2E68",
"S 	c #152555",
"T 	c #172B5F",
"U 	c #19265A",
"V 	c #14214E",
"W 	c #15224F",
"X 	c #14224F",
"Y 	c #14204A",
"Z 	c #101932",
"` 	c #060505",
" .	c #464647",
"..	c #B3B7BA",
"+.	c #C1C7CB",
"@.	c #A5A9AC",
"#.	c #4C4C4C",
"$.	c #100D0B",
"%.	c #0A0D17",
"&.	c #192A5E",
"*.	c #1A2960",
"=.	c #19275D",
"-.	c #1B2D66",
";.	c #152351",
">.	c #162657",
",.	c #162352",
"'.	c #182758",
").	c #162554",
"!.	c #141F45",
"~.	c #0C0E19",
"{.	c #090504",
"].	c #424140",
"^.	c #515150",
"/.	c #626263",
"(.	c #939698",
"_.	c #393937",
":.	c #060302",
"<.	c #09080B",
"[.	c #142145",
"}.	c #1B2B61",
"|.	c #182A5F",
"1.	c #18285B",
"2.	c #152457",
"3.	c #152556",
"4.	c #172656",
"5.	c #172555",
"6.	c #132251",
"7.	c #162758",
"8.	c #18295B",
"9.	c #121C3A",
"0.	c #070504",
"a.	c #060301",
"b.	c #0B0908",
"c.	c #090706",
"d.	c #0D0B0A",
"e.	c #272423",
"f.	c #060200",
"g.	c #070301",
"h.	c #0D1426",
"i.	c #172859",
"j.	c #16295C",
"k.	c #17285B",
"l.	c #17275B",
"m.	c #142252",
"n.	c #17285A",
"o.	c #172759",
"p.	c #132250",
"q.	c #142451",
"r.	c #152554",
"s.	c #172757",
"t.	c #0F1934",
"u.	c #070302",
"v.	c #070300",
"w.	c #080401",
"x.	c #090604",
"y.	c #060201",
"z.	c #0C1221",
"A.	c #152757",
"B.	c #172A5C",
"C.	c #182759",
"D.	c #152450",
"E.	c #152250",
"F.	c #152553",
"G.	c #162555",
"H.	c #172655",
"I.	c #152552",
"J.	c #0E1328",
"K.	c #060300",
"L.	c #0A0B14",
"M.	c #14234C",
"N.	c #18275A",
"O.	c #182658",
"P.	c #162351",
"Q.	c #14224D",
"R.	c #13234E",
"S.	c #152653",
"T.	c #162858",
"U.	c #152858",
"V.	c #182859",
"W.	c #141B3C",
"X.	c #070404",
"Y.	c #090A13",
"Z.	c #162656",
"`.	c #172858",
" +	c #182659",
".+	c #182556",
"++	c #14214A",
"@+	c #14234F",
"#+	c #162754",
"$+	c #172756",
"%+	c #172657",
"&+	c #162151",
"*+	c #182553",
"=+	c #10162B",
"-+	c #070200",
";+	c #080504",
">+	c #0C0B10",
",+	c #0E162E",
"'+	c #152451",
")+	c #162556",
"!+	c #152557",
"~+	c #162557",
"{+	c #14224C",
"]+	c #14244F",
"^+	c #13244E",
"/+	c #13244F",
"(+	c #152350",
"_+	c #172350",
":+	c #1A2753",
"<+	c #1C293F",
"[+	c #15171B",
"}+	c #1A212B",
"|+	c #0E1014",
"1+	c #101216",
"2+	c #0F1114",
"3+	c #0F1216",
"4+	c #171A21",
"5+	c #202C3D",
"6+	c #16234B",
"7+	c #152656",
"8+	c #152654",
"9+	c #17275A",
"0+	c #122049",
"a+	c #142550",
"b+	c #13234F",
"c+	c #142450",
"d+	c #172451",
"e+	c #202846",
"f+	c #243B48",
"g+	c #22333F",
"h+	c #364E68",
"i+	c #314A60",
"j+	c #39566E",
"k+	c #375369",
"l+	c #344B60",
"m+	c #29343E",
"n+	c #243E47",
"o+	c #212F48",
"p+	c #162450",
"q+	c #152652",
"r+	c #14234D",
"s+	c #142552",
"t+	c #152453",
"u+	c #182450",
"v+	c #27294A",
"w+	c #2B3859",
"x+	c #1F323C",
"y+	c #283942",
"z+	c #2F404C",
"A+	c #31474F",
"B+	c #314450",
"C+	c #304445",
"D+	c #254442",
"E+	c #305665",
"F+	c #33485F",
"G+	c #192446",
"H+	c #16234F",
"I+	c #172352",
"J+	c #162658",
"K+	c #132553",
"L+	c #132651",
"M+	c #162452",
"N+	c #162652",
"O+	c #18254E",
"P+	c #57434A",
"Q+	c #806E69",
"R+	c #313E48",
"S+	c #22343E",
"T+	c #293C3E",
"U+	c #28433E",
"V+	c #263A41",
"W+	c #23483F",
"X+	c #263E44",
"Y+	c #364355",
"Z+	c #22273E",
"`+	c #15204B",
" @	c #142651",
".@	c #152651",
"+@	c #15244E",
"@@	c #14244D",
"#@	c #14244E",
"$@	c #19254C",
"%@	c #7A5E5B",
"&@	c #CEBDA3",
"*@	c #4C5655",
"=@	c #2F3A3E",
"-@	c #2A4437",
";@	c #23463C",
">@	c #29403D",
",@	c #35453D",
"'@	c #203F39",
")@	c #232C2F",
"!@	c #373752",
"~@	c #292841",
"{@	c #172148",
"]@	c #15224E",
"^@	c #15214D",
"/@	c #15204A",
"(@	c #15214A",
"_@	c #142049",
":@	c #122249",
"<@	c #152149",
"[@	c #382F45",
"}@	c #7B635E",
"|@	c #383F37",
"1@	c #3B4044",
"2@	c #293C3B",
"3@	c #1C3942",
"4@	c #2C3B42",
"5@	c #424645",
"6@	c #213C31",
"7@	c #423635",
"8@	c #836666",
"9@	c #413443",
"0@	c #18224A",
"a@	c #16224D",
"b@	c #141F48",
"c@	c #15214B",
"d@	c #14234E",
"e@	c #132045",
"f@	c #152047",
"g@	c #121E45",
"h@	c #131F48",
"i@	c #13214A",
"j@	c #122048",
"k@	c #141F44",
"l@	c #18203A",
"m@	c #1D312A",
"n@	c #263F34",
"o@	c #233E3A",
"p@	c #243D3D",
"q@	c #264139",
"r@	c #2C4636",
"s@	c #243F37",
"t@	c #947867",
"u@	c #E3C2A4",
"v@	c #55414A",
"w@	c #172147",
"x@	c #15224A",
"y@	c #15224B",
"z@	c #131F43",
"A@	c #142046",
"B@	c #131D43",
"C@	c #142048",
"D@	c #132048",
"E@	c #111E44",
"F@	c #121E42",
"G@	c #141F3D",
"H@	c #2A3B4B",
"I@	c #2A4A4F",
"J@	c #1E3B38",
"K@	c #1E3A37",
"L@	c #204038",
"M@	c #24463E",
"N@	c #283845",
"O@	c #6A514E",
"P@	c #836A64",
"Q@	c #2C2B48",
"R@	c #131F46",
"S@	c #132049",
"T@	c #13204B",
"U@	c #111F44",
"V@	c #121E43",
"W@	c #101B3E",
"X@	c #131D44",
"Y@	c #121D46",
"Z@	c #121D44",
"`@	c #121E41",
" #	c #111D41",
".#	c #111B3C",
"+#	c #2D3A57",
"@#	c #4D6798",
"##	c #2C3954",
"$#	c #142144",
"%#	c #1E263F",
"&#	c #363A4D",
"*#	c #322F3E",
"=#	c #211D30",
"-#	c #1B2449",
";#	c #14214D",
">#	c #16224F",
",#	c #0F193A",
"'#	c #10193A",
")#	c #101A3B",
"!#	c #101A3C",
"~#	c #111D40",
"{#	c #121C3D",
"]#	c #22243A",
"^#	c #3D4264",
"/#	c #2A2F41",
"(#	c #142042",
"_#	c #21233F",
":#	c #655B65",
"<#	c #57505E",
"[#	c #212037",
"}#	c #12204A",
"|#	c #14214B",
"1#	c #14214C",
"2#	c #141B42",
"3#	c #11193D",
"4#	c #121A3D",
"5#	c #121C3E",
"6#	c #121E44",
"7#	c #122047",
"8#	c #131F45",
"9#	c #161D3B",
"0#	c #453F4C",
"a#	c #90898B",
"b#	c #45404B",
"c#	c #131C3E",
"d#	c #191D3E",
"e#	c #353346",
"f#	c #2E2E43",
"g#	c #151D41",
"h#	c #121F49",
"i#	c #131F4A",
"j#	c #121C41",
"k#	c #131B40",
"l#	c #141D43",
"m#	c #131D42",
"n#	c #141F47",
"o#	c #151F49",
"p#	c #171E41",
"q#	c #484555",
"r#	c #92898C",
"s#	c #423C4D",
"t#	c #131C40",
"u#	c #141A40",
"v#	c #121A3B",
"w#	c #121C3F",
"x#	c #131E47",
"y#	c #131E44",
"z#	c #141E44",
"A#	c #121F46",
"B#	c #131F47",
"C#	c #283150",
"D#	c #283151",
"E#	c #293354",
"F#	c #2B3557",
"G#	c #2B3659",
"H#	c #2C3658",
"I#	c #2B3456",
"J#	c #2A3355",
"K#	c #2C3458",
"L#	c #2D334E",
"M#	c #34344B",
"N#	c #2C314D",
"O#	c #2B3357",
"P#	c #2B3256",
"Q#	c #2B3153",
"R#	c #2A3353",
"S#	c #293356",
"T#	c #2B3356",
"U#	c #2B3355",
"V#	c #2A3354",
"W#	c #283456",
"X#	c #293558",
"Y#	c #2A3459",
"  . . + @ # $ % & * = - ; > , ' ) ! ~ { ] ^ / ( ",
"_ : < [ } |   1 2 3 4 5 6 7 7 8 9 + 0 a b c d e ",
"f g h % i j k k $ l m n o p q r s t u v < w x + ",
"y z A B C D E F G H I J K L M N O ~ > P Q R 1 R ",
"S = T U V W X Y Z `  ...+.@.#.$.%.&.*.=.  8 t -.",
";.>.d B ,.'.).!.~.{.].^./.(._.:.<.[.}.5 |.} 1.2.",
"3.4.5.6.7.8.>.9.0.a.b.c.d.].e.f.g.h.i.j.$ k.l.m.",
"n.o.p.q.r.s.3.t.u.f.g.v.w.x.y.f.a.z.A.B.e l.C.W ",
"C D.E.F.G.H.I.J.g.f.f.f.f.f.f.K.g.L.M.e 8.N.O.P.",
"Q.R.S.T.U.V.l W.X.f.v.f.f.v.K.v.a.Y.!.Z.`.4  +.+",
"++@+#+$+7.%+&+*+=+u.u.a.-+f.f.;+>+,+'+)+!+)+~+D ",
"{+]+^+/+r.(+_+:+<+[+}+|+1+2+3+4+5+6+3.7+8+7+9+>.",
"0+a+q.b+c+0+d+e+f+g+h+i+j+k+l+m+n+o+p+S.q+G.o.e ",
"r+s+8+S t+).u+v+w+x+y+z+A+B+C+D+E+F+G+H+p+I+,.J+",
"K+L+q+M+'+N+O+P+Q+R+S+T+U+V+U+W+X+Y+Z+++'+_+`+M+",
" @a+.@+@@@#@$@%@&@*@=@-@;@>@,@'@)@!@~@{@]@^@/@@+",
"@@G (@_@:@G <@[@}@|@1@2@3@4@5@6@7@8@9@0@a@b@c@d@",
"e@f@g@h@i@{+j@k@l@m@n@o@p@q@r@s@t@u@v@w@x@g@y@R.",
"z@A@B@C@i@D@E@F@G@H@I@J@K@L@M@N@O@P@Q@(@(@R@S@T@",
"U@V@W@X@Y@Z@`@ #.#+#@###$#%#&#*#=#-#y@;#>#H+Q.;#",
"W@,#'#)#!#~#V@F@{#]#^#/#(#_#:#<#[#++}#0+|#;#1#1#",
"2#3#4#.#5#6#7#8#9#0#a#b#c#d#e#f#g#h#8#R@Y Y T@i#",
"j#k#l#m#6#n#o#h@p#q#r#s#t#u#v#w#Y@x#y#z#A#B#b@h@",
"C#D#E#F#G#H#I#J#K#L#M#N#O#P#Q#R#S#T#U#V#W#X#Y#Y#"};
