/* XPM */
static char *ff47ffbfe2e345bef738f8ec6feb096ba9wD91OZxOB7flnE[] = {
/* columns rows colors chars-per-pixel */
"50 67 13 1 ",
"  c None",
". c #030405",
"X c #040506",
"o c #2D180E",
"O c #242857",
"+ c #E51C21",
"@ c #E72566",
"# c #70B62E",
"$ c #B79C13",
"% c #F6A119",
"& c #E7C711",
"* c #384697",
"= c white",
/* pixels */
"             &&&&&   &&&&&& &&&&&&&               ",
"             &&&&&&&&&&&&&&&&&&&&&&&&             ",
"             &&&&&&&&&&&$$&&&&&$$&&&&             ",
"             &&&&&&&&&&&$$&&&&&$$&&&&             ",
"             &&&##&&&&$$**&&&$$@@$$&&             ",
"             &&&##&&&&$$**&&&$$@@$$&&             ",
"             &&&$$$$&&$$$$$&&$$$$$$&&             ",
"             &&&$$$$&&$$$$$&&$$$$$$&&             ",
"             &&&$$$$&&$$$$$&&$$$$$$&&             ",
"     XXXXXXXXX&&$$$$&&$$$$$&&$$$$$$&&....         ",
"     XXXXXXXXX&&$$$$&&$$$$$&&$$$$$$&&....         ",
"     XXXXXXXXX&&$$$$&&$$$$$&&$$$$$$&&......       ",
"     XXXoooooo&&&&&&&&&&&&&&&&&&&&&&&oo....       ",
"     XXXoooooo&&&&&&&&&&&&&&&&&&&&&&&oo......     ",
"       XXXoooo..===================..oooo....     ",
"     XXXXXoooo..===================..oooo....     ",
"     XXXXXoooo..==....=======....==..oooooo..     ",
"    XXXXXXoooo..==....=======....==..oooooo...    ",
"    XXXXoooooo....==%%..===..%%==....oooooooo.    ",
"    XXXXoooooo....==%%..===..%%==....oooooooo.    ",
"    XXoooooooo..==....=======....==..oooooooo.    ",
"    XXoooooooo..===================..oooooooo.    ",
"    XXoooooooo..===================..oooooooo...  ",
"    XXoooooooo..===================..oooooooo...  ",
"    XXoooooooo..===================..oooooooo.....",
"    XXoooooooo..======XXXXXXX++====..ooooooooo....",
"  XXXXoooooooo..======XXXXXXX++====..ooooooooo....",
"  XXXXoooooooo..=============++====..ooooooooo....",
"  XXXXoooooooo..=============++====..ooooooooo....",
"  XXXoooooooooXX.......................ooooooooo..",
"  XXXoooooooooXX.......................ooooooooo..",
"  XXXoooooooooXXOOOOOOOOOOOOOOOOOOO....ooooooooo..",
"XXXXXoooooooooXXOOOOOOOOOOOOOOOOOOO....ooooooooo..",
"XXXXXooo......XXOOOOOOOOOOOOOOOOOOO...........oo..",
"XXXXXooo......XXOOOOOOOOOOOOOOOOOOO...........oo..",
"XXXXXXXXXX====XXOOOOOOOOOOOOOOOOOOO..====.....oo..",
"XXXXXXXXXX====XXOOOOOOOOOOOOOOOOOOO..====.....oo..",
"       ...====..OOOOOOOOOOOOOOOOOOO..====.....oo..",
"       ...====..OOOOOOOOOOOOOOOOOOO..====.....oo..",
"       ...====..OOOOOOOOOOOOOOOOOOO..====.. ......",
"       ...====..OOOOOOOOOOOOOOOOOOO..====..       ",
"       ...====..OOOOOOOOOOOOOOOOOOO..====..       ",
"       ...====..OOOOOOOOOOOOOOOOOOO..====..       ",
"       ...====..OOOOOOOOOOOOOOOOOOO..====..       ",
"       .........OOOOOOOOOOOOOOOOOOO........       ",
"       .........OOOOOOOOOOOOOOOOOOO........       ",
"             ...OOOOOOOOOOOOOOOOOOO..             ",
"             ...OOOOOOOOOOOOOOOOOOO..             ",
"             ...OOOOOOOOOOOOOOOOOOO..             ",
"             ...OOOOOOOOOOOOOOOOOOO..             ",
"             ...OOOOOOOOOOOOOOOOOOO..             ",
"             ...OOOOOOOOOOOOOOOOOOO..             ",
"             ...OOOOOOOOOOOOOOOOOOO..             ",
"             ...OOOOOOOOOOOOOOOOOOO..             ",
"             ...OOOOOOOOOOOOOOOOOOO..             ",
"             ...OOOOOOOOOOOOOOOOOOO..             ",
"             ........................             ",
"             ........................             ",
"             ...====..      ...====..             ",
"             ...====..      ...====..             ",
"             ...====..      ...====..             ",
"             ...====..      ...====..             ",
"             ...====..      ...====..             ",
"             ...====..      ...====..             ",
"             ...====..      ...====..             ",
"             .........      .........             ",
"             .........      .........             "
};
