/* XPM */
static char * wall_xpm[] = {
"24 24 223 2",
"  	c #151B2D",
". 	c #141A2C",
"+ 	c #141A2D",
"@ 	c #0D1326",
"# 	c #0F1528",
"$ 	c #171D2F",
"% 	c #191F31",
"& 	c #1B2234",
"* 	c #1B2335",
"= 	c #1B2436",
"- 	c #1C2537",
"; 	c #1D2537",
"> 	c #1D2638",
", 	c #1E2638",
"' 	c #1F2739",
") 	c #1F2738",
"! 	c #1F2538",
"~ 	c #1E2436",
"{ 	c #1D2335",
"] 	c #161C2F",
"^ 	c #151B2E",
"/ 	c #12182A",
"( 	c #0D1325",
"_ 	c #0B1124",
": 	c #101729",
"< 	c #11192B",
"[ 	c #121A2C",
"} 	c #141C2E",
"| 	c #141D2F",
"1 	c #151E30",
"2 	c #172031",
"3 	c #192234",
"4 	c #1B2235",
"5 	c #1C2235",
"6 	c #1F2537",
"7 	c #202639",
"8 	c #1D2336",
"9 	c #1B2134",
"0 	c #191F32",
"a 	c #13192C",
"b 	c #171E30",
"c 	c #131B2D",
"d 	c #10182A",
"e 	c #10192A",
"f 	c #0B1425",
"g 	c #071021",
"h 	c #0A1324",
"i 	c #0E1728",
"j 	c #10172A",
"k 	c #11172A",
"l 	c #161C2E",
"m 	c #171D30",
"n 	c #181E31",
"o 	c #202638",
"p 	c #1C2436",
"q 	c #182032",
"r 	c #171F31",
"s 	c #10192B",
"t 	c #060E20",
"u 	c #071022",
"v 	c #141C2D",
"w 	c #131A2C",
"x 	c #22283A",
"y 	c #1E2437",
"z 	c #182133",
"A 	c #0C1426",
"B 	c #192233",
"C 	c #1A2033",
"D 	c #21273A",
"E 	c #0D1527",
"F 	c #0F1829",
"G 	c #1B2435",
"H 	c #0E1628",
"I 	c #121B2C",
"J 	c #1D2637",
"K 	c #1F2639",
"L 	c #21283A",
"M 	c #1F2638",
"N 	c #1E2536",
"O 	c #1D2436",
"P 	c #1C2435",
"Q 	c #1D2437",
"R 	c #1E2538",
"S 	c #1D2538",
"T 	c #192134",
"U 	c #12192C",
"V 	c #161D30",
"W 	c #20273A",
"X 	c #1F2839",
"Y 	c #20283A",
"Z 	c #1F2539",
"` 	c #1F253A",
" .	c #1B2135",
"..	c #151B2F",
"+.	c #191F34",
"@.	c #21273C",
"#.	c #1D2539",
"$.	c #1D263A",
"%.	c #1F273B",
"&.	c #20283C",
"*.	c #151D2F",
"=.	c #161F30",
"-.	c #1A2234",
";.	c #172032",
">.	c #192034",
",.	c #1B2035",
"'.	c #161C31",
").	c #13182D",
"!.	c #181E33",
"~.	c #1E253A",
"{.	c #1E273B",
"].	c #1E263A",
"^.	c #0C1526",
"/.	c #0D1628",
"(.	c #0E1729",
"_.	c #0D1627",
":.	c #12192D",
"<.	c #12182D",
"[.	c #11162B",
"}.	c #10162A",
"|.	c #12182C",
"1.	c #151B30",
"2.	c #171D32",
"3.	c #192236",
"4.	c #1A2236",
"5.	c #1B2337",
"6.	c #1C2438",
"7.	c #091223",
"8.	c #171E32",
"9.	c #141A2F",
"0.	c #11172C",
"a.	c #10172C",
"b.	c #0F172B",
"c.	c #11192D",
"d.	c #121B2F",
"e.	c #222A3C",
"f.	c #21293B",
"g.	c #20293A",
"h.	c #0A1224",
"i.	c #1A2335",
"j.	c #1E2739",
"k.	c #21273B",
"l.	c #23283D",
"m.	c #22273C",
"n.	c #20263B",
"o.	c #1E2539",
"p.	c #171F33",
"q.	c #182034",
"r.	c #222B3C",
"s.	c #111A2B",
"t.	c #0A1325",
"u.	c #20273B",
"v.	c #22283D",
"w.	c #21283D",
"x.	c #21293D",
"y.	c #222A3E",
"z.	c #212A3B",
"A.	c #1F273A",
"B.	c #232B3D",
"C.	c #1F263A",
"D.	c #1F263B",
"E.	c #1E2639",
"F.	c #232A3C",
"G.	c #242A3D",
"H.	c #181E30",
"I.	c #1A2032",
"J.	c #1C2336",
"K.	c #1C2539",
"L.	c #1E2537",
"M.	c #13192B",
"N.	c #0E1426",
"O.	c #0D1426",
"P.	c #0C1327",
"Q.	c #0B1327",
"R.	c #081125",
"S.	c #091125",
"T.	c #0C1529",
"U.	c #0D162A",
"V.	c #0E1629",
"W.	c #11182A",
"X.	c #141B2D",
"Y.	c #242A3F",
"Z.	c #22283B",
"`.	c #22283C",
" +	c #121A2E",
".+	c #0B1428",
"++	c #111A2E",
"@+	c #131B2F",
"#+	c #131A2E",
"$+	c #13192D",
"%+	c #0D1227",
"&+	c #0D1226",
"*+	c #0C1226",
"=+	c #242940",
"-+	c #262B42",
";+	c #23293F",
">+	c #242A40",
",+	c #252A41",
"'+	c #252A3F",
")+	c #232A3E",
"!+	c #232C40",
"~+	c #20293D",
"{+	c #20283D",
"]+	c #1F253C",
"^+	c #1E243B",
"/+	c #1D233A",
"(+	c #1D2339",
"_+	c #262B43",
":+	c #232840",
"<+	c #252A40",
"[+	c #242C40",
"}+	c #172034",
"|+	c #1F273C",
"1+	c #22283E",
"2+	c #22283F",
"3+	c #232A3F",
"4+	c #1F283C",
"5+	c #141D31",
"6+	c #1E263B",
"7+	c #232940",
"8+	c #0D1428",
"9+	c #222B3F",
"0+	c #22293E",
"  . . + @ # $ % & * = - ; > , ' ) ! ~ ~ { { ~ ! ",
"] ^ . / ( _ # : < [ } | 1 1 2 3 4 5 { ~ ~ ~ 6 7 ",
"8 8 9 0 $ a   b c d e d f g h i j k a ^ l l m n ",
"6 7 ! o 6 8 ! 7 p 3 q r s t u e v + ^ $ $ . . w ",
"o x 6 y 7 7 o 6 ; ' ; - z A A B p y y ! 6 5 & C ",
"o D 6 y 7 6 6 y ; ' ; - z E F G ; 7 7 D D D D ! ",
"y 7 6 o 6 ~ 6 y ; ' ; - z H I J p y 6 ! 7 7 ! ~ ",
"K L M N O P O 8 Q K R S T U V ' Q 8 Q R K W K Q ",
"> X Y , J p ' ' Z ` ` `  ...+.@.` #.$.%.&.&.%.#.",
"*.=.B -.3 ;.-.B >.,. . .'.).!.Z ~.{.{.&.&.%.{.].",
"^.f /.F (._.[ I :.<.<.<.[.}.|.1.2.3.3.4.4.3.5.6.",
"Y p * G _.7.c r 8.2.2.2.1.9.<.0.a.b.b.b.b.b.c.d.",
"e.f.g.Y < h.i.j.k.l.l.m.@.n.` Z o.#.#.6.5.p.q.3.",
"j.Y f.r.s.t.* ' u.v.v.v.v.v.v.v.w.x.x.x.&.%.&.y.",
"X Y f.z.< t.* ' A.@.@.@.@.@.@.@.@.x.x.&.&.&.x.y.",
"B.e.f.Y [ A * ' C.D.D.D.C.D.n.D.C.u.u.%.].E.].%.",
"F.G.W 7 0 w O 6 E.{.{.].o.].&.%.o.M 7 7 7 W W W ",
"^ H.  l a k I.& J.K.K.6.6.#.&.&.o.6 ! ! ! y L.L.",
"n H.M.M.# ( N.O.P.Q.Q.Q.R.S.T.U.V.: : : W.X.^ ^ ",
"l.Y.k.Z.`.v.`.u.].#.6.6. +.+++@+#+$+$+$+0.%+&+*+",
"=+-+;+>+,+,+,+'+)+%.&.!+q.d.#.~+{+` ]+]+^+/+/+(+",
"=+_+:+=+,+,+,+<+)+%.&.[+}+ +#.{.|+1+2+2+2+2+2+2+",
",+_+=+=+,+,+,+,+3+4+~+[+5+b.6.$.6+7+7+7+7+7+7+7+",
",+_+=+,+,+,+,+,+3+&.x.!+:.8+].9+0+=+=+=+=+=+=+=+"};
