/* XPM */
static char *e8556ed8d2934d1fc76ab74b1b752a9fYMtUb97MdsaUEhMk[] = {
/* columns rows colors chars-per-pixel */
"24 24 122 2 ",
"   c #0B0703",
".  c #0D0804",
"X  c #130B04",
"o  c #190F06",
"O  c #140E0A",
"+  c #1D1106",
"@  c #16110E",
"#  c #1A130D",
"$  c #1D1612",
"%  c #1F1813",
"&  c #200E00",
"*  c #221303",
"=  c #281807",
"-  c #21150A",
";  c #2D1C0C",
":  c #351800",
">  c #381B00",
",  c #301F0D",
"<  c #241A15",
"1  c #2A1D16",
"2  c #251C19",
"3  c #291E1A",
"4  c #3D2004",
"5  c #34200C",
"6  c #2D211A",
"7  c #3C2610",
"8  c #33251D",
"9  c #37281F",
"0  c #39291F",
"q  c #2C2422",
"w  c #332721",
"e  c #362923",
"r  c #3B2C23",
"t  c #3B2F2A",
"y  c #3E312B",
"u  c #3D3330",
"i  c #432304",
"p  c #4C2807",
"a  c #48270B",
"s  c #41280F",
"d  c #4C2B0B",
"f  c #522D0A",
"g  c #543312",
"h  c #5C3613",
"j  c #643D16",
"k  c #643D18",
"l  c #402F24",
"z  c #423125",
"x  c #44342B",
"c  c #48362A",
"v  c #4B392E",
"b  c #503C2E",
"n  c #453A35",
"m  c #4B3C34",
"M  c #4C3E38",
"N  c #543E32",
"B  c #66411B",
"V  c #71471C",
"C  c #554136",
"Z  c #53423A",
"A  c #5C4739",
"S  c #5E4A3E",
"D  c #734920",
"F  c #674F3F",
"G  c #6A503E",
"H  c #473F40",
"J  c #494142",
"K  c #504544",
"L  c #5B4C45",
"P  c #554B49",
"I  c #5A4E4B",
"U  c #5D504D",
"Y  c #6A5141",
"T  c #63534D",
"R  c #6D584F",
"E  c #745846",
"W  c #735848",
"Q  c #785B48",
"!  c #655651",
"~  c #685752",
"^  c #6A5954",
"/  c #625759",
"(  c #675C5C",
")  c #755E53",
"_  c #7E604E",
"`  c #75645D",
"'  c #6C6160",
"]  c #726563",
"[  c #7B6961",
"{  c #746A6C",
"}  c #7F7679",
"|  c #826451",
" . c #8B6C57",
".. c #826959",
"X. c #8D6E5A",
"o. c #91715C",
"O. c #846F65",
"+. c #867166",
"@. c #8C7262",
"#. c #8D776A",
"$. c #88756E",
"%. c #8C776C",
"&. c #90796C",
"*. c #837674",
"=. c #897872",
"-. c #867C7D",
";. c #907E77",
":. c #987F72",
">. c #97847A",
",. c #94857F",
"<. c #988479",
"1. c #99857C",
"2. c #A28879",
"3. c #A68B7B",
"4. c #9C8B84",
"5. c #A28C80",
"6. c #AB9487",
"7. c #A7938A",
"8. c #AE9689",
"9. c #AB978D",
"0. c #B49E94",
"q. c #B7A195",
/* pixels */
"; ; ; ; ; ; ; ; ; ; ; ; ; ; = = = = = - - - - - ",
"; ..5.#.U y t y A _ E 8 0 Q  .| | _ z 1 - # - X ",
"; :.0.4.I M S Z Z ....8 8 Q X.o.X.Y 0 1 8 6 < X ",
"; #.4.*.~ <.5...m n Z z 8 r Q | Q c z N C w 3 . ",
"; T { -.4.6.6.7.T K ` A x 1 < 8 8 < x C y 2 2 . ",
"; L } [ <.9.7.$.M y L r w # O 6 8 < 6 8 2 $ < . ",
"; ; ; ; ; ; ; ; ; ; ; ; ; = = + o . X   X . X X ",
"p ; [ ;.,.P n R N v 6 # < 3 2 % @ @ O # # $ X f ",
"g ; [ ;.=.I / ` C C v < x m x w < 8 e 8 < < o V ",
"j ; M P K H J T | X.W 8 A C x r 6 r x y e < X D ",
"4 ; ) [ I U U M z Y F 3 e z 8 1 < m x x 2 $ X V ",
"h ; @.%.! O.5.[ z r 6 r Y F r x < 9 x r $ # o h ",
"d ; @.%.^ %.8.2.| A e Y X.| z c 8 z r 6 # # X V ",
"p ; ..[ ~ [ 1.2.o.W c E | E z r z F Y m 2 $ X j ",
"> ; m T I I ] &.| E 0 0 c c z 1 0 W Y m 6 2 X i ",
"a ; n #.5.#.( T r z 6 0 E | E 8 0 Y C y 2 2 X : ",
"g ; m 5.q.5.' ) W _ G e | o.| l 0 9 6 < < 8 X : ",
"d ; n [ >.<.U @.o.| c z | o.| c A S t $ O # X f ",
"4 ; Z U I P u A | A 8 G _ | E b Y Z e # O # o k ",
"k - ..:.:.+.n 6 8 e 8 r 8 r 6 8 v y e # < < X B ",
"s o @.3.3.&.) v 6 F W F 6 r 6 8 8 < @ O < < . B ",
"5 . | @.O.~ T q @ 2 2 2 O w 3 r w 6 2 # 2 6   , ",
"=   8 q q 2 2 % O @ @ $ O @ < $ @ @ $ @ $ <   ; ",
"* ; * * & * * * + + + o + o + + - - 7 ; = = = + "
};
