/* XPM */
static char *ff5d6efeaeb645d5988efecd5e614377DnolxIwx847esBV9[] = {
/* columns rows colors chars-per-pixel */
"24 24 7 1 ",
"  c None",
". c #25131A",
"X c #692464",
"o c #CC2F7B",
"O c #FF5277",
"+ c #FF94AB",
"@ c #DFE0E8",
/* pixels */
"                        ",
"                        ",
"                        ",
"                        ",
"                        ",
"                        ",
"           ..           ",
"          .+O.          ",
"         .O++O.         ",
"        .oOO@+o.        ",
"       .oOOOO@+O.       ",
"      .oOOOOO+@+O.      ",
"      .OO+@+@@@@+.      ",
"      .XooooOOooX.      ",
"       .XOOO++@o.       ",
"        .XO++@o.        ",
"         .o+Oo.         ",
"          .oO.          ",
"           ..           ",
"                        ",
"                        ",
"                        ",
"                        ",
"                        "
};
