/* XPM */
static char *_667c97cccbf4d94ebe29d5fb14786b34KtphbFg7RayHdUX[] = {
/* columns rows colors chars-per-pixel */
"24 24 79 1 ",
"  c #2B1300",
". c #321601",
"X c #361A03",
"o c #3B1C02",
"O c #3C2004",
"+ c #3F2109",
"@ c #452506",
"# c #4C2806",
"$ c #44230B",
"% c #49270C",
"& c #472A0E",
"* c #4C2B0C",
"= c #512A07",
"- c #522D0C",
"; c #5C340D",
": c #462B11",
"> c #4D2C11",
", c #522F13",
"< c #4D3014",
"1 c #543213",
"2 c #593513",
"3 c #5C3915",
"4 c #543618",
"5 c #5A3619",
"6 c #57391A",
"7 c #5C3C1C",
"8 c #633D16",
"9 c #643D1A",
"0 c #693D18",
"q c #4E3623",
"w c #553B21",
"e c #5D3F20",
"r c #603E20",
"t c #65411C",
"y c #6C4218",
"u c #71471C",
"i c #5E4122",
"p c #654422",
"a c #6A4622",
"s c #6E4A26",
"d c #604428",
"f c #744A23",
"g c #714D29",
"h c #795027",
"j c #74512D",
"k c #7C542C",
"l c #6B523D",
"z c #7A5D46",
"x c #7E624A",
"c c #786651",
"v c #805931",
"b c #895E33",
"n c #81654C",
"m c #896B52",
"M c #8C7056",
"N c #86725C",
"B c #93745A",
"V c #96785E",
"C c #8E7B64",
"Z c #967D60",
"A c #9B7E64",
"S c #948067",
"D c #958069",
"F c #9C876E",
"G c #9D886E",
"H c #A2866B",
"J c #A0876C",
"K c #A2886D",
"L c #A08B72",
"P c #A28C72",
"I c #AD9377",
"U c #AE9378",
"Y c #AE967B",
"T c #AE987A",
"R c #AF997D",
"E c #B0997D",
"W c #BDA387",
"Q c #BDA587",
"! c #BDA588",
/* pixels */
"#ufu-uu-ufu3u8@XX=9ttt9#",
"8YQQsQQsQQQhYY1u93QQQQQ8",
"2QQQpQQaTQQhQQpQY4QQQQQ8",
"@sjg<4G<7g74ap4YZX2kvvsy",
"2QQQH$>pTQsQQQsa4&2QQQQ8",
"3QQQM%lD!I5mBHQ9LVaQQQQt",
"2LQB5$4dEH$2451gQQsIQW!t",
"O:acpLQRw$,mBQsIQH9MQQQ9",
"2Ci<<PQQQ5BQQQgZKx+1kkG8",
"-AQQh7QET5TQQQa1>11VQafy",
"-VVMno971:aatsaY2VAIQkQu",
"-VBz>,AfhTEQgQQQsIQQQhQu",
" 25>XxAkQQQQjQQQgQQgpta-",
"*HAM5AQkQQQQ7JQS:ss4TQQ2",
"1QIH4sp4TT4>>9<7gQQgQQQ3",
"&QQQiQQas3*mzx1HQ!QpYQ!8",
"&QQQdQQQT&$mmx>ZQTs<aa1=",
"OQQQ4QQQE4q$%$.:6:pTETu#",
"O9>$.>RQL>99VZ1UL:NEQH0=",
"2Y%1n-6667IIQIrIQa7QAn-o",
"<Q5BfbQpF7TQQQjQQJ%1412=",
"2QpQQQTeQggQQQaQQQaHBBA-",
"2Y4TQQ63!QaTJ>$JQQsQQQQ2",
";3-*32.#28O2&#o%1*O911*o"
};
