/* XPM */
static char *_06_Collectables_Sheet_1[] = {
/* columns rows colors chars-per-pixel */
"16 16 90 1 ",
"  c #013307",
". c #013507",
"X c #003906",
"o c #013907",
"O c #003A06",
"+ c #013B06",
"@ c #013A07",
"# c #013B07",
"$ c #033B06",
"% c #023A07",
"& c #013C07",
"* c #013D07",
"= c #013A08",
"- c #013B08",
"; c #023A08",
": c #023B08",
"> c #043B08",
", c #023C08",
"< c #033C08",
"1 c #023D08",
"2 c #033D09",
"3 c #023F08",
"4 c #023E09",
"5 c #033E09",
"6 c #043E09",
"7 c #044109",
"8 c #04410A",
"9 c #05430B",
"0 c #05440B",
"q c #05450B",
"w c #06430C",
"e c #07430C",
"r c #06450C",
"t c #06450D",
"y c #06460D",
"u c #07460D",
"i c #07470D",
"p c #07480D",
"a c #08480E",
"s c #08490E",
"d c #0A4F10",
"f c #0C5312",
"g c #0C5412",
"h c #0C5413",
"j c #0C5513",
"k c #0C5514",
"l c #0D5614",
"z c #085911",
"x c #085A11",
"c c #0D5814",
"v c #0E5815",
"b c #0E5A15",
"n c #0F5B16",
"m c #0F5C16",
"M c #0C6415",
"N c #0C6615",
"B c #106017",
"V c #116219",
"C c #116319",
"Z c #126319",
"A c #11641A",
"S c #12641A",
"D c #12651A",
"F c #12661A",
"G c #12671A",
"H c #13671B",
"J c #14671B",
"K c #11681A",
"L c #11691A",
"P c #106B1A",
"I c #116B1A",
"U c #126A1B",
"Y c #106E1A",
"T c #0F7C1A",
"R c #117C1C",
"E c #0F801A",
"W c #0F811B",
"Q c #0F861B",
"! c #0F811C",
"~ c #10831C",
"^ c #0E9F1D",
"/ c #0EA61F",
"( c #0EAA1E",
") c #129620",
"_ c #129720",
"` c #129A20",
"' c #14AC24",
"] c #0FCB23",
"[ c #10C925",
"{ c None",
/* pixels */
"{{{{{{{{{{{{{{{{",
"{{{{{{$1;;{{{{{{",
"{{{{$;%11;;${{{{",
"{{{;1;;;;1;;;{{{",
"{{%;118pt;;11;{{",
"{{%;11sble11;;{{",
"{$%11tmZAbt;1;%{",
"{;1;tfZZAAls111{",
"{;$6sBKZAZAf81;{",
"{%1tmKKYUZHbt%%{",
"{{%8mKYTTZJmq1{{",
"{{%8gYQ(/RUh8${{",
"{{{$tM/[[`Me1{{{",
"{{{{.x)'')x {{{{",
"{{{{{{W!~~{{{{{{",
"{{{{{{{{{{{{{{{{"
};
