/* XPM */
static char *_07_Collectables_Sheet_1[] = {
/* columns rows colors chars-per-pixel */
"16 16 99 2 ",
"   c #013307",
".  c #013507",
"X  c #013907",
"o  c #003A06",
"O  c #013A06",
"+  c #003B06",
"@  c #013A07",
"#  c #013B07",
"$  c #033B06",
"%  c #023A07",
"&  c #013C07",
"*  c #013D07",
"=  c #013A08",
"-  c #013B08",
";  c #023A08",
":  c #023B08",
">  c #043B08",
",  c #013D08",
"<  c #023C08",
"1  c #023D08",
"2  c #033C09",
"3  c #033D09",
"4  c #023E08",
"5  c #023E09",
"6  c #033F09",
"7  c #044109",
"8  c #04400A",
"9  c #04410A",
"0  c #04420A",
"q  c #04420B",
"w  c #05430B",
"e  c #05440B",
"r  c #07430C",
"t  c #06440C",
"y  c #07450D",
"u  c #07480D",
"i  c #07490E",
"p  c #084B0F",
"a  c #084C0F",
"s  c #08590F",
"d  c #0A4E10",
"f  c #0A5112",
"g  c #0B5413",
"h  c #0C5413",
"j  c #0C5713",
"k  c #0D5614",
"l  c #0C5714",
"z  c #0D5714",
"x  c #085911",
"c  c #0E5915",
"v  c #0E5A15",
"b  c #0E5B16",
"n  c #0E5C16",
"m  c #105F18",
"M  c #0C6315",
"N  c #0C6715",
"B  c #106317",
"V  c #116519",
"C  c #11651A",
"Z  c #12651A",
"A  c #12661A",
"S  c #12671A",
"D  c #14671C",
"F  c #11691A",
"G  c #12681A",
"H  c #116A1A",
"J  c #116B1A",
"K  c #126B1B",
"L  c #126C1A",
"P  c #106E1A",
"I  c #106F1A",
"U  c #136C1C",
"Y  c #126E1C",
"T  c #0F7E1A",
"R  c #0F7F1B",
"E  c #11791B",
"W  c #0F821A",
"Q  c #0F861B",
"!  c #0F801C",
"~  c #10811B",
"^  c #10831C",
"/  c #13811E",
"(  c #0C951B",
")  c #0F931D",
"_  c #0F9A1E",
"`  c #0DA41D",
"'  c #119720",
"]  c #129620",
"[  c #129A20",
"{  c #12A921",
"}  c #14AD24",
"|  c #12B223",
" . c #0ECD22",
".. c #11C222",
"X. c #0FD725",
"o. c #0DDD23",
"O. c #11D326",
"+. c #10D425",
"@. c None",
/* pixels */
"@.@.@.@.@.@.@.@.@.@.@.@.@.@.@.@.",
"@.@.@.@.@.@.% % % ; @.@.@.@.@.@.",
"@.@.@.@.; ; ; 4 4 ; ; % @.@.@.@.",
"@.@.@.; ; ; 4 9 9 4 ; ; ; @.@.@.",
"@.@.% 4 4 4 i v l p 4 4 ; % @.@.",
"@.@.% ; ; q v G V v q % 4 ; @.@.",
"@.$ % ; ; i V L K m i ; ; 4 % @.",
"@.; 4 ; e l I W T V f 9 ; 4 ; @.",
"@.; 4 4 d V E _ ) K b d ; 4 ; @.",
"@.% ; e l U ^ | { G Z l 6 ; ; @.",
"@.@.; 9 v Y ^  ...Y D b e 4 @.@.",
"@.@.; 9 h L ( o.X.E K l 9 $ @.@.",
"@.@.@.4 e N ` X.O.[ M q ; @.@.@.",
"@.@.@.@.. x [ } } ] x . @.@.@.@.",
"@.@.@.@.@.@.E ^ ~ ^ @.@.@.@.@.@.",
"@.@.@.@.@.@.@.@.@.@.@.@.@.@.@.@."
};
