/* XPM */
static char *_08_Collectables_Sheet_1[] = {
/* columns rows colors chars-per-pixel */
"16 16 113 2 ",
"   c #003807",
".  c #013807",
"X  c #003907",
"o  c #013907",
"O  c #003B06",
"+  c #013A07",
"@  c #013B07",
"#  c #033B06",
"$  c #023A07",
"%  c #023B07",
"&  c #013808",
"*  c #023908",
"=  c #013A08",
"-  c #013B08",
";  c #023A08",
":  c #023B08",
">  c #043A08",
",  c #013D09",
"<  c #023C08",
"1  c #033C08",
"2  c #023D08",
"3  c #033D08",
"4  c #023E08",
"5  c #033E08",
"6  c #033E09",
"7  c #033F0A",
"8  c #03410A",
"9  c #04410A",
"0  c #05420B",
"q  c #05430B",
"w  c #05440C",
"e  c #06450D",
"r  c #06460D",
"t  c #06470E",
"y  c #08470E",
"u  c #07480D",
"i  c #07490E",
"p  c #08480E",
"a  c #08490E",
"s  c #094A0F",
"d  c #084B0F",
"f  c #05520C",
"g  c #05550D",
"h  c #084E10",
"j  c #094E10",
"k  c #0B5112",
"l  c #095410",
"z  c #0B5713",
"x  c #0C5613",
"c  c #0D5514",
"v  c #0C5614",
"b  c #0D5614",
"n  c #075D11",
"m  c #075E11",
"M  c #0C5C13",
"N  c #0C5814",
"B  c #0E5E15",
"V  c #0F5D17",
"C  c #105A16",
"Z  c #0D6015",
"A  c #0D6115",
"S  c #0E6316",
"D  c #0F6A17",
"F  c #116119",
"G  c #116319",
"H  c #126319",
"J  c #12631A",
"K  c #106819",
"L  c #116B1A",
"P  c #126A1A",
"I  c #126C1A",
"U  c #126D1B",
"Y  c #116F1A",
"T  c #136E1C",
"R  c #146D1D",
"E  c #0A7415",
"W  c #097D15",
"Q  c #0F7019",
"!  c #0F781A",
"~  c #0F7D1A",
"^  c #0F7F1B",
"/  c #14701D",
"(  c #10791A",
")  c #0E831A",
"_  c #0E851A",
"`  c #0D861A",
"'  c #0F801C",
"]  c #0D891A",
"[  c #0D8A1A",
"{  c #10811B",
"}  c #10831C",
"|  c #13821E",
" . c #0B9B1B",
".. c #0C981B",
"X. c #0BA11B",
"o. c #0CAC1D",
"O. c #0CB71E",
"+. c #129720",
"@. c #119920",
"#. c #119E20",
"$. c #14AD24",
"%. c #14AE24",
"&. c #0AC11E",
"*. c #0EC822",
"=. c #10CA24",
"-. c #10CB24",
";. c #0BD320",
":. c #0DD522",
">. c #0EDB23",
",. c #0FD925",
"<. c #10D225",
"1. c #11D326",
"2. c None",
/* pixels */
"2.2.2.2.2.2.2.2.2.2.2.2.2.2.2.2.",
"2.2.2.2.2.2.2 i r ; 2.2.2.2.2.2.",
"2.2.2.2.  2 r N v w ; % 2.2.2.2.",
"2.2.2.; ; w V J J B w . ; 2.2.2.",
"2.2.% ; 2 h K Y K J h 2 ; % 2.2.",
"2.2.% ; r z Q ) ~ J k r ; % 2.2.",
"2.# % ; i B ( X. .K v r ; % % 2.",
"2.; 2 ; p Z _ &.O.Y v r ; 2 ; 2.",
"2.% 2 ; p Z [ ;.*.T v y % 2 % 2.",
"2.% % 1 h Z [ :.-./ v r ; % % 2.",
"2.2.% 0 v K _ :.-.T C j 2 % 2.2.",
"2.2.; 0 N (  .>.<.| K l 2 % 2.2.",
"2.2.2.% g W o.,.<.#.E f > 2.2.2.",
"2.2.2.2.; n @.%.%.+.n % 2.2.2.2.",
"2.2.2.2.2.2.' ' { { 2.2.2.2.2.2.",
"2.2.2.2.2.2.2.2.2.2.2.2.2.2.2.2."
};
