/* XPM */
static char *_09_Collectables_Sheet_1[] = {
/* columns rows colors chars-per-pixel */
"16 16 131 2 ",
"   c #003504",
".  c #003505",
"X  c #003604",
"o  c #003705",
"O  c #013705",
"+  c #003606",
"@  c #003706",
"#  c #013907",
"$  c #003B06",
"%  c #003A07",
"&  c #013A07",
"*  c #013B07",
"=  c #023A07",
"-  c #023A08",
";  c #033A08",
":  c #013D08",
">  c #013D09",
",  c #023C08",
"<  c #023D09",
"1  c #033D0A",
"2  c #014108",
"3  c #034009",
"4  c #034109",
"5  c #014209",
"6  c #03400A",
"7  c #04400A",
"8  c #05400A",
"9  c #04410A",
"0  c #024409",
"q  c #03470A",
"w  c #05440B",
"e  c #04450B",
"r  c #05450B",
"t  c #05460B",
"y  c #06450C",
"u  c #06460C",
"i  c #074A0E",
"p  c #08480E",
"a  c #08490E",
"s  c #04540D",
"d  c #0A4C11",
"f  c #0C5211",
"g  c #0D5314",
"h  c #0E5315",
"j  c #0D5714",
"k  c #095F12",
"l  c #0D5A14",
"z  c #0E5A15",
"x  c #0E5A16",
"c  c #0F5D17",
"v  c #0F5F16",
"b  c #115C17",
"n  c #105C18",
"m  c #076311",
"M  c #086412",
"N  c #0E6016",
"B  c #0E6217",
"V  c #0F6217",
"C  c #0E6317",
"Z  c #0C6516",
"A  c #076C13",
"S  c #0F6518",
"D  c #116119",
"F  c #116219",
"G  c #12631A",
"H  c #106518",
"J  c #13651B",
"K  c #12671B",
"L  c #12691A",
"P  c #106A1A",
"I  c #136B1B",
"U  c #126C1B",
"Y  c #126E1B",
"T  c #146E1D",
"R  c #077314",
"E  c #0F7419",
"W  c #0F7F1B",
"Q  c #10771B",
"!  c #15721D",
"~  c #13741C",
"^  c #14771E",
"/  c #157D1F",
"(  c #0D861A",
")  c #0F801C",
"_  c #0D891A",
"`  c #0D8B1A",
"'  c #0C8D1A",
"]  c #0E8F1B",
"[  c #10811B",
"{  c #10811C",
"}  c #10831C",
"|  c #13821E",
" . c #10841C",
".. c #11841D",
"X. c #0B911A",
"o. c #0D941B",
"O. c #0C991B",
"+. c #0D9F1B",
"@. c #0C9F1C",
"#. c #0AAA1B",
"$. c #0FA81F",
"%. c #0CAD1D",
"&. c #09B21A",
"*. c #07BD1A",
"=. c #158220",
"-. c #148E20",
";. c #129720",
":. c #119920",
">. c #119F20",
",. c #139D22",
"<. c #15A023",
"1. c #13A823",
"2. c #14AD24",
"3. c #14AE24",
"4. c #19B32A",
"5. c #1AB52A",
"6. c #07C31B",
"7. c #0AC01C",
"8. c #07CA1C",
"9. c #0CC820",
"0. c #10C222",
"q. c #10CB24",
"w. c #10CF24",
"e. c #0DD422",
"r. c #0DD522",
"t. c #0EDB23",
"y. c #0FD825",
"u. c #10D125",
"i. c #11D325",
"p. c #11D126",
"a. c None",
/* pixels */
"a.a.a.a.a.a.a.a.a.a.a.a.a.a.a.a.",
"a.a.a.a.a.a.O O O O a.a.a.a.a.a.",
"a.a.a.a.= 1 w w w 3 , , a.a.a.a.",
"a.a.a.= 1 p n D D v y , , a.a.a.",
"a.a.1 i B [ @.] Q D x i , , a.a.",
"a.a.3 v =.1.8.&.] J J x w , a.a.",
"a.O w ~ -.$.6.*.+.^ ! I x 1 O a.",
"a.O w v Y  .#.7.0.4.<. .V e O a.",
"a.= 1 p h P o.9.i.5.,.) B q O a.",
"a.$ = = d S _ e.9./ Y J l 1 O a.",
"a.a.= w h P ( y.w.T n f q 1 a.a.",
"a.a.; w Z { O.t.i.=.E k 3 1 a.a.",
"a.a.a.q A X.%.y.i.>.' R s a.a.a.",
"a.a.a.a.3 M O.3.2.:.M 3 a.a.a.a.",
"a.a.a.a.a.a.) ) ) [ a.a.a.a.a.a.",
"a.a.a.a.a.a.a.a.a.a.a.a.a.a.a.a."
};
