/* XPM */
static char *_10_Collectables_Sheet_1[] = {
/* columns rows colors chars-per-pixel */
"16 16 140 2 ",
"   c #003304",
".  c #003707",
"X  c #013907",
"o  c #023907",
"O  c #003B06",
"+  c #013A07",
"@  c #013B07",
"#  c #023A07",
"$  c #013A08",
"%  c #033B08",
"&  c #013D09",
"*  c #033C08",
"=  c #033F09",
"-  c #014308",
";  c #014209",
":  c #03420A",
">  c #04410A",
",  c #04430B",
"<  c #04450B",
"1  c #07430D",
"2  c #06440C",
"3  c #07440D",
"4  c #06460C",
"5  c #09410E",
"6  c #08440E",
"7  c #09450F",
"8  c #08470E",
"9  c #03480B",
"0  c #054B0A",
"q  c #034A0C",
"w  c #06480D",
"e  c #074D0F",
"r  c #074F0F",
"t  c #09490F",
"y  c #084B0F",
"u  c #01530A",
"i  c #045E0E",
"p  c #085A0F",
"a  c #094010",
"s  c #094310",
"d  c #0A4710",
"f  c #0B4C10",
"g  c #0A5011",
"h  c #0E5115",
"j  c #0E5614",
"k  c #0A5812",
"l  c #0D5813",
"z  c #0C5E14",
"x  c #0D5F15",
"c  c #115B17",
"v  c #076312",
"b  c #0A6013",
"n  c #086212",
"m  c #0B6114",
"M  c #0B6314",
"N  c #0E6316",
"B  c #0F6317",
"V  c #0C6515",
"C  c #076C13",
"Z  c #0B6814",
"A  c #0D6E16",
"S  c #106618",
"D  c #106C19",
"F  c #116C1A",
"G  c #126C1B",
"H  c #146E1D",
"J  c #0C7116",
"K  c #087514",
"L  c #0B7615",
"P  c #0C7416",
"I  c #0D7617",
"U  c #0A7815",
"Y  c #0B7916",
"T  c #0F7219",
"R  c #0F751A",
"E  c #0E7919",
"W  c #0E7C1A",
"Q  c #0F7F1B",
"!  c #117B1C",
"~  c #157D1F",
"^  c #0D8419",
"/  c #0D8619",
"(  c #0D861A",
")  c #0F801C",
"_  c #0D891A",
"`  c #0C8C19",
"'  c #0C8C1A",
"]  c #10811B",
"[  c #10831C",
"{  c #13821E",
"}  c #0B911A",
"|  c #099418",
" . c #0B9619",
".. c #0B991A",
"X. c #0C991B",
"o. c #0E9B1D",
"O. c #0CAD1D",
"+. c #0CAF1C",
"@. c #10A41F",
"#. c #09B71B",
"$. c #0BB91D",
"%. c #0BBA1D",
"&. c #09BE1C",
"*. c #129720",
"=. c #119920",
"-. c #119F20",
";. c #14AD24",
":. c #14AE24",
">. c #15AE25",
",. c #0EBF20",
"<. c #1AB02A",
"1. c #07C419",
"2. c #09C31C",
"3. c #0CC31F",
"4. c #07CE1C",
"5. c #09C91C",
"6. c #08CE1C",
"7. c #0ACE1F",
"8. c #07D41C",
"9. c #07E51E",
"0. c #05F31E",
"q. c #0FC122",
"w. c #0ECA22",
"e. c #0FCC23",
"r. c #10CB24",
"t. c #10CF24",
"y. c #0FD123",
"u. c #0DD422",
"i. c #0DD522",
"p. c #0EDB23",
"a. c #0FD825",
"s. c #0FDC25",
"d. c #10D125",
"f. c #11D125",
"g. c #11D126",
"h. c #16D32A",
"j. c #0FE225",
"k. c #0AE821",
"l. c #11E126",
"z. c None",
/* pixels */
"z.z.z.z.z.z.z.z.z.z.z.z.z.z.z.z.",
"z.z.z.z.z.z.  . X $ z.z.z.z.z.z.",
"z.z.z.z.0 q 3 , = X X X z.z.z.z.",
"z.z.z.r L / E m 8 = X X # z.z.z.",
"z.z.u | q.y.4...m 8 6 8 6 @ z.z.",
"z.z.i 5.s.j.0.&.` I I I m 3 z.z.",
"z.a Z 1.+.@.e.$.#.7.9.6.| x d z.",
"z.3 k U R ! o.$.w.h.l.k.8.J s z.",
"z.> 8 8 h S / q.f.<.>.q.2.A 8 z.",
"z.X X X d m ` y.t.~ F F F l y z.",
"z.z.$ $ f N / u.r.H c j f , z.z.",
"z.z.$ ; b Q ..p.f.{ T m r = z.z.",
"z.z.z.q C } +.a.f.-.` L k z.z.z.",
"z.z.z.z.; v =.>.;.=.v - z.z.z.z.",
"z.z.z.z.z.z.Q ) ) [ z.z.z.z.z.z.",
"z.z.z.z.z.z.z.z.z.z.z.z.z.z.z.z."
};
