/* XPM */
static char *_11_Collectables_Sheet_1[] = {
/* columns rows colors chars-per-pixel */
"16 16 142 2 ",
"   c #003B06",
".  c #013A07",
"X  c #023A07",
"o  c #023C08",
"O  c #023D09",
"+  c #033D0A",
"@  c #013E0A",
"#  c #043E0A",
"$  c #093E0E",
"%  c #0A3E10",
"&  c #034109",
"*  c #034308",
"=  c #034309",
"-  c #03400A",
";  c #04410A",
":  c #03460B",
">  c #07420E",
",  c #07440D",
"<  c #06460C",
"1  c #06460E",
"2  c #07460E",
"3  c #07470E",
"4  c #08430E",
"5  c #07480E",
"6  c #08490F",
"7  c #09490F",
"8  c #084B0F",
"9  c #00530A",
"0  c #01550A",
"q  c #01560A",
"w  c #07520E",
"e  c #06550E",
"r  c #085A0F",
"t  c #094010",
"y  c #0B4810",
"u  c #0C4F12",
"i  c #085110",
"p  c #095110",
"a  c #085210",
"s  c #0D5112",
"d  c #0E5115",
"f  c #0D5514",
"g  c #0A5812",
"h  c #0A5A12",
"j  c #03610E",
"k  c #04600E",
"l  c #03650E",
"z  c #076311",
"x  c #0A6113",
"c  c #086412",
"v  c #0F6216",
"b  c #0E6316",
"n  c #0D6716",
"m  c #0B6914",
"M  c #0B6B15",
"N  c #0B6F15",
"B  c #0C6C16",
"V  c #0E6C16",
"C  c #0D6E17",
"Z  c #0E6D18",
"A  c #0F6F18",
"S  c #106819",
"D  c #136B1C",
"F  c #097014",
"G  c #087514",
"H  c #0B7616",
"J  c #0A7815",
"K  c #0F7018",
"L  c #0F701A",
"P  c #0E7B19",
"I  c #0F7F1B",
"U  c #11701B",
"Y  c #13701D",
"T  c #14701D",
"R  c #0D861A",
"E  c #0D871A",
"W  c #0F801C",
"Q  c #0D891A",
"!  c #0D8D1A",
"~  c #10811B",
"^  c #10831C",
"/  c #12821D",
"(  c #12811E",
")  c #10841C",
"_  c #108D1D",
"`  c #059914",
"'  c #079916",
"]  c #0B9019",
"[  c #0C991B",
"{  c #0C9B1A",
"}  c #0E9F1D",
"|  c #05A315",
" . c #0CA21C",
".. c #0EAA1D",
"X. c #0CAD1D",
"o. c #0BB41C",
"O. c #129720",
"+. c #119920",
"@. c #119F20",
"#. c #11A520",
"$. c #14AD24",
"%. c #14AE24",
"&. c #12B222",
"*. c #12BE24",
"=. c #14BE25",
"-. c #07C51A",
";. c #08C31C",
":. c #04D019",
">. c #06D11A",
",. c #05DE1B",
"<. c #07DA1D",
"1. c #07DE1E",
"2. c #0ECC22",
"3. c #11C623",
"4. c #10CA23",
"5. c #10CB23",
"6. c #10CB24",
"7. c #19C62B",
"8. c #18CE2B",
"9. c #1AC92C",
"0. c #1BCA2D",
"q. c #1BCB2E",
"w. c #0DD222",
"e. c #0AD421",
"r. c #0DD522",
"t. c #0DD622",
"y. c #0EDA23",
"u. c #0EDB23",
"i. c #0FD825",
"p. c #10D124",
"a. c #11D126",
"s. c #18D22B",
"d. c #1DD931",
"f. c #1DDB31",
"g. c #09E020",
"h. c #0AE622",
"j. c #0FE526",
"k. c #16E22C",
"l. c #16EA2C",
"z. c #07F021",
"x. c #0BF924",
"c. c None",
/* pixels */
"c.c.c.c.c.c.c.c.c.c.c.c.c.c.c.c.",
"c.c.c.c.c.c.$ > > t c.c.c.c.c.c.",
"c.c.c.c.0 l N L L m e : c.c.c.c.",
"c.c.c.8 | ,.h.s.8.e.{ B a c.c.c.",
"c.c.0 ' 1.x.l.f.f.k.y.;.' 0 c.c.",
"c.c.k >.g.p.7.0.0.0.j.z.:.j c.c.",
"c.t m -. .) } *.=.#.&.w.<.M % c.",
"c., g J L U ! 2.3.( _ ..o.B y c.",
"c.; , 4 d S Q r.4.T Z H J g , c.",
"c.  X X 8 v Q r.4.T f 5 @ @ - c.",
"c.c.o 3 s v E r.4.D s y , @ c.c.",
"c.c.# a n P [ u.p.( B x a - c.c.",
"c.c.c.w F ] X.i.p.@.! G r c.c.c.",
"c.c.c.c.- z O.&.%.O.c : c.c.c.c.",
"c.c.c.c.c.c.W ( ~ ~ c.c.c.c.c.c.",
"c.c.c.c.c.c.c.c.c.c.c.c.c.c.c.c."
};
