/* XPM */
static char *_12_Collectables_Sheet_1[] = {
/* columns rows colors chars-per-pixel */
"16 16 146 2 ",
"   c #003B06",
".  c #013A07",
"X  c #023708",
"o  c #023B08",
"O  c #023C08",
"+  c #023D09",
"@  c #033D0A",
"#  c #013E0A",
"$  c #043E0A",
"%  c #0A3E10",
"&  c #034109",
"*  c #034308",
"=  c #034309",
"-  c #03400A",
";  c #04410A",
":  c #06450B",
">  c #07400D",
",  c #07440D",
"<  c #06460E",
"1  c #07460E",
"2  c #07470E",
"3  c #08450E",
"4  c #09450F",
"5  c #07490E",
"6  c #054C0C",
"7  c #08490F",
"8  c #01560A",
"9  c #07520E",
"0  c #03560C",
"q  c #005F0A",
"w  c #055A0E",
"e  c #085A0F",
"r  c #094010",
"t  c #0B4810",
"y  c #0C4F12",
"u  c #085210",
"i  c #095210",
"p  c #085311",
"a  c #0A5711",
"s  c #0D5514",
"d  c #0A5A12",
"f  c #0C5B13",
"g  c #04600E",
"h  c #03660E",
"j  c #037E0F",
"k  c #076311",
"l  c #0B6112",
"z  c #0A6113",
"x  c #086412",
"c  c #0B6214",
"v  c #0B6914",
"b  c #0B6B15",
"n  c #0E6B17",
"m  c #0E6C16",
"M  c #0D6E17",
"N  c #0E6D18",
"B  c #106D19",
"V  c #136B1C",
"C  c #097014",
"Z  c #087514",
"A  c #0A7414",
"S  c #0B7517",
"D  c #0B7616",
"F  c #0A7815",
"G  c #0F7F1B",
"H  c #13701D",
"J  c #14701D",
"K  c #02800F",
"L  c #008C0E",
"P  c #00930E",
"I  c #068714",
"U  c #008E10",
"Y  c #0B8318",
"T  c #0C8318",
"R  c #0C8519",
"E  c #0F801C",
"W  c #0D8D1A",
"Q  c #0D8E1A",
"!  c #10811B",
"~  c #10831C",
"^  c #12821D",
"/  c #12811E",
"(  c #10841C",
")  c #108D1D",
"_  c #0B9019",
"`  c #0C981B",
"'  c #0E9F1D",
"]  c #08A217",
"[  c #0CA21C",
"{  c #0EA91D",
"}  c #0CAD1D",
"|  c #01BD15",
" . c #02BC16",
".. c #0BB31C",
"X. c #08BE1A",
"o. c #129720",
"O. c #119920",
"+. c #119F20",
"@. c #11A420",
"#. c #14AD24",
"$. c #14AE24",
"%. c #12B222",
"&. c #12BE24",
"*. c #14BE25",
"=. c #02C115",
"-. c #04C718",
";. c #07C51A",
":. c #0AC51D",
">. c #04C818",
",. c #06CF1A",
"<. c #07DA1D",
"1. c #01E419",
"2. c #06F41F",
"3. c #0ECD22",
"4. c #11C623",
"5. c #10CB23",
"6. c #10CA24",
"7. c #10CB24",
"8. c #19C62B",
"9. c #1AC82C",
"0. c #1BCB2D",
"q. c #1BCB2E",
"w. c #0DD322",
"e. c #0DD522",
"r. c #0DD722",
"t. c #0EDB23",
"y. c #09DE20",
"u. c #0FD825",
"i. c #0FDD25",
"p. c #10D024",
"a. c #10D125",
"s. c #11D126",
"d. c #17D62B",
"f. c #16D72B",
"g. c #1DD631",
"h. c #08EB20",
"j. c #08ED21",
"k. c #0AEC22",
"l. c #09EF22",
"z. c #15E62C",
"x. c #16E62C",
"c. c #06F220",
"v. c #06F420",
"b. c #0DFC27",
"n. c #0CFF26",
"m. c None",
/* pixels */
"m.m.m.m.m.m.m.m.m.m.m.m.m.m.m.m.",
"m.m.m.m.m.m.L P P U m.m.m.m.m.m.",
"m.m.m.m.0 K | ;.>.| j w m.m.m.m.",
"m.m.m.l X.2.j.d.d.j.l.:.I m.m.m.",
"m.m.8 ] h.n.x.g.g.x.n.c.=.g m.m.",
"m.m.g ,.y.p.8.0.0.9.i.v.1.h m.m.",
"m.r v ;.[ ( ' &.*.@.%.e.<.v % m.",
"m., a A n B Q 3.4./ ) { ..m t m.",
"m.; : % 4 f R e.6.V N D F d < m.",
"m.  . . X 6 Y e.7.J s , - @ @ m.",
"m.m.# 7 4 p Y w.7.V s 7 , # m.m.",
"m.m.; p z A ` t.p./ m z a ; m.m.",
"m.m.m.9 C _ } i.p.+.Q A w m.m.m.",
"m.m.m.m.* x O.$.$.O.x ; m.m.m.m.",
"m.m.m.m.m.m.E E / E m.m.m.m.m.m.",
"m.m.m.m.m.m.m.m.m.m.m.m.m.m.m.m."
};
