/* XPM */
static char *_13_Collectables_Sheet_1[] = {
/* columns rows colors chars-per-pixel */
"16 16 149 2 ",
"   c #014308",
".  c #034409",
"X  c #01450B",
"o  c #03450A",
"O  c #064A0D",
"+  c #074C0E",
"@  c #00580A",
"#  c #015C0A",
"$  c #015D0C",
"%  c #015E0C",
"&  c #045C0F",
"*  c #084F10",
"=  c #0C5213",
"-  c #085510",
";  c #0D5114",
":  c #0D5B14",
">  c #0D5C14",
",  c #0C5F15",
"<  c #04630F",
"1  c #086311",
"2  c #086412",
"3  c #0C6014",
"4  c #086A13",
"5  c #096914",
"6  c #0A6A14",
"7  c #0D6B17",
"8  c #096D14",
"9  c #0B6C15",
"0  c #0A6E15",
"q  c #0C6D16",
"w  c #0F6718",
"e  c #0F6D19",
"r  c #106619",
"t  c #106719",
"y  c #106819",
"u  c #106919",
"i  c #116B1A",
"p  c #136A1C",
"a  c #087515",
"s  c #087714",
"d  c #037A11",
"f  c #037D10",
"g  c #0D7118",
"h  c #10731A",
"j  c #14701D",
"k  c #01800E",
"l  c #01810E",
"z  c #02820E",
"x  c #01870F",
"c  c #008F0C",
"v  c #008C0E",
"b  c #00930D",
"n  c #00930E",
"m  c #00990E",
"M  c #088114",
"N  c #018C11",
"B  c #008E10",
"V  c #0F811B",
"C  c #0E821A",
"Z  c #0E841B",
"A  c #0F831C",
"S  c #0F871C",
"D  c #0C8D19",
"F  c #0D8E1A",
"G  c #10851B",
"H  c #10831C",
"J  c #12811E",
"K  c #019210",
"L  c #0C991B",
"P  c #0E9D1D",
"I  c #07A516",
"U  c #0CA31C",
"Y  c #0DAB1F",
"T  c #02BB16",
"R  c #01BE15",
"E  c #08B11B",
"W  c #05B818",
"Q  c #158F22",
"!  c #119620",
"~  c #129620",
"^  c #129720",
"/  c #119F20",
"(  c #129E20",
")  c #149F23",
"_  c #10A220",
"`  c #10A620",
"'  c #14A724",
"]  c #15A724",
"[  c #12AA21",
"{  c #13A922",
"}  c #13AA22",
"|  c #14A824",
" . c #14A924",
".. c #14AF25",
"X. c #15AF25",
"o. c #13B023",
"O. c #13B425",
"+. c #14B625",
"@. c #15B526",
"#. c #17B628",
"$. c #17BD28",
"%. c #01C115",
"&. c #02CC17",
"*. c #04C719",
"=. c #05C719",
"-. c #04C918",
";. c #01D317",
":. c #01D218",
">. c #08DD1F",
",. c #04F71E",
"<. c #03F81E",
"1. c #0CC620",
"2. c #11C425",
"3. c #12CC26",
"4. c #16C628",
"5. c #15CE29",
"6. c #17CD2B",
"7. c #0CD121",
"8. c #10DD26",
"9. c #14D128",
"0. c #17D72C",
"q. c #19D02D",
"w. c #19D32D",
"e. c #18D42D",
"r. c #18D72C",
"t. c #19D62D",
"y. c #19D72D",
"u. c #15D929",
"i. c #17DA2C",
"p. c #19DA2E",
"a. c #1ED131",
"s. c #0FE525",
"d. c #0AE923",
"f. c #0CE823",
"g. c #08EE21",
"h. c #0AEF22",
"j. c #0CEE24",
"k. c #10E227",
"l. c #11E327",
"z. c #12E028",
"x. c #15E12B",
"c. c #11E628",
"v. c #14E42B",
"b. c #16E02C",
"n. c #12EE2A",
"m. c #14EC2C",
"M. c #0DF025",
"N. c #11F029",
"B. c None",
/* pixels */
"B.B.B.B.B.B.B.B.B.B.B.B.B.B.B.B.",
"B.B.B.B.B.B.c n n B B.B.B.B.B.B.",
"B.B.B.B.% z T =.=.R z % B.B.B.B.",
"B.B.B.x :.,.f.e.e.h.<.;.K B.B.B.",
"B.B.# &.j.N.M.x.p.x.n.d.%.@ B.B.",
"B.B.f h.m.i.c.8.p.a.e.c.>.d B.B.",
"B.c W e.v.k.9.5.q.e.8.z.u.E B B.",
"B.m -.4.5.2.` +.$.#.1.7.3.Y M B.",
"B.z I / _ ^ Z { o.~ L U _ G 6 B.",
"B.- 3 y t y g { ] j t t y : * B.",
"B.B.O g , ; 7 { ] r * : 7 O B.B.",
"B.B.o 0 0 7 C ..X.Q y 7 6 o B.B.",
"B.B.B.& s F P O.+./ F s < B.B.B.",
"B.B.B.B.X 1 ^ ' ] ^ 2   B.B.B.B.",
"B.B.B.B.B.B.V H G H B.B.B.B.B.B.",
"B.B.B.B.B.B.B.B.B.B.B.B.B.B.B.B."
};
