/* XPM */
static char *_14_Collectables_Sheet_1[] = {
/* columns rows colors chars-per-pixel */
"16 16 146 2 ",
"   c #014308",
".  c #034409",
"X  c #01450B",
"o  c #03450A",
"O  c #064A0D",
"+  c #074B0E",
"@  c #00580A",
"#  c #015C0C",
"$  c #015D0C",
"%  c #015E0C",
"&  c #045C0F",
"*  c #084F10",
"=  c #0C5313",
"-  c #085510",
";  c #0D5214",
":  c #0D5B14",
">  c #0C5D14",
",  c #0C5E14",
"<  c #0C5F15",
"1  c #04630F",
"2  c #03780F",
"3  c #086311",
"4  c #086412",
"5  c #086A13",
"6  c #0A6A14",
"7  c #0B6C15",
"8  c #096E14",
"9  c #0A6E15",
"0  c #096F16",
"q  c #0C6D16",
"w  c #0D6C17",
"e  c #0F6D19",
"r  c #116219",
"t  c #116319",
"y  c #106418",
"u  c #106519",
"i  c #106819",
"p  c #106919",
"a  c #11681A",
"s  c #116F1A",
"d  c #136A1C",
"f  c #146F1C",
"g  c #087515",
"h  c #087714",
"j  c #037C10",
"k  c #0E7018",
"l  c #0E7C1A",
"z  c #0F7C1B",
"x  c #0F7E1B",
"c  c #12701B",
"v  c #10741A",
"b  c #14701D",
"n  c #147A1E",
"m  c #01800E",
"M  c #01810E",
"N  c #02850E",
"B  c #01870F",
"V  c #008E0E",
"C  c #00920E",
"Z  c #00960E",
"A  c #009C0E",
"S  c #008E10",
"D  c #0F811B",
"F  c #0E821A",
"G  c #0F831C",
"H  c #088818",
"J  c #0E881A",
"K  c #0C8D19",
"L  c #0D8E1A",
"P  c #10851B",
"I  c #10831C",
"U  c #12811E",
"Y  c #13851F",
"T  c #118B1D",
"R  c #128D1F",
"E  c #138D1F",
"W  c #128F1F",
"Q  c #019210",
"!  c #039013",
"~  c #0E9D1D",
"^  c #0D9F1D",
"/  c #109C1F",
"(  c #07A117",
")  c #08AB1A",
"_  c #05B417",
"`  c #02BA16",
"'  c #01BC15",
"]  c #0CBC1E",
"[  c #148B21",
"{  c #168922",
"}  c #129520",
"|  c #129620",
" . c #129720",
".. c #119F20",
"X. c #15A624",
"o. c #14A724",
"O. c #15A724",
"+. c #15A625",
"@. c #13A922",
"#. c #13AA22",
"$. c #12AD22",
"%. c #13AD23",
"&. c #14A824",
"*. c #14A924",
"=. c #17A826",
"-. c #14AF25",
";. c #18AD28",
":. c #13B023",
">. c #15B225",
",. c #13B425",
"<. c #15B526",
"1. c #17B426",
"2. c #10B922",
"3. c #13BF25",
"4. c #13BD26",
"5. c #15BC27",
"6. c #15BE26",
"7. c #01C315",
"8. c #03C417",
"9. c #04C418",
"0. c #02CD18",
"q. c #01D217",
"w. c #01D318",
"e. c #07D71E",
"r. c #06E61E",
"t. c #03F71D",
"y. c #04F61E",
"u. c #12C525",
"i. c #10C924",
"p. c #13C926",
"a. c #13CA26",
"s. c #1CC42D",
"d. c #16CC2A",
"f. c #0ED724",
"g. c #14D328",
"h. c #19D12C",
"j. c #1AD12D",
"k. c #0BE322",
"l. c #09EA21",
"z. c #0BED23",
"x. c #12E228",
"c. c #13E429",
"v. c #12EE2A",
"b. c #12EF2A",
"n. c #0DF425",
"m. c None",
/* pixels */
"m.m.m.m.m.m.m.m.m.m.m.m.m.m.m.m.",
"m.m.m.m.m.m.V Z Z S m.m.m.m.m.m.",
"m.m.m.m.# M ` 8.8.` 2 1 m.m.m.m.",
"m.m.m.B q.t.k.5.u.r.t.w.Q m.m.m.",
"m.m.# 0.n.v.f.E [ g.v.z.8.@ m.m.",
"m.m.j l.c.d.i.z n s.j.x.e.2 m.m.",
"m.C _ 5.2.] a.+.=.j.u.u.5.) Q m.",
"m.A 9.+.E J / %.1.-./ E [ ^ H m.",
"m.B ( I b u z %.>.{ c e s x q m.",
"m.- , t t w k #.=.f t u u : * m.",
"m.m.O k , = e #.&.d ; > w O m.m.",
"m.m.o 8 q q D %.-.U q 6 5 o m.m.",
"m.m.m.& g K ^ ,.<...L h 1 m.m.m.",
"m.m.m.m.o 4  .X.+. .4   m.m.m.m.",
"m.m.m.m.m.m.D G P I m.m.m.m.m.m.",
"m.m.m.m.m.m.m.m.m.m.m.m.m.m.m.m."
};
