/* XPM */
static char *_15_Collectables_Sheet_1[] = {
/* columns rows colors chars-per-pixel */
"16 16 146 2 ",
"   c #003304",
".  c #003705",
"X  c #003A06",
"o  c #023B08",
"O  c #023B09",
"+  c #013C08",
"@  c #023C08",
"#  c #033F09",
"$  c #083D0E",
"%  c #05410B",
"&  c #014708",
"*  c #01450B",
"=  c #03440A",
"-  c #05450B",
";  c #05470C",
":  c #08420E",
">  c #03480B",
",  c #034A0C",
"<  c #07490E",
"1  c #064F0D",
"2  c #074F0F",
"3  c #00580A",
"4  c #025D0C",
"5  c #045C0F",
"6  c #0D4E13",
"7  c #0D5113",
"8  c #0C5513",
"9  c #0A5912",
"0  c #0B5B13",
"q  c #085E11",
"w  c #0D5915",
"e  c #0B5C14",
"r  c #0C5D14",
"t  c #0F5E17",
"y  c #04630F",
"u  c #00670C",
"i  c #00690C",
"p  c #016B0C",
"a  c #036A0E",
"s  c #03780F",
"d  c #066610",
"f  c #086112",
"g  c #0C6015",
"h  c #0E6217",
"j  c #0E6617",
"k  c #076912",
"l  c #086A13",
"z  c #0A6D13",
"x  c #0A6B14",
"c  c #0B6A15",
"v  c #0C6915",
"b  c #0D6817",
"n  c #0C6A16",
"m  c #0F6918",
"M  c #0F6A18",
"N  c #106418",
"B  c #116519",
"V  c #106619",
"C  c #106719",
"Z  c #106819",
"A  c #106B18",
"S  c #106B19",
"D  c #106D19",
"F  c #116D1B",
"G  c #126C1B",
"H  c #136D1B",
"J  c #0A7015",
"K  c #0B7016",
"L  c #077A15",
"P  c #087815",
"I  c #097A15",
"U  c #0F7119",
"Y  c #0F7219",
"T  c #0F771A",
"R  c #0D7818",
"E  c #0D7819",
"W  c #10731A",
"Q  c #10741A",
"!  c #10771B",
"~  c #12701C",
"^  c #13731C",
"/  c #11791C",
"(  c #12781C",
")  c #15791F",
"_  c #167B1F",
"`  c #117E1C",
"'  c #01870F",
"]  c #0E831A",
"[  c #0D8519",
"{  c #0D851A",
"}  c #0E861A",
"|  c #088918",
" . c #15801E",
".. c #11851D",
"X. c #11861C",
"o. c #11861D",
"O. c #12871D",
"+. c #12841E",
"@. c #14851F",
"#. c #14871F",
"$. c #11881C",
"%. c #118B1F",
"&. c #138B1F",
"*. c #118F1E",
"=. c #128F1F",
"-. c #019210",
";. c #039013",
":. c #11911E",
">. c #0EA11E",
",. c #08AB1A",
"<. c #0CBC1F",
"1. c #129420",
"2. c #129A20",
"3. c #169B22",
"4. c #129E20",
"5. c #129F20",
"6. c #16A025",
"7. c #14A823",
"8. c #0FBD22",
"9. c #10B021",
"0. c #16B627",
"q. c #11B822",
"w. c #13BD26",
"e. c #1AB42A",
"r. c #01C315",
"t. c #02CE18",
"y. c #01D318",
"u. c #07D71E",
"i. c #00DB18",
"p. c #05DC1D",
"a. c #06DE1E",
"s. c #03F71E",
"d. c #13CA27",
"f. c #14C826",
"g. c #16CE2A",
"h. c #19CD2C",
"j. c #10D025",
"k. c #14DD2A",
"l. c #09E921",
"z. c #0BEB23",
"x. c #12E228",
"c. c #12E429",
"v. c #13E529",
"b. c #0CF626",
"n. c #12F22B",
"m. c None",
/* pixels */
"m.m.m.m.m.m.m.m.m.m.m.m.m.m.m.m.",
"m.m.m.m.m.m.  . o $ m.m.m.m.m.m.",
"m.m.m.m.p 4 - # 1 z a i m.m.m.m.",
"m.m.m.' i.p.! 6 I a.s.y.-.m.m.m.",
"m.m.u t.b.c.9.S ` k.n.l.r.3 m.m.",
"m.m.d l.c.g.j.$._ e.h.x.u.s m.m.",
"m.: j 0.w.<.d.3. .$.q.d.w.,.;.m.",
"m.% g 6.:.} :.$._ ^ X.=.=.>.| m.",
"m.o 1 T ~ B T :.@.B S S S T k m.",
"m.o o 6 w B ! 7.5.r r C h ; + m.",
"m.m.= l r 8 U :.2.B 7 r n = m.m.",
"m.m.> K K l T +.+.H j x l > m.m.",
"m.m.m.5 L [ / F G ( [ L d m.m.m.",
"m.m.m.m.= q +.m S %.d = m.m.m.m.",
"m.m.m.m.m.m.T 0 0 ] m.m.m.m.m.m.",
"m.m.m.m.m.m.m.m.m.m.m.m.m.m.m.m."
};
