/* XPM */
static char *_16_Collectables_Sheet_1[] = {
/* columns rows colors chars-per-pixel */
"16 16 137 2 ",
"   c #003105",
".  c #003305",
"X  c #003605",
"o  c #013507",
"O  c #003606",
"+  c #003706",
"@  c #013706",
"#  c #013707",
"$  c #013907",
"%  c #023907",
"&  c #013A06",
"*  c #003A07",
"=  c #013A07",
"-  c #013B07",
";  c #023B07",
":  c #003708",
">  c #013808",
",  c #013A08",
"<  c #013A09",
"1  c #023A08",
"2  c #023B08",
"3  c #023D08",
"4  c #033C09",
"5  c #023E09",
"6  c #033F09",
"7  c #033F0A",
"8  c #034009",
"9  c #03400A",
"0  c #03410A",
"q  c #04400A",
"w  c #05410B",
"e  c #04420A",
"r  c #05420A",
"t  c #04420B",
"y  c #05420B",
"u  c #04440A",
"i  c #04440B",
"p  c #05440B",
"a  c #04460B",
"s  c #05430C",
"d  c #06420C",
"f  c #05440C",
"g  c #05440D",
"h  c #06450C",
"j  c #07450C",
"k  c #05460C",
"l  c #06460C",
"z  c #06460D",
"x  c #07460D",
"c  c #06470D",
"v  c #07470D",
"b  c #07470E",
"n  c #08470E",
"m  c #06480D",
"M  c #074C0E",
"N  c #08490E",
"B  c #0A490F",
"V  c #084A0E",
"C  c #094D0F",
"Z  c #094F0F",
"A  c #06520E",
"S  c #07530F",
"D  c #08510F",
"F  c #094A10",
"G  c #0A4F11",
"H  c #085110",
"J  c #0A5212",
"K  c #0B5412",
"L  c #0B5713",
"P  c #0D5513",
"I  c #0C5713",
"U  c #0D5614",
"Y  c #0D5715",
"T  c #0B5813",
"R  c #0A5A12",
"E  c #0C5A13",
"W  c #0B5D13",
"Q  c #0C5A14",
"!  c #0D5B14",
"~  c #0F5B16",
"^  c #0B5D14",
"/  c #0C5D14",
"(  c #0F5D17",
")  c #105F18",
"_  c #0B6413",
"`  c #0E6216",
"'  c #0E6316",
"]  c #0D6615",
"[  c #0F6517",
"{  c #0F6617",
"}  c #0C6A15",
"|  c #0F6518",
" . c #0F6818",
".. c #0F6918",
"X. c #0F6A18",
"o. c #0F6B18",
"O. c #106018",
"+. c #106218",
"@. c #106318",
"#. c #116219",
"$. c #116319",
"%. c #106418",
"&. c #116418",
"*. c #116419",
"=. c #106719",
"-. c #136A1B",
";. c #106D19",
":. c #116E1A",
">. c #116F1A",
",. c #136F1B",
"<. c #136A1C",
"1. c #126F1C",
"2. c #0D7918",
"3. c #0D7C19",
"4. c #13701B",
"5. c #10741A",
"6. c #10791B",
"7. c #107E1B",
"8. c #127B1C",
"9. c #127A1D",
"0. c #127B1D",
"q. c #13791E",
"w. c #0E851C",
"e. c #11811C",
"r. c #11881E",
"t. c #12891F",
"y. c #0A9D19",
"u. c #0D9A1C",
"i. c #11901F",
"p. c #148720",
"a. c #168D22",
"s. c #158E22",
"d. c #168F22",
"f. c #179A25",
"g. c #18A527",
"h. c #1AAE2A",
"j. c None",
/* pixels */
"j.j.j.j.j.j.j.j.j.j.j.j.j.j.j.j.",
"j.j.j.j.j.j.& & 1 X j.j.j.j.j.j.",
"j.j.j.j.1 1 1 3 0 d t 0 j.j.j.j.",
"j.j.j.1 1 1 3 0 G / ` D & j.j.j.",
"j.j.X 3 j n B j K 4.f.p.H 0 j.j.",
"j.j.d M _ } T m G 4.h.g.| u j.j.",
"j.F Y 1.u.y.] j j | s.s.4.u . j.",
"j.B | s.i.2.T / | <.8.8...j X j.",
"j.j R p.q.` T 5.8.<.:.:.` u X j.",
"j.: s ) $.$.:.7.2.) $.&.E 0 & j.",
"j.j.1 d d j T $.T d B C j 3 j.j.",
"j.j.1 X 3 j Y T Y m 0 0 3 1 j.j.",
"j.j.j.1 j J ..$.| | j : 1 j.j.j.",
"j.j.j.j.X S e.....r.A . j.j.j.j.",
"j.j.j.j.j.j.3.T ^ w.j.j.j.j.j.j.",
"j.j.j.j.j.j.j.j.j.j.j.j.j.j.j.j."
};
