/* XPM */
static char *_17_Collectables_Sheet_1[] = {
/* columns rows colors chars-per-pixel */
"16 16 100 2 ",
"   c #002F05",
".  c #013105",
"X  c #003604",
"o  c #013705",
"O  c #013707",
"+  c #003906",
"@  c #013807",
"#  c #013907",
"$  c #013B06",
"%  c #013A07",
"&  c #013B07",
"*  c #023A07",
"=  c #043A06",
"-  c #023908",
";  c #013A08",
":  c #013B08",
">  c #023A08",
",  c #023B08",
"<  c #013D08",
"1  c #023C08",
"2  c #033C08",
"3  c #023D08",
"4  c #033D09",
"5  c #023E08",
"6  c #033F09",
"7  c #043F0A",
"8  c #034009",
"9  c #034109",
"0  c #03400A",
"q  c #03410A",
"w  c #04400A",
"e  c #05400A",
"r  c #05410A",
"t  c #04430B",
"y  c #06450C",
"u  c #06460D",
"i  c #07460D",
"p  c #06470D",
"a  c #07470D",
"s  c #074E0E",
"d  c #074F0E",
"f  c #08490E",
"g  c #084B0F",
"h  c #06520E",
"j  c #07560F",
"k  c #0A4E10",
"l  c #085510",
"z  c #095511",
"x  c #0C5513",
"c  c #0D5714",
"v  c #0A5A12",
"b  c #0C5812",
"n  c #0C5913",
"m  c #095C12",
"M  c #0B5C12",
"N  c #0C5B14",
"B  c #0D5A15",
"V  c #0D5B15",
"C  c #0C5F15",
"Z  c #0D6516",
"A  c #0C6716",
"S  c #0F6717",
"D  c #0E6A17",
"F  c #0F6918",
"G  c #0F6C18",
"H  c #106718",
"J  c #106619",
"K  c #12651A",
"L  c #106819",
"P  c #116819",
"I  c #106A19",
"U  c #11681A",
"Y  c #12681A",
"T  c #136B1B",
"R  c #116E1A",
"E  c #126E1B",
"W  c #0B7316",
"Q  c #11711A",
"!  c #12721B",
"~  c #14711C",
"^  c #127F1D",
"/  c #137E1E",
"(  c #137F1E",
")  c #0C8118",
"_  c #0E811A",
"`  c #0F861C",
"'  c #0E8A1A",
"]  c #14801F",
"[  c #10871C",
"{  c #10881C",
"}  c #128E1F",
"|  c #168921",
" . c #138D20",
".. c #148E21",
"X. c #129120",
"o. c #149322",
"O. c #159823",
"+. c #14A123",
"@. c #15A223",
"#. c None",
/* pixels */
"#.#.#.#.#.#.#.#.#.#.#.#.#.#.#.#.",
"#.#.#.#.#.#.& & > 2 #.#.#.#.#.#.",
"#.#.#.#.& > > 2 2 # 2 & #.#.#.#.",
"#.#.#.> 2 > 2 > 2 2 > > > #.#.#.",
"#.#.# 2 2 # > > > > 2 2 2 # #.#.",
"#.#.# # 9 q 7 > 2 q 2 2 > 2 #.#.",
"#.# # 2 k x y 7 p B y 2 2 2 # #.",
"#.# 9 f W ) M f N ( n q > 2 2 #.",
"#.O t B ) ' S B L | L g 2 2 > #.",
"#.O t J ~ T J J E ~ Y N y 2 # #.",
"#.#.q C G G J ^ ( U G A z q #.#.",
"#.#.q s h n G ....E L m h q #.#.",
"#.#.#.2 O y ! o.O./ M 9 = #.#.#.",
"#.#.#.#.  h } @.@.} z . #.#.#.#.",
"#.#.#.#.#.#.` [ { [ #.#.#.#.#.#.",
"#.#.#.#.#.#.#.#.#.#.#.#.#.#.#.#."
};
