/* XPM */
static char *_18_Collectables_Sheet_1[] = {
/* columns rows colors chars-per-pixel */
"16 16 70 1 ",
"  c #013907",
". c #003B06",
"X c #013B06",
"o c #013A07",
"O c #013B07",
"+ c #033B06",
"@ c #023A07",
"# c #013A08",
"$ c #013B08",
"% c #023A08",
"& c #023B08",
"* c #013D09",
"= c #023C08",
"- c #023D08",
"; c #033D08",
": c #033C09",
"> c #033D09",
", c #023E08",
"< c #033E08",
"1 c #023F08",
"2 c #033E09",
"3 c #03430A",
"4 c #03470A",
"5 c #05440C",
"6 c #06450C",
"7 c #06450D",
"8 c #06460D",
"9 c #07470E",
"0 c #03490B",
"q c #08490F",
"w c #094B0F",
"e c #04550D",
"r c #0B5313",
"t c #0C5414",
"y c #0E5714",
"u c #085C11",
"i c #085D11",
"p c #0B5D13",
"a c #0C5D13",
"s c #0E5A15",
"d c #0E5A16",
"f c #096012",
"g c #096713",
"h c #106419",
"j c #116519",
"k c #116719",
"l c #11651A",
"z c #116D1A",
"x c #116E1A",
"c c #0F7319",
"v c #0F7519",
"b c #0F7719",
"n c #0F771A",
"m c #12731B",
"M c #13711C",
"N c #127F1C",
"B c #0F841B",
"V c #0F841C",
"C c #0E871C",
"Z c #14811F",
"A c #10861C",
"S c #11921E",
"D c #10931E",
"F c #129020",
"G c #139120",
"H c #14A624",
"J c #15A624",
"K c #13AB23",
"L c #14AC24",
"P c None",
/* pixels */
"PPPPPPPPPPPPPPPP",
"PPPPPP+,%%PPPPPP",
"PPPP %%,, %+PPPP",
"PPP%,%%%%,%%%PPP",
"PP %,,,%%,%,,%PP",
"PP%%,%%%%%%,%%PP",
"P+%,%,%%%,%%%% P",
"P%,%%%,75%%,%,,P",
"P,,%%,9yr7,%%, P",
"P %%%7shhs7%% +P",
"PP%%wshnvhyq,,PP",
"PP%4pzMDSMzp4,PP",
"PPP0fvNKLZmgePPP",
"PPPP,pSHJSi,PPPP",
"PPPPPPVVACPPPPPP",
"PPPPPPPPPPPPPPPP"
};
