/* XPM */
static char *_19_Collectables_Sheet_1[] = {
/* columns rows colors chars-per-pixel */
"16 16 129 2 ",
"   c #000300",
".  c #000500",
"X  c #000700",
"o  c #000701",
"O  c #000800",
"+  c #000B00",
"@  c #000B02",
"#  c #000D00",
"$  c #000F01",
"%  c #000D02",
"&  c #000E02",
"*  c #001201",
"=  c #001301",
"-  c #001002",
";  c #001102",
":  c #001103",
">  c #001202",
",  c #011202",
"<  c #001502",
"1  c #001403",
"2  c #011403",
"3  c #001702",
"4  c #001C02",
"5  c #001D03",
"6  c #001904",
"7  c #011D04",
"8  c #001E04",
"9  c #011E04",
"0  c #012004",
"q  c #012204",
"w  c #002404",
"e  c #002504",
"r  c #012405",
"t  c #012505",
"y  c #012604",
"u  c #012605",
"i  c #022604",
"p  c #012906",
"a  c #022906",
"s  c #022B06",
"d  c #032C06",
"f  c #022D07",
"g  c #022F07",
"h  c #013006",
"j  c #013007",
"k  c #013107",
"l  c #023007",
"z  c #023307",
"x  c #013406",
"c  c #023A07",
"v  c #023608",
"b  c #023808",
"n  c #023908",
"m  c #023A08",
"M  c #023B08",
"N  c #023C08",
"B  c #033C08",
"V  c #023D08",
"C  c #033D09",
"Z  c #023F08",
"A  c #023E09",
"S  c #033E09",
"D  c #043D09",
"F  c #043E09",
"G  c #073F0C",
"H  c #04400A",
"J  c #04410A",
"K  c #05430B",
"L  c #05440B",
"P  c #05450B",
"I  c #06430C",
"U  c #06450C",
"Y  c #07440D",
"T  c #06450D",
"R  c #06460D",
"E  c #07470D",
"W  c #07480D",
"Q  c #074A0E",
"!  c #08480E",
"~  c #08490E",
"^  c #094C10",
"/  c #0A4F10",
"(  c #095111",
")  c #0A5212",
"_  c #0A5312",
"`  c #0C5312",
"'  c #0C5412",
"]  c #0C5413",
"[  c #0C5513",
"{  c #0C5514",
"}  c #0D5614",
"|  c #0D5814",
" . c #0E5815",
".. c #0E5A15",
"X. c #0F5B16",
"o. c #0F5C16",
"O. c #0C6315",
"+. c #0C6515",
"@. c #106017",
"#. c #116219",
"$. c #116319",
"%. c #126319",
"&. c #11641A",
"*. c #12641A",
"=. c #12651A",
"-. c #12661A",
";. c #12671A",
":. c #13671B",
">. c #14671B",
",. c #11681A",
"<. c #11691A",
"1. c #106B1A",
"2. c #116B1A",
"3. c #126A1B",
"4. c #106E1A",
"5. c #0F7C1A",
"6. c #117C1C",
"7. c #0F801A",
"8. c #0F861B",
"9. c #0E9F1D",
"0. c #0EA61F",
"q. c #0EAA1E",
"w. c #129520",
"e. c #129620",
"r. c #129A20",
"t. c #14AC24",
"y. c #0FCB23",
"u. c #10C925",
"i. c None",
/* pixels */
"i.i.i.i.i.i.; 3 ; : i.i.i.i.i.i.",
"i.i.i.i.3 8 i a a i 5 ; i.i.i.i.",
"i.i.i.3 0 h B B B n k 0 ; i.i.i.",
"i.i.; v B n B n n B B n g 3 i.i.",
"i.$ 0 B H N B W T n B B n 0 3 i.",
"i.5 h n N B ~ } { T A B n h 8 i.",
"; i n B N W X.-.&.} R B n n 0 O ",
"3 a B n P ' $.-.&.$.} Q B B i $ ",
"3 a B D Q @.-.-.&.&.$.} H B i $ ",
"; i n P ..-.<.4.3.&.-.X.P n i & ",
"i.5 g H X.3.4.5.6.-.:.o.T v 8 i.",
"i.; i H ' 4.8.q.0.6.<._ B 0 ; i.",
"i.i.6 x Y +.0.u.u.r.O.I g ; i.i.",
"i.i.i.; 8 W w.t.t.w.~ 5 3 i.i.i.",
"i.i.i.i.O g _ _ _ ^ a $ i.i.i.i.",
"i.i.i.i.i.i.X X     i.i.i.i.i.i."
};
