/* XPM */
static char *_20_Collectables_Sheet_1[] = {
/* columns rows colors chars-per-pixel */
"16 16 137 2 ",
"   c #000300",
".  c #000500",
"X  c #000700",
"o  c #000701",
"O  c #000800",
"+  c #000B00",
"@  c #000B02",
"#  c #000D00",
"$  c #000F01",
"%  c #000D02",
"&  c #000E02",
"*  c #001201",
"=  c #001301",
"-  c #001002",
";  c #001102",
":  c #001103",
">  c #001202",
",  c #011202",
"<  c #001502",
"1  c #001403",
"2  c #011403",
"3  c #001702",
"4  c #001C02",
"5  c #001D03",
"6  c #001904",
"7  c #011D04",
"8  c #001E04",
"9  c #011E04",
"0  c #012004",
"q  c #012204",
"w  c #002504",
"e  c #012504",
"r  c #012405",
"t  c #012505",
"y  c #022604",
"u  c #012805",
"i  c #012906",
"p  c #022906",
"a  c #022B06",
"s  c #022B07",
"d  c #032C06",
"f  c #022F07",
"g  c #013006",
"h  c #013007",
"j  c #013107",
"k  c #023007",
"l  c #023207",
"z  c #013406",
"x  c #013A07",
"c  c #023A07",
"v  c #023608",
"b  c #023808",
"n  c #023908",
"m  c #013B08",
"M  c #023A08",
"N  c #023B08",
"B  c #013D08",
"V  c #023C08",
"C  c #023D08",
"Z  c #033C09",
"A  c #033D09",
"S  c #023E08",
"D  c #023E09",
"F  c #033F09",
"G  c #043D09",
"H  c #073F0C",
"J  c #04400A",
"K  c #04420A",
"L  c #04420B",
"P  c #05430B",
"I  c #05440B",
"U  c #07430D",
"Y  c #06440C",
"T  c #07480D",
"R  c #07490D",
"E  c #07490E",
"W  c #074A0E",
"Q  c #084B0F",
"!  c #084C0F",
"~  c #094C10",
"^  c #0A4E10",
"/  c #095011",
"(  c #0A5111",
")  c #0A5112",
"_  c #0A5212",
"`  c #0B5413",
"'  c #0C5413",
"]  c #0C5713",
"[  c #0D5614",
"{  c #0C5714",
"}  c #0D5714",
"|  c #0E5915",
" . c #0E5A15",
".. c #0E5B16",
"X. c #0E5C16",
"o. c #105F18",
"O. c #0C6215",
"+. c #0C6615",
"@. c #106317",
"#. c #116519",
"$. c #11651A",
"%. c #12651A",
"&. c #12661A",
"*. c #12671A",
"=. c #14671C",
"-. c #11691A",
";. c #12681A",
":. c #116A1A",
">. c #116B1A",
",. c #126B1B",
"<. c #126C1A",
"1. c #106E1A",
"2. c #106F1A",
"3. c #136C1C",
"4. c #126E1C",
"5. c #0F7E1A",
"6. c #11791B",
"7. c #0F821A",
"8. c #0F861B",
"9. c #13811E",
"0. c #0C951B",
"q. c #0F931D",
"w. c #0F9A1E",
"e. c #0DA41D",
"r. c #129520",
"t. c #119620",
"y. c #129A20",
"u. c #12A921",
"i. c #14AD24",
"p. c #12B223",
"a. c #0ECD22",
"s. c #11C222",
"d. c #0FD725",
"f. c #0DDD23",
"g. c #11D326",
"h. c #10D425",
"j. c None",
/* pixels */
"j.j.j.j.j.j.; 3 ; ; j.j.j.j.j.j.",
"j.j.j.j.; 5 y p p y 5 ; j.j.j.j.",
"j.j.j.3 0 l c Z Z c l 0 ; j.j.j.",
"j.j.; v Z n Z K L Z n n f 3 j.j.",
"j.$ 0 C C Z ! { ] W L c n 0 3 j.",
"j.5 l n c I ..#.#...L c n l 8 j.",
"; y n n C W #.<.:.o.W Z Z Z 0 O ",
"3 p Z c I ] 2.7.5.#._ L n Z y O ",
"; p Z Z ~ @.6.w.q.:.X.~ Z Z y $ ",
"; y Z P { :.9.p.u.:.#.{ K n y $ ",
"j.5 f P  .4.8.a.s.4.=...I v 8 j.",
"j.; y K ' <.0.f.d.6.=.{ G 0 ; j.",
"j.j.6 z U +.e.d.g.y.O.H f $ j.j.",
"j.j.j.; 8 W r.i.i.r.Q 8 3 j.j.j.",
"j.j.j.j.$ p _ _ _ Q p $ j.j.j.j.",
"j.j.j.j.j.j.. . .   j.j.j.j.j.j."
};
