/* XPM */
static char *_21_Collectables_Sheet_1[] = {
/* columns rows colors chars-per-pixel */
"16 16 153 2 ",
"   c #000300",
".  c #000500",
"X  c #000700",
"o  c #000701",
"O  c #000800",
"+  c #000900",
"@  c #000B00",
"#  c #000B02",
"$  c #000F01",
"%  c #000D02",
"&  c #000E02",
"*  c #001001",
"=  c #001101",
"-  c #001201",
";  c #001301",
":  c #001002",
">  c #001102",
",  c #001103",
"<  c #001202",
"1  c #011202",
"2  c #001502",
"3  c #011403",
"4  c #011602",
"5  c #001702",
"6  c #001C02",
"7  c #001C03",
"8  c #001D03",
"9  c #011D03",
"0  c #001904",
"q  c #001E04",
"w  c #001F04",
"e  c #002004",
"r  c #012004",
"t  c #012104",
"y  c #012204",
"u  c #002504",
"i  c #012405",
"p  c #012505",
"a  c #002604",
"s  c #022604",
"d  c #012706",
"f  c #012906",
"g  c #022906",
"h  c #032B06",
"j  c #022A07",
"k  c #022F07",
"l  c #013006",
"z  c #013106",
"x  c #023006",
"c  c #023306",
"v  c #023207",
"b  c #033207",
"n  c #013607",
"m  c #013907",
"M  c #013A07",
"N  c #023A07",
"B  c #053209",
"V  c #05330A",
"C  c #023608",
"Z  c #023808",
"A  c #023908",
"S  c #023A08",
"D  c #033A08",
"F  c #023B08",
"G  c #033C08",
"H  c #023D08",
"J  c #023E08",
"K  c #033E09",
"L  c #033F0A",
"P  c #03410A",
"I  c #04400A",
"U  c #05420B",
"Y  c #05440C",
"T  c #06450D",
"R  c #06460D",
"E  c #06460E",
"W  c #08470E",
"Q  c #054D0C",
"!  c #064D0E",
"~  c #064E0E",
"^  c #08480E",
"/  c #08490E",
"(  c #094A0F",
")  c #084B0F",
"_  c #05530D",
"`  c #094C10",
"'  c #084E10",
"]  c #094E10",
"[  c #095011",
"{  c #0A5111",
"}  c #0B5112",
"|  c #0A5212",
" . c #095410",
".. c #0B5713",
"X. c #0C5613",
"o. c #0D5514",
"O. c #0C5614",
"+. c #0D5614",
"@. c #0C5C13",
"#. c #0C5814",
"$. c #0E5E15",
"%. c #0F5D17",
"&. c #105A16",
"*. c #0D6015",
"=. c #0D6115",
"-. c #0E6316",
";. c #0F6A17",
":. c #116119",
">. c #116319",
",. c #126319",
"<. c #12631A",
"1. c #106819",
"2. c #116B1A",
"3. c #126A1A",
"4. c #126C1A",
"5. c #126D1B",
"6. c #116F1A",
"7. c #136E1C",
"8. c #146D1D",
"9. c #0A7315",
"0. c #097C15",
"q. c #0F7019",
"w. c #0F781A",
"e. c #0F7D1A",
"r. c #14701D",
"t. c #10791A",
"y. c #0E831A",
"u. c #0E851A",
"i. c #0D861A",
"p. c #0D891A",
"a. c #0D8A1A",
"s. c #13821E",
"d. c #0B9B1B",
"f. c #0C981B",
"g. c #0BA11B",
"h. c #0CAC1D",
"j. c #0CB71E",
"k. c #129620",
"l. c #119820",
"z. c #119E20",
"x. c #14AD24",
"c. c #14AE24",
"v. c #0AC11E",
"b. c #0EC822",
"n. c #10CA24",
"m. c #10CB24",
"M. c #0BD320",
"N. c #0DD522",
"B. c #0EDB23",
"V. c #0FD925",
"C. c #10D225",
"Z. c #11D326",
"A. c None",
/* pixels */
"A.A.A.A.A.A.> > > < A.A.A.A.A.A.",
"A.A.A.A.> 9 s V V s 9 > A.A.A.A.",
"A.A.A.5 t z T O.O.Y z 9 > A.A.A.",
"A.A.> C m Y %.,.,.%.Y c k 5 A.A.",
"A.$ t A U ~ 1.6.6.:.) P A t > A.",
"A.8 z A T #.6.i.w.,.} T A z 9 A.",
"> s A A / $.w.g.d.6.O.T A G t + ",
"5 g G A / $.i.v.j.2.#.E A G t $ ",
"5 g G A T -.a.M.b.7.O.T A G s & ",
"> g m G / -.a.N.b.r.O.T G A s & ",
"A.8 k U O.3.i.N.m.8.&.] G l 9 A.",
"A.> s U #.t.f.B.Z.s.;. .A t 5 A.",
"A.A.0 z _ 0.h.V.Z.z.9.~ k > A.A.",
"A.A.A.> t ~ l.x.x.k.~ t 3 A.A.A.",
"A.A.A.A.+ g } } } ) g + A.A.A.A.",
"A.A.A.A.A.A.+ . . . A.A.A.A.A.A."
};
