/* XPM */
static char *_22_Collectables_Sheet_1[] = {
/* columns rows colors chars-per-pixel */
"16 16 164 2 ",
"   c #000300",
".  c #000500",
"X  c #000700",
"o  c #000701",
"O  c #000800",
"+  c #000B02",
"@  c #000D01",
"#  c #000D02",
"$  c #000E02",
"%  c #001001",
"&  c #001101",
"*  c #001201",
"=  c #001301",
"-  c #001102",
";  c #001103",
":  c #001202",
">  c #011202",
",  c #001302",
"<  c #001303",
"1  c #001502",
"2  c #001403",
"3  c #011403",
"4  c #011404",
"5  c #001902",
"6  c #001C02",
"7  c #001C03",
"8  c #001F03",
"9  c #011C04",
"0  c #001E04",
"q  c #002203",
"w  c #002303",
"e  c #012004",
"r  c #002204",
"t  c #012204",
"y  c #002304",
"u  c #012205",
"i  c #022206",
"p  c #012405",
"a  c #022405",
"s  c #002604",
"d  c #012604",
"f  c #012605",
"g  c #022706",
"h  c #012805",
"j  c #022807",
"k  c #022F07",
"l  c #023006",
"z  c #013307",
"x  c #023207",
"c  c #023607",
"v  c #023807",
"b  c #013A07",
"n  c #023208",
"m  c #043509",
"M  c #023808",
"N  c #023C08",
"B  c #033E09",
"V  c #023F09",
"C  c #033F09",
"Z  c #033F0A",
"A  c #053F0A",
"S  c #034009",
"D  c #03400A",
"F  c #04400A",
"G  c #05440B",
"H  c #04450B",
"J  c #05450B",
"K  c #06450C",
"L  c #06460C",
"P  c #074A0E",
"I  c #08480E",
"U  c #08490E",
"Y  c #06520E",
"T  c #07520F",
"R  c #094C10",
"E  c #0A4C11",
"W  c #095011",
"Q  c #0A5111",
"!  c #0A5212",
"~  c #0C5211",
"^  c #0D5314",
"/  c #0E5315",
"(  c #0D5714",
")  c #095F12",
"_  c #0D5A14",
"`  c #0E5A15",
"'  c #0E5A16",
"]  c #0F5D17",
"[  c #0F5E16",
"{  c #115C17",
"}  c #105C18",
"|  c #0E6016",
" . c #0E6217",
".. c #0F6217",
"X. c #0E6317",
"o. c #0C6516",
"O. c #076913",
"+. c #076B13",
"@. c #0F6518",
"#. c #116119",
"$. c #116219",
"%. c #12631A",
"&. c #106518",
"*. c #13651B",
"=. c #12671B",
"-. c #12691A",
";. c #106A1A",
":. c #136B1B",
">. c #126C1B",
",. c #126E1B",
"<. c #146E1D",
"1. c #0F7419",
"2. c #10771B",
"3. c #15721D",
"4. c #13741C",
"5. c #14771E",
"6. c #157D1F",
"7. c #0D861A",
"8. c #0D891A",
"9. c #0D8B1A",
"0. c #0C8C1A",
"q. c #0E8F1B",
"w. c #10811B",
"e. c #10811C",
"r. c #13821E",
"t. c #10841C",
"y. c #11841D",
"u. c #0B901A",
"i. c #0D941B",
"p. c #0C991B",
"a. c #0D9F1B",
"s. c #0C9F1C",
"d. c #0AAA1B",
"f. c #0FA81F",
"g. c #0CAD1D",
"h. c #09B21A",
"j. c #07BD1A",
"k. c #158220",
"l. c #148E20",
"z. c #129620",
"x. c #119820",
"c. c #119F20",
"v. c #139D22",
"b. c #15A023",
"n. c #13A823",
"m. c #14AD24",
"M. c #14AE24",
"N. c #19B32A",
"B. c #1AB52A",
"V. c #07C31B",
"C. c #0AC01C",
"Z. c #07CA1C",
"A. c #0CC820",
"S. c #10C222",
"D. c #10CB24",
"F. c #10CF24",
"G. c #0DD422",
"H. c #0DD522",
"J. c #0EDB23",
"K. c #0FD825",
"L. c #10D125",
"P. c #11D325",
"I. c #11D126",
"U. c None",
/* pixels */
"U.U.U.U.U.U., , 1 , U.U.U.U.U.U.",
"U.U.U.U., 5 q f f a 5 , U.U.U.U.",
"U.U.U.1 a x A G F D x a , U.U.U.",
"U.U., c B U } #.#.] L v k 1 U.U.",
"U.@ a U | t.s.q.2.#.( P M a , U.",
"U.5 m { k.n.Z.h.q.=.#.{ L x 5 U.",
", q G 4.l.f.V.j.a.4.4.<.' D q o ",
", f G | ,.t.d.C.S.B.b.t.| D a + ",
"1 h N P ^ :.i.Z.P.B.v.7.[ L a @ ",
", h v N R =.9.H.F.6.:.@.' B a @ ",
"U.6 x D ^ =.7.H.D.<.{ Q F x 0 U.",
"U., w H o.6.p.J.P.r.4.) D a , U.",
"U.U.0 A O.0.g.K.P.v.9.O.B 4 U.U.",
"U.U.U., f T x.m.m.z.T f 0 U.U.U.",
"U.U.U.U.o j R Q Q P f + U.U.U.U.",
"U.U.U.U.U.U.+ o o o U.U.U.U.U.U."
};
