/* XPM */
static char *_23_Collectables_Sheet_1[] = {
/* columns rows colors chars-per-pixel */
"16 16 177 2 ",
"   c #000300",
".  c #000500",
"X  c #000600",
"o  c #000700",
"O  c #000800",
"+  c #000A01",
"@  c #000C00",
"#  c #000C01",
"$  c #000F01",
"%  c #001001",
"&  c #001101",
"*  c #001301",
"=  c #001002",
"-  c #001102",
";  c #001103",
":  c #001202",
">  c #011202",
",  c #011302",
"<  c #011303",
"1  c #001502",
"2  c #001403",
"3  c #011403",
"4  c #011503",
"5  c #001702",
"6  c #011504",
"7  c #001D03",
"8  c #011A04",
"9  c #011C04",
"0  c #011D04",
"q  c #011F05",
"w  c #002103",
"e  c #012004",
"r  c #012105",
"t  c #012205",
"y  c #012405",
"u  c #012505",
"i  c #002604",
"p  c #002605",
"a  c #012705",
"s  c #022706",
"d  c #012805",
"f  c #022807",
"g  c #032C06",
"h  c #032D07",
"j  c #012F06",
"k  c #022E06",
"l  c #062909",
"z  c #06290A",
"x  c #062A0A",
"c  c #052F09",
"v  c #062C0A",
"b  c #013006",
"n  c #023707",
"m  c #013907",
"M  c #023907",
"N  c #023A07",
"B  c #053009",
"V  c #033B08",
"C  c #05390A",
"Z  c #033C08",
"A  c #033F09",
"S  c #033D0A",
"D  c #033F0A",
"F  c #053C0B",
"G  c #03410A",
"H  c #04430B",
"J  c #06430B",
"K  c #04440B",
"L  c #07410D",
"P  c #06460C",
"I  c #09410E",
"U  c #08440E",
"Y  c #09450F",
"T  c #08470E",
"R  c #07480E",
"E  c #074A0E",
"W  c #044E0C",
"Q  c #09490F",
"!  c #07510F",
"~  c #06520F",
"^  c #094C10",
"/  c #0B4C10",
"(  c #095011",
")  c #0A5011",
"_  c #0A5111",
"`  c #0A5212",
"'  c #0D5713",
"]  c #0E5115",
"[  c #0E5614",
"{  c #0A5812",
"}  c #0C5E14",
"|  c #0D5F15",
" . c #115B17",
".. c #0A6013",
"X. c #0B6114",
"o. c #0B6314",
"O. c #0E6316",
"+. c #0F6317",
"@. c #0B6714",
"#. c #0C6515",
"$. c #076913",
"%. c #086D13",
"&. c #0D6E16",
"*. c #106618",
"=. c #106C19",
"-. c #116C1A",
";. c #126C1B",
":. c #146E1D",
">. c #0B7315",
",. c #0C7116",
"<. c #0C7416",
"1. c #0D7617",
"2. c #0A7815",
"3. c #0B7916",
"4. c #0F7219",
"5. c #0F751A",
"6. c #0E7919",
"7. c #0E7C1A",
"8. c #117B1C",
"9. c #157D1F",
"0. c #0D8419",
"q. c #0D8519",
"w. c #0D861A",
"e. c #0D891A",
"r. c #0C8B1A",
"t. c #0C8C19",
"y. c #13821E",
"u. c #0B901A",
"i. c #099418",
"p. c #0B9619",
"a. c #0B991A",
"s. c #0C991B",
"d. c #0E9B1D",
"f. c #0CAD1D",
"g. c #0CAF1C",
"h. c #10A41F",
"j. c #09B71B",
"k. c #0BB91D",
"l. c #0BBA1D",
"z. c #09BE1C",
"x. c #129620",
"c. c #119820",
"v. c #119F20",
"b. c #14AD24",
"n. c #14AE24",
"m. c #15AE25",
"M. c #0EBF20",
"N. c #1AB02A",
"B. c #07C419",
"V. c #09C31C",
"C. c #0CC31F",
"Z. c #09C71C",
"A. c #07CE1C",
"S. c #08CE1C",
"D. c #0ACE1F",
"F. c #07D41C",
"G. c #07E51E",
"H. c #05F31E",
"J. c #0FC122",
"K. c #0ECA22",
"L. c #0FCC23",
"P. c #10CB24",
"I. c #10CF24",
"U. c #0FD123",
"Y. c #0DD422",
"T. c #0DD522",
"R. c #0EDB23",
"E. c #0FD825",
"W. c #0FDC25",
"Q. c #10D125",
"!. c #11D125",
"~. c #11D126",
"^. c #16D32A",
"/. c #0FE225",
"(. c #0AE821",
"). c #11E126",
"_. c None",
/* pixels */
"_._._._._._.% 4 4 % _._._._._._.",
"_._._._.@ 4 w p p p 7 % _._._._.",
"_._._.8 j F K J D M j e % _._._.",
"_._.4 E >.q.6.X.T D M n b 4 _._.",
"_.. j i.J.Q.A.a.@.Q F T I e % _.",
"_.4 W Z.W./.H.z.r.<.6.<.X.D q _.",
"% z @.B.g.h.L.k.j.L.G.S.p.} z . ",
"% B { 2.5.8.d.k.K.^.).(.F.<.z + ",
"% j P T ] *.q.C.Q.N.m.M.V.&.v @ ",
"% p n M / X.r.T.I.9.-.-.-.' B @ ",
"_.q j V / *.q.T.P.:. .' / F e _.",
"_.% p G } 6.s.W.Q.y.4.o.Q p @ _.",
"_._.q D $.t.f.E.Q.v.r.%.J 6 _._.",
"_._._.% p ~ c.m.m.x.! p q _._._.",
"_._._._.+ p ` ` ) / p + _._._._.",
"_._._._._._.. . .   _._._._._._."
};
