/* XPM */
static char *_24_Collectables_Sheet_1[] = {
/* columns rows colors chars-per-pixel */
"16 16 170 2 ",
"   c #000300",
".  c #000500",
"X  c #000600",
"o  c #000700",
"O  c #000800",
"+  c #000A00",
"@  c #000A01",
"#  c #000C01",
"$  c #000F01",
"%  c #000E02",
"&  c #000F02",
"*  c #001001",
"=  c #001202",
"-  c #011202",
";  c #011302",
":  c #011403",
">  c #011503",
",  c #011404",
"<  c #011504",
"1  c #011A03",
"2  c #001C03",
"3  c #011804",
"4  c #011D04",
"5  c #011D05",
"6  c #001E04",
"7  c #022405",
"8  c #022505",
"9  c #002604",
"0  c #022705",
"q  c #012706",
"w  c #022606",
"e  c #022706",
"r  c #022807",
"t  c #032D07",
"y  c #062409",
"u  c #062809",
"i  c #06290A",
"p  c #042D09",
"a  c #052F09",
"s  c #072D0A",
"d  c #052E0A",
"f  c #013006",
"g  c #003106",
"h  c #013206",
"j  c #023207",
"k  c #013A07",
"l  c #023A07",
"z  c #023308",
"x  c #033D0A",
"c  c #043E0A",
"v  c #06430B",
"b  c #07420D",
"n  c #05460C",
"m  c #06460C",
"M  c #06470C",
"N  c #07460E",
"B  c #07470E",
"V  c #08430E",
"C  c #08460E",
"Z  c #07480E",
"A  c #08490F",
"S  c #09490F",
"D  c #084C0F",
"F  c #03500C",
"G  c #03530C",
"H  c #04500C",
"J  c #06520E",
"K  c #07520F",
"L  c #094C10",
"P  c #0C4F12",
"I  c #095010",
"U  c #095011",
"Y  c #0A5111",
"T  c #0A5212",
"R  c #0D5112",
"E  c #0E5115",
"W  c #0D5514",
"Q  c #0A5812",
"!  c #0A5A12",
"~  c #0A6113",
"^  c #0F6216",
"/  c #0E6316",
"(  c #0C6715",
")  c #0D6716",
"_  c #086D13",
"`  c #0B6814",
"'  c #0B6A15",
"]  c #0B6B15",
"[  c #096D14",
"{  c #0B6E15",
"}  c #0E6C16",
"|  c #0D6E17",
" . c #0E6D18",
".. c #0F6F18",
"X. c #106819",
"o. c #136B1C",
"O. c #0B7616",
"+. c #0A7815",
"@. c #0F7018",
"#. c #0F701A",
"$. c #0E7B19",
"%. c #11701B",
"&. c #13701D",
"*. c #14701D",
"=. c #0D861A",
"-. c #0D871A",
";. c #0D891A",
":. c #0B8F19",
">. c #0D8C1A",
",. c #0D8D1A",
"<. c #12821D",
"1. c #12811E",
"2. c #10841C",
"3. c #108D1D",
"4. c #059314",
"5. c #079916",
"6. c #059E15",
"7. c #0C991B",
"8. c #0C9A1A",
"9. c #0E9F1D",
"0. c #0CA21C",
"q. c #0EAA1D",
"w. c #0CAD1D",
"e. c #0BB41C",
"r. c #129620",
"t. c #119820",
"y. c #119F20",
"u. c #11A520",
"i. c #14AD24",
"p. c #14AE24",
"a. c #12B222",
"s. c #12BE24",
"d. c #14BE25",
"f. c #07C51A",
"g. c #08C31C",
"h. c #06CF1A",
"j. c #04D019",
"k. c #05DC1B",
"l. c #07DA1D",
"z. c #07DE1E",
"x. c #0ECC22",
"c. c #11C623",
"v. c #10CA23",
"b. c #10CB23",
"n. c #10CB24",
"m. c #19C62B",
"M. c #18CE2B",
"N. c #1AC92C",
"B. c #1BCA2D",
"V. c #1BCB2E",
"C. c #0DD222",
"Z. c #0AD421",
"A. c #0DD522",
"S. c #0DD622",
"D. c #0EDA23",
"F. c #0EDB23",
"G. c #0FD825",
"H. c #10D124",
"J. c #11D126",
"K. c #18D22B",
"L. c #1DD931",
"P. c #1DDB31",
"I. c #09E020",
"U. c #0AE622",
"Y. c #0FE526",
"T. c #16E22C",
"R. c #16EA2C",
"E. c #07F021",
"W. c #0BF924",
"Q. c None",
/* pixels */
"Q.Q.Q.Q.Q.Q.* * : * Q.Q.Q.Q.Q.Q.",
"Q.Q.Q.Q.. : u d d u 1 @ Q.Q.Q.Q.",
"Q.Q.Q.3 f G { @.@.' n e , Q.Q.Q.",
"Q.Q.: C 6.k.U.K.M.Z.7.( b 3 Q.Q.",
"Q.. f 5.z.W.R.P.P.T.D.g.4.f @ Q.",
"Q.: H h.I.H.m.B.B.N.Y.E.j.F , Q.",
"* i ) f.0.2.9.s.d.u.a.C.z.( y . ",
"* j Q +.%.%.,.x.c.<.3.q.e.} d @ ",
"* t m C E X.;.A.b.*. .O.+.! d @ ",
"* 9 l l S / ;.A.n.*.W n c c r % ",
"Q.6 f S R / -.A.b.o.P A n z 6 Q.",
"Q.* r L ) $.7.D.H.<.} ~ L e & Q.",
"Q.Q.6 Z { :.w.G.n.u.,._ b , Q.Q.",
"Q.Q.Q.: e H t.p.p.r.H r 2 Q.Q.Q.",
"Q.Q.Q.Q.. r T T R L e . Q.Q.Q.Q.",
"Q.Q.Q.Q.Q.Q.@ . . . Q.Q.Q.Q.Q.Q."
};
