/* XPM */
static char *_25_Collectables_Sheet_1[] = {
/* columns rows colors chars-per-pixel */
"16 16 176 2 ",
"   c black",
".  c #000300",
"X  c #000500",
"o  c #000600",
"O  c #000700",
"+  c #000800",
"@  c #000901",
"#  c #000A01",
"$  c #000902",
"%  c #000C01",
"&  c #000F01",
"*  c #000C02",
"=  c #000E02",
"-  c #001001",
";  c #001202",
":  c #011202",
">  c #011302",
",  c #011403",
"<  c #011503",
"1  c #021304",
"2  c #011504",
"3  c #001C03",
"4  c #021805",
"5  c #011D04",
"6  c #011D05",
"7  c #001E04",
"8  c #011F05",
"9  c #021E05",
"0  c #002103",
"q  c #012305",
"w  c #022405",
"e  c #022505",
"r  c #002604",
"t  c #022705",
"y  c #012706",
"u  c #022706",
"i  c #022807",
"p  c #032D07",
"a  c #062409",
"s  c #06290A",
"d  c #042D09",
"f  c #052F09",
"g  c #072D0A",
"h  c #013106",
"j  c #023207",
"k  c #003806",
"l  c #013A07",
"z  c #033208",
"x  c #023308",
"c  c #023708",
"v  c #023B08",
"b  c #033D0A",
"n  c #043E0A",
"m  c #06430B",
"M  c #06450B",
"N  c #07400D",
"B  c #06470C",
"V  c #07460E",
"C  c #07470E",
"Z  c #08450E",
"A  c #09450F",
"S  c #07490E",
"D  c #054C0C",
"F  c #08490F",
"G  c #084C0F",
"H  c #04500C",
"J  c #06520E",
"K  c #07520F",
"L  c #03540C",
"P  c #005A09",
"I  c #005B0A",
"U  c #094C10",
"Y  c #0C4F12",
"T  c #095110",
"R  c #095011",
"E  c #0A5111",
"W  c #085311",
"Q  c #0A5212",
"!  c #0A5711",
"~  c #0D5514",
"^  c #0A5A11",
"/  c #0A5A12",
"(  c #0C5B13",
")  c #00660A",
"_  c #03680D",
"`  c #02690D",
"'  c #0A6113",
"]  c #0B6214",
"[  c #056D10",
"{  c #086D13",
"}  c #0B6814",
"|  c #0B6B15",
" . c #0E6B17",
".. c #096D14",
"X. c #0E6C16",
"o. c #0D6E17",
"O. c #0E6D18",
"+. c #106D19",
"@. c #136B1C",
"#. c #0A7414",
"$. c #0B7517",
"%. c #0B7616",
"&. c #0A7815",
"*. c #13701D",
"=. c #14701D",
"-. c #0B8318",
";. c #0C8318",
":. c #0C8519",
">. c #0B8F19",
",. c #0D8C1A",
"<. c #0D8E1A",
"1. c #12821D",
"2. c #12811E",
"3. c #10841C",
"4. c #108D1D",
"5. c #0C981B",
"6. c #0E9F1D",
"7. c #08A217",
"8. c #0CA21C",
"9. c #0EA91D",
"0. c #0CAD1D",
"q. c #02B915",
"w. c #01BB15",
"e. c #02BA16",
"r. c #0BB31C",
"t. c #08B91A",
"y. c #0ABC1C",
"u. c #129620",
"i. c #119820",
"p. c #119F20",
"a. c #11A420",
"s. c #14AD24",
"d. c #14AE24",
"f. c #12B222",
"g. c #12BE24",
"h. c #14BE25",
"j. c #04C718",
"k. c #07C51A",
"l. c #04C818",
"z. c #06CD1A",
"x. c #07DA1D",
"c. c #01E419",
"v. c #06F21F",
"b. c #0ECD22",
"n. c #11C623",
"m. c #10CB23",
"M. c #10CA24",
"N. c #10CB24",
"B. c #19C62B",
"V. c #1AC82C",
"C. c #1BCB2D",
"Z. c #1BCB2E",
"A. c #0DD322",
"S. c #0DD522",
"D. c #0DD722",
"F. c #0EDB23",
"G. c #09DE20",
"H. c #0FD825",
"J. c #0FDD25",
"K. c #10D024",
"L. c #10D125",
"P. c #11D126",
"I. c #17D62B",
"U. c #16D72B",
"Y. c #1DD631",
"T. c #08EB20",
"R. c #08ED21",
"E. c #09ED22",
"W. c #0AEC22",
"Q. c #15E62C",
"!. c #16E62C",
"~. c #06F220",
"^. c #06F420",
"/. c #0DFC27",
"(. c #0CFF26",
"). c None",
/* pixels */
").).).).).).@ * * @ ).).).).).).",
").).).).  0 P ) ) P q   ).).).).",
").).).9 z _ e.j.l.w._ z 9 ).).).",
").).4 ^ t.~.R.I.U.R.R.y.[ q ).).",
").X j 7.R.(.!.Y.Y.!./.~.e.k   ).",
")., D z.G.K.B.C.Z.V.J.^.c.L 2 ).",
"- s } k.8.3.6.g.h.a.f.A.x.X.a X ",
"- z ! #. .+.<.b.n.1.<.9.r.X.g @ ",
", p M N Z ( :.F.N.*.O.$.&.^ d @ ",
"- r k n k D -.A.N.=.~ S n n i * ",
").3 j S Z E :.A.N.@.Y F C x q ).",
").- i E ' $.5.F.K.1.O.' G e * ).",
").).9 S { >.0.H.K.p.<.{ m 2 ).).",
").).)., e K i.s.s.u.K i 3 ).).).",
").).).).X i E E E U i X ).).).).",
").).).).).).@ @ X   ).).).).).)."
};
