/* XPM */
static char *_26_Collectables_Sheet_1[] = {
/* columns rows colors chars-per-pixel */
"16 16 178 2 ",
"   c black",
".  c #000100",
"X  c #000300",
"o  c #000500",
"O  c #000700",
"+  c #000800",
"@  c #000900",
"#  c #000901",
"$  c #000A00",
"%  c #000B00",
"&  c #010A01",
"*  c #000902",
"=  c #000C01",
"-  c #000C02",
";  c #010C02",
":  c #010E02",
">  c #001001",
",  c #011603",
"<  c #011704",
"1  c #011C03",
"2  c #011E04",
"3  c #002003",
"4  c #002103",
"5  c #002004",
"6  c #012005",
"7  c #002204",
"8  c #002404",
"9  c #002604",
"0  c #012705",
"q  c #022605",
"w  c #012606",
"e  c #022706",
"r  c #022807",
"t  c #022B06",
"y  c #003406",
"u  c #013406",
"i  c #013407",
"p  c #013607",
"a  c #05320A",
"s  c #05360A",
"d  c #053E0B",
"f  c #063F0C",
"g  c #06430D",
"h  c #034A0B",
"j  c #01520A",
"k  c #04500D",
"l  c #05510D",
"z  c #07520E",
"x  c #07520F",
"c  c #005A09",
"v  c #005B0A",
"b  c #025A0A",
"n  c #005C08",
"m  c #094C10",
"M  c #095111",
"N  c #0A5311",
"B  c #0C5213",
"V  c #0A5412",
"C  c #0D5114",
"Z  c #0D5A14",
"A  c #0D5C14",
"S  c #0C5F14",
"D  c #0C5F15",
"F  c #006609",
"G  c #00660A",
"H  c #03650E",
"J  c #006A0A",
"K  c #016A0C",
"L  c #03680E",
"P  c #01770D",
"I  c #017D0E",
"U  c #086312",
"Y  c #086F13",
"T  c #0A6A14",
"R  c #0D6B17",
"E  c #096C14",
"W  c #0B6C15",
"Q  c #0A6E15",
"!  c #0C6D16",
"~  c #0F6718",
"^  c #0F6D19",
"/  c #106619",
"(  c #106719",
")  c #106819",
"_  c #106919",
"`  c #116B1A",
"'  c #136A1C",
"]  c #087215",
"[  c #0D7118",
"{  c #10731A",
"}  c #14701D",
"|  c #0E821A",
" . c #0E841B",
".. c #0F871C",
"X. c #0C8C19",
"o. c #0D8D1A",
"O. c #12811E",
"+. c #0C991B",
"@. c #0E9D1D",
"#. c #07A516",
"$. c #0CA31C",
"%. c #0DAB1F",
"&. c #01B915",
"*. c #02B916",
"=. c #01BC15",
"-. c #05B618",
";. c #08B01B",
":. c #158F22",
">. c #129520",
",. c #119620",
"<. c #129620",
"1. c #119F20",
"2. c #129E20",
"3. c #149F23",
"4. c #10A220",
"5. c #10A620",
"6. c #14A724",
"7. c #15A724",
"8. c #12AA21",
"9. c #13A922",
"0. c #13AA22",
"q. c #14A824",
"w. c #14A924",
"e. c #14AF25",
"r. c #15AF25",
"t. c #13B023",
"y. c #13B425",
"u. c #14B625",
"i. c #15B526",
"p. c #17B628",
"a. c #17BD28",
"s. c #01C917",
"d. c #01CD17",
"f. c #02CC17",
"g. c #04C719",
"h. c #05C719",
"j. c #04C918",
"k. c #08DD1F",
"l. c #03F61E",
"z. c #04F51E",
"x. c #0CC620",
"c. c #11C425",
"v. c #12CC26",
"b. c #16C628",
"n. c #15CE29",
"m. c #17CD2B",
"M. c #0CD121",
"N. c #10DD26",
"B. c #14D128",
"V. c #17D72C",
"C. c #19D02D",
"Z. c #19D32D",
"A. c #18D42D",
"S. c #18D72C",
"D. c #19D62D",
"F. c #19D72D",
"G. c #15D929",
"H. c #17DA2C",
"J. c #19DA2E",
"K. c #1ED131",
"L. c #0FE525",
"P. c #0AE923",
"I. c #0CE823",
"U. c #08EE21",
"Y. c #0AED22",
"T. c #0CEE24",
"R. c #10E227",
"E. c #11E327",
"W. c #12E028",
"Q. c #15E12B",
"!. c #11E628",
"~. c #14E42B",
"^. c #16E02C",
"/. c #12EE2A",
"(. c #14EC2C",
"). c #0DF025",
"_. c #11F029",
"`. c None",
/* pixels */
"`.`.`.`.`.`.& ; ; & `.`.`.`.`.`.",
"`.`.`.`.  3 n F F v 7   `.`.`.`.",
"`.`.`.9 p L *.h.h.=.L u 7 `.`.`.",
"`.`.3 I f.z.I.A.V.U.l.s.P 9 `.`.",
"`.  u f.T._.).Q.J.Q./.P.&.y   `.",
"`.3 L Y.(.H.!.N.J.K.A.!.k.H 7 `.",
"& n -.A.~.R.B.n.C.A.N.R.G.;.j   ",
"; J j.b.n.c.5.u.a.p.x.M.v.%.l o ",
"; n #.2.4.>. .9.t.:.+.$.4.O.g ; ",
"> a S / / ) [ 9.w.} / ) ) A a ; ",
"`.2 g [ D C ^ 9.w.' C A W d 3 `.",
"`.& r Q Q ! | e.r.O.! W U 9 ; `.",
"`.`.7 l ] X.@.u.u.2.X.] h < `.`.",
"`.`.`.< 9 z >.7.7.>.z r 2 `.`.`.",
"`.`.`.`.o r M V N m e o `.`.`.`.",
"`.`.`.`.`.`.& & o   `.`.`.`.`.`."
};
