/* XPM */
static char *_27_Collectables_Sheet_1[] = {
/* columns rows colors chars-per-pixel */
"16 16 172 2 ",
"   c black",
".  c #000100",
"X  c #000300",
"o  c #000500",
"O  c #000700",
"+  c #000800",
"@  c #000900",
"#  c #000901",
"$  c #000A00",
"%  c #000B00",
"&  c #010A01",
"*  c #000902",
"=  c #000C01",
"-  c #000C02",
";  c #010C02",
":  c #010E02",
">  c #001001",
",  c #011603",
"<  c #011704",
"1  c #011C03",
"2  c #011E04",
"3  c #002003",
"4  c #002103",
"5  c #002004",
"6  c #012005",
"7  c #002204",
"8  c #002404",
"9  c #002604",
"0  c #012705",
"q  c #022605",
"w  c #012606",
"e  c #022706",
"r  c #022807",
"t  c #022B06",
"y  c #003406",
"u  c #013407",
"i  c #013607",
"p  c #05320A",
"a  c #05360A",
"s  c #053E0B",
"d  c #063E0C",
"f  c #06470E",
"g  c #034A0B",
"h  c #02540B",
"j  c #04500D",
"k  c #07520E",
"l  c #07520F",
"z  c #05550F",
"x  c #005B09",
"c  c #005B0A",
"v  c #005E09",
"b  c #025C0A",
"n  c #094C10",
"m  c #095111",
"M  c #0A5311",
"N  c #0C5313",
"B  c #0A5412",
"V  c #0D5214",
"C  c #0D5A14",
"Z  c #0C5D14",
"A  c #0C5F15",
"S  c #03630D",
"D  c #03670E",
"F  c #00680A",
"G  c #006C0A",
"H  c #016A0C",
"J  c #01770D",
"K  c #017D0E",
"L  c #086312",
"P  c #086F13",
"I  c #0A6A14",
"U  c #096D14",
"Y  c #0B6C15",
"T  c #0A6E15",
"R  c #0C6D16",
"E  c #0D6C17",
"W  c #0F6D19",
"Q  c #116219",
"!  c #116319",
"~  c #106418",
"^  c #106519",
"/  c #106819",
"(  c #106919",
")  c #11681A",
"_  c #116F1A",
"`  c #136A1C",
"'  c #146F1C",
"]  c #087215",
"[  c #0E7018",
"{  c #0E7C1A",
"}  c #0F7C1B",
"|  c #0F7E1B",
" . c #12701B",
".. c #10741A",
"X. c #14701D",
"o. c #147A1E",
"O. c #0E821A",
"+. c #0E881A",
"@. c #0C8C19",
"#. c #0D8D1A",
"$. c #12811E",
"%. c #13851F",
"&. c #118B1D",
"*. c #128D1F",
"=. c #138D1F",
"-. c #128F1F",
";. c #0E9D1D",
":. c #0D9F1D",
">. c #109C1F",
",. c #07A117",
"<. c #08AA1A",
"1. c #05B217",
"2. c #01BA15",
"3. c #01BB15",
"4. c #02B816",
"5. c #0CBC1E",
"6. c #148B21",
"7. c #168922",
"8. c #129520",
"9. c #129620",
"0. c #119F20",
"q. c #15A624",
"w. c #14A724",
"e. c #15A724",
"r. c #15A625",
"t. c #13A922",
"y. c #13AA22",
"u. c #12AD22",
"i. c #13AD23",
"p. c #14A824",
"a. c #14A924",
"s. c #17A826",
"d. c #14AF25",
"f. c #18AD28",
"g. c #13B023",
"h. c #15B225",
"j. c #13B425",
"k. c #15B526",
"l. c #17B426",
"z. c #10B922",
"x. c #13BF25",
"c. c #13BD26",
"v. c #15BC27",
"b. c #15BE26",
"n. c #03C417",
"m. c #01CA17",
"M. c #01CC17",
"N. c #04C418",
"B. c #02CD18",
"V. c #07D71E",
"C. c #06E61E",
"Z. c #03F51D",
"A. c #04F41E",
"S. c #12C525",
"D. c #10C924",
"F. c #13C926",
"G. c #13CA26",
"H. c #1CC42D",
"J. c #16CC2A",
"K. c #0ED724",
"L. c #14D328",
"P. c #19D12C",
"I. c #1AD12D",
"U. c #0BE322",
"Y. c #09E821",
"T. c #0BED23",
"R. c #12E228",
"E. c #13E429",
"W. c #12EE2A",
"Q. c #12EF2A",
"!. c #0DF425",
"~. c None",
/* pixels */
"~.~.~.~.~.~.& & ; & ~.~.~.~.~.~.",
"~.~.~.~.  3 v F F c 5   ~.~.~.~.",
"~.~.~.9 i H 4.n.n.2.H u 5 ~.~.~.",
"~.~.3 K m.A.U.x.x.C.Z.m.J 9 ~.~.",
"~.  u B.!.W.K.-.6.L.Q.T.2.i   ~.",
"~.3 H Y.E.J.D.o.o.H.P.R.V.S 5 ~.",
"& v 1.v.z.5.G.r.s.P.G.S.x.<.h   ",
"; G N.r.6.+.>.i.l.d.-.-.6.:.z O ",
"; c ,.%._ _ { i.l.7. .W _ } f & ",
"> a Z ! ! ^ [ t.s.X.! ^ ^ C p & ",
"~.2 s [ A N W t.t.` V Z W s 2 ~.",
"~.& t R R Y O.i.d.$.R I L 9 & ~.",
"~.~.5 k ] +.:.j.j.q.#.R g < ~.~.",
"~.~.~., 9 B 9.w.q.9.k 9 2 ~.~.~.",
"~.~.~.~.O 9 B B l n 9 & ~.~.~.~.",
"~.~.~.~.~.~.O O O   ~.~.~.~.~.~."
};
