/* XPM */
static char *_28_Collectables_Sheet_1[] = {
/* columns rows colors chars-per-pixel */
"16 16 178 2 ",
"   c black",
".  c #000100",
"X  c #010100",
"o  c #000300",
"O  c #000500",
"+  c #000900",
"@  c #000901",
"#  c #000B01",
"$  c #000C00",
"%  c #000D00",
"&  c #000F01",
"*  c #000E02",
"=  c #000F02",
"-  c #001001",
";  c #001102",
":  c #011103",
">  c #001202",
",  c #011202",
"<  c #001302",
"1  c #011302",
"2  c #011203",
"3  c #001403",
"4  c #011603",
"5  c #011704",
"6  c #001802",
"7  c #001A02",
"8  c #011E04",
"9  c #002003",
"0  c #002103",
"q  c #002004",
"w  c #012005",
"e  c #002204",
"r  c #002404",
"t  c #002504",
"y  c #002604",
"u  c #012605",
"i  c #012606",
"p  c #022707",
"a  c #012905",
"s  c #022806",
"d  c #022906",
"f  c #022A06",
"g  c #022E07",
"h  c #052709",
"j  c #052A09",
"k  c #042D08",
"l  c #003406",
"z  c #003A07",
"x  c #013E07",
"c  c #033809",
"v  c #033909",
"b  c #023B09",
"n  c #033F09",
"m  c #07390C",
"M  c #05440B",
"N  c #05430C",
"B  c #05470C",
"V  c #034A0B",
"C  c #024D0A",
"Z  c #07490E",
"A  c #064F0D",
"S  c #074E0E",
"D  c #074F0F",
"F  c #084C0F",
"G  c #02540B",
"H  c #04500D",
"J  c #07500F",
"K  c #05550E",
"L  c #05560F",
"P  c #03580C",
"I  c #084C10",
"U  c #0D4E13",
"Y  c #0D5113",
"T  c #0C5513",
"R  c #0D5915",
"E  c #0B5C14",
"W  c #0C5D14",
"Q  c #0F5E17",
"!  c #03630D",
"~  c #01770D",
"^  c #017D0E",
"/  c #086312",
"(  c #0C6015",
")  c #0E6217",
"_  c #0E6517",
"`  c #0A6C13",
"'  c #0A6B14",
"]  c #0B6A15",
"[  c #0C6915",
"{  c #0D6817",
"}  c #0C6A16",
"|  c #0A6F15",
" . c #0F6918",
".. c #0F6A18",
"X. c #106418",
"o. c #116519",
"O. c #106619",
"+. c #106719",
"@. c #106819",
"#. c #106B18",
"$. c #106B19",
"%. c #106D19",
"&. c #116D1B",
"*. c #126C1B",
"=. c #136D1B",
"-. c #077214",
";. c #0B7016",
":. c #087515",
">. c #097A15",
",. c #0F7119",
"<. c #0F7219",
"1. c #0F771A",
"2. c #0D7818",
"3. c #10731A",
"4. c #10741A",
"5. c #10771B",
"6. c #12701C",
"7. c #13731C",
"8. c #11791C",
"9. c #12781C",
"0. c #15791F",
"q. c #167B1F",
"w. c #117E1C",
"e. c #0D8419",
"r. c #0D841A",
"t. c #0E861A",
"y. c #15801E",
"u. c #11841D",
"i. c #11861C",
"p. c #11861D",
"a. c #12871D",
"s. c #12841E",
"d. c #14851F",
"f. c #14871F",
"g. c #11881C",
"h. c #118A1F",
"j. c #138B1F",
"k. c #118F1E",
"l. c #128F1F",
"z. c #11911E",
"x. c #0EA11E",
"c. c #08AA1A",
"v. c #01BB15",
"b. c #0CBC1F",
"n. c #129420",
"m. c #129A20",
"M. c #169B22",
"N. c #129E20",
"B. c #129F20",
"V. c #16A025",
"C. c #14A823",
"Z. c #0FBD22",
"A. c #10B021",
"S. c #16B627",
"D. c #11B822",
"F. c #13BD26",
"G. c #1AB42A",
"H. c #01CA17",
"J. c #02CE18",
"K. c #00D518",
"L. c #07D71E",
"P. c #05DA1D",
"I. c #06DE1E",
"U. c #03F51E",
"Y. c #13CA27",
"T. c #14C826",
"R. c #16CE2A",
"E. c #19CD2C",
"W. c #10D025",
"Q. c #14DD2A",
"!. c #09E721",
"~. c #0BEB23",
"^. c #12E228",
"/. c #12E429",
"(. c #13E529",
"). c #0CF626",
"_. c #12F22B",
"`. c None",
/* pixels */
"`.`.`.`.`.`.: 3 3 % `.`.`.`.`.`.",
"`.`.`.`.  % 9 y s j :   `.`.`.`.",
"`.`.`.y x C M N A ` P z q `.`.`.",
"`.`.9 ^ K.P.1.U >.I.U.H.~ y `.`.",
"`.  z J.).^.A.$.w.Q._.~.v.l   `.",
"`.: K ~.(.R.W.g.q.G.E.^.L.! q `.",
": j _ S.Z.b.T.M.y.g.D.Y.F.c.G   ",
": g W V.z.t.z.f.q.7.i.l.z.x.L O ",
": j D 5.7.o.<.j.i.o.{ $.&.2.N @ ",
": y v Z R { 7.C.N.W Q o.) B y % ",
"`.7 c ] E T <.N.m.X.Y W ] v 7 `.",
"`.% g | | ] <.i.d.*.{ ] / j % `.",
"`.`.q J :.r.8.*.*.8.r.-.V 5 `.`.",
"`.`.`.3 y A u. .&.g.J s 8 `.`.`.",
"`.`.`.`.O j I m m A s @ `.`.`.`.",
"`.`.`.`.`.`.@ @ @   `.`.`.`.`.`."
};
