/* XPM */
static char *_29_Collectables_Sheet_1[] = {
/* columns rows colors chars-per-pixel */
"16 16 169 2 ",
"   c #000300",
".  c #000701",
"X  c #000900",
"o  c #000901",
"O  c #000B01",
"+  c #000B02",
"@  c #000C00",
"#  c #000D01",
"$  c #000F01",
"%  c #000D02",
"&  c #000E02",
"*  c #001100",
"=  c #001001",
"-  c #001101",
";  c #001201",
":  c #001301",
">  c #001002",
",  c #001102",
"<  c #001103",
"1  c #001202",
"2  c #001302",
"3  c #001402",
"4  c #001403",
"5  c #001602",
"6  c #001702",
"7  c #001A02",
"8  c #001C03",
"9  c #001D03",
"0  c #001E03",
"q  c #001904",
"w  c #011D04",
"e  c #001E04",
"r  c #011E05",
"t  c #012104",
"y  c #002204",
"u  c #002304",
"i  c #002205",
"p  c #022305",
"a  c #012504",
"s  c #012405",
"d  c #022506",
"f  c #012805",
"g  c #012B07",
"h  c #022D07",
"j  c #002F06",
"k  c #042D08",
"l  c #042F09",
"z  c #062F0A",
"x  c #013007",
"c  c #023107",
"v  c #013206",
"b  c #023307",
"n  c #013407",
"m  c #013706",
"M  c #023907",
"N  c #023A07",
"B  c #07330B",
"V  c #023608",
"C  c #023708",
"Z  c #033609",
"A  c #05370A",
"S  c #023A08",
"D  c #043809",
"F  c #023D08",
"G  c #033C09",
"H  c #023E09",
"J  c #033F09",
"K  c #073A0C",
"L  c #03400A",
"P  c #03410A",
"I  c #04400A",
"U  c #05410A",
"Y  c #05410B",
"T  c #04420A",
"R  c #04420B",
"E  c #05420B",
"W  c #04440B",
"Q  c #05440B",
"!  c #04460B",
"~  c #05420C",
"^  c #05440C",
"/  c #06450C",
"(  c #07450C",
")  c #06450D",
"_  c #05460C",
"`  c #06460C",
"'  c #06460D",
"]  c #07460D",
"[  c #06470D",
"{  c #07470D",
"}  c #07470E",
"|  c #08470E",
" . c #06480D",
".. c #074C0E",
"X. c #08490E",
"o. c #084A0E",
"O. c #094D0F",
"+. c #084E0F",
"@. c #094F0F",
"#. c #084D10",
"$. c #084E10",
"%. c #0A4F11",
"&. c #0A5212",
"*. c #0B5412",
"=. c #0B5713",
"-. c #0D5513",
";. c #0C5713",
":. c #0D5614",
">. c #0D5615",
",. c #0B5813",
"<. c #0C5A13",
"1. c #0C5A14",
"2. c #0D5B14",
"3. c #0F5B16",
"4. c #0B5D14",
"5. c #0C5D14",
"6. c #0F5D17",
"7. c #105F18",
"8. c #0B6413",
"9. c #0E6116",
"0. c #0E6316",
"q. c #0D6615",
"w. c #0F6517",
"e. c #0F6617",
"r. c #0C6A15",
"t. c #0F6518",
"y. c #0F6818",
"u. c #0F6918",
"i. c #0F6A18",
"p. c #0F6B18",
"a. c #106018",
"s. c #106218",
"d. c #106318",
"f. c #116219",
"g. c #116319",
"h. c #106418",
"j. c #116418",
"k. c #116419",
"l. c #106719",
"z. c #136A1B",
"x. c #106D19",
"c. c #116E1A",
"v. c #116F1A",
"b. c #136F1B",
"n. c #136A1C",
"m. c #126F1C",
"M. c #0D7918",
"N. c #13701B",
"B. c #10741A",
"V. c #10791B",
"C. c #107E1B",
"Z. c #127B1C",
"A. c #127A1D",
"S. c #127B1D",
"D. c #13791E",
"F. c #11801C",
"G. c #11871E",
"H. c #12891F",
"J. c #0A9D19",
"K. c #0D9A1C",
"L. c #11901F",
"P. c #148720",
"I. c #168D22",
"U. c #158E22",
"Y. c #168F22",
"T. c #179A25",
"R. c #18A527",
"E. c #1AAE2A",
"W. c None",
/* pixels */
"W.W.W.W.W.W., 6 , < W.W.W.W.W.W.",
"W.W.W.W., r a f f t 7 # W.W.W.W.",
"W.W.W.6 t j S F P Y A a , W.W.W.",
"W.W., V S S F Y &.5.9.+.j 6 W.W.",
"W.# 0 F ( | X.( *.b.T.H.#.a , W.",
"W.r A ..8.r.,. .#.N.E.R.h.D 7 W.",
", z :.m.K.J.q.( ( h.U.U.N.! 0 o ",
", B t.U.L.M.,.5.h.n.Z.Z.u.( t o ",
"< c 4.P.Z.t.,.N.S.m.b.u.9.! t # ",
"< t ~ 6.j.9.b.C.Z.7.j.j.5.Y t # ",
"W.r c ~ J } ,.q.,.~  .+.( c r W.",
"W., t V F ( :.3.-.( Q P S t 6 W.",
"W.W.q c ~ &.h.9.t.t.( c f , W.W.",
"W.W.W., r ~ F.z.u.H.W 0 6 W.W.W.",
"W.W.W.W.# j #.K K $.z , W.W.W.W.",
"W.W.W.W.W.W.o # o   W.W.W.W.W.W."
};
