/* XPM */
static char *_30_Collectables_Sheet_1[] = {
/* columns rows colors chars-per-pixel */
"16 16 141 2 ",
"   c #000300",
".  c #000500",
"X  c #000700",
"o  c #000701",
"O  c #000800",
"+  c #000B02",
"@  c #000D00",
"#  c #000C01",
"$  c #000F01",
"%  c #000D02",
"&  c #000E02",
"*  c #001101",
"=  c #001201",
"-  c #001301",
";  c #001002",
":  c #001102",
">  c #001003",
",  c #001103",
"<  c #001202",
"1  c #011202",
"2  c #001502",
"3  c #001403",
"4  c #011403",
"5  c #001602",
"6  c #001702",
"7  c #001902",
"8  c #001A03",
"9  c #001D03",
"0  c #011D03",
"q  c #001A04",
"w  c #001D04",
"e  c #001E04",
"r  c #002303",
"t  c #012004",
"y  c #012204",
"u  c #002404",
"i  c #012505",
"p  c #022405",
"a  c #012604",
"s  c #012605",
"d  c #022706",
"f  c #012805",
"g  c #032B05",
"h  c #012906",
"j  c #022B06",
"k  c #012F06",
"l  c #022E07",
"z  c #022F07",
"x  c #013007",
"c  c #013107",
"v  c #023407",
"b  c #013607",
"n  c #013907",
"m  c #013A07",
"M  c #023A07",
"N  c #033508",
"B  c #023608",
"V  c #033609",
"C  c #023808",
"Z  c #023908",
"A  c #023A08",
"S  c #023B08",
"D  c #013D08",
"F  c #023C08",
"G  c #033C08",
"H  c #023D08",
"J  c #033D09",
"K  c #023E08",
"L  c #033F09",
"P  c #053D0A",
"I  c #043F0A",
"U  c #04400A",
"Y  c #05400A",
"T  c #04420B",
"R  c #04430B",
"E  c #05440C",
"W  c #06450C",
"Q  c #06460D",
"!  c #07460D",
"~  c #06470D",
"^  c #07470D",
"/  c #074A0D",
"(  c #074D0E",
")  c #08490E",
"_  c #084B0F",
"`  c #094E10",
"'  c #0A4E10",
"]  c #085510",
"[  c #095511",
"{  c #095412",
"}  c #0A5512",
"|  c #0A5612",
" . c #0C5513",
".. c #0C5712",
"X. c #0D5714",
"o. c #0A5A12",
"O. c #0C5913",
"+. c #095C12",
"@. c #0B5C12",
"#. c #0C5B14",
"$. c #0D5A15",
"%. c #0D5B15",
"&. c #0C5F15",
"*. c #0D6516",
"=. c #0C6716",
"-. c #0F6717",
";. c #0E6A17",
":. c #0F6918",
">. c #0F6C18",
",. c #106718",
"<. c #106619",
"1. c #12651A",
"2. c #106819",
"3. c #116819",
"4. c #106A19",
"5. c #11681A",
"6. c #12681A",
"7. c #136B1B",
"8. c #116E1A",
"9. c #126E1B",
"0. c #0B7316",
"q. c #11711A",
"w. c #12721B",
"e. c #14711C",
"r. c #127F1D",
"t. c #137E1E",
"y. c #137F1E",
"u. c #0C8118",
"i. c #0E811A",
"p. c #0E8A1A",
"a. c #14801F",
"s. c #128D1F",
"d. c #168921",
"f. c #138D20",
"g. c #148E21",
"h. c #129020",
"j. c #149322",
"k. c #159823",
"l. c #14A123",
"z. c #15A223",
"x. c None",
/* pixels */
"x.x.x.x.x.x.: 6 : : x.x.x.x.x.x.",
"x.x.x.x.: w d f f d 8 6 x.x.x.x.",
"x.x.x.6 t z S K K S x t : x.x.x.",
"x.x.: B S S S S S S S B k 6 x.x.",
"x.$ t n K n S S S B S K S t 6 x.",
"x.9 k n Y Y K S L L L S S z w x.",
": d n G '  .W Y ! X.! L S S t O ",
"6 d L ) 0.u.@.) O.y.O.L B K d $ ",
"6 f Y O.u.p.;. .5.d.<._ K K d O ",
": t T 1.e.4.1.:.9.e.9.%.W K d & ",
"x.8 B *.>.:.5.a.y.6.4.=.{ v w x.",
"x.$ f ( { o.5.f.g.9.*.@./ d : x.",
"x.x.q B b W w.j.k.y. .L f : x.x.",
"x.x.x.$ 8 W s.z.z.g.! 9 6 x.x.x.",
"x.x.x.x.$ l {  .{ ( g $ x.x.x.x.",
"x.x.x.x.x.x.O . . . x.x.x.x.x.x."
};
