/* XPM */
static char *_31_Collectables_Sheet_1[] = {
/* columns rows colors chars-per-pixel */
"16 16 107 2 ",
"   c #000300",
".  c #000500",
"X  c #000700",
"o  c #000701",
"O  c #000800",
"+  c #000900",
"@  c #000B02",
"#  c #000F01",
"$  c #000D02",
"%  c #000E02",
"&  c #001101",
"*  c #001201",
"=  c #001301",
"-  c #001102",
";  c #001103",
":  c #001202",
">  c #011202",
",  c #001502",
"<  c #001403",
"1  c #011403",
"2  c #001702",
"3  c #001404",
"4  c #001D03",
"5  c #001C04",
"6  c #011C04",
"7  c #001E04",
"8  c #012004",
"9  c #012204",
"0  c #012205",
"q  c #022205",
"w  c #002504",
"e  c #012405",
"r  c #012505",
"t  c #022405",
"y  c #002604",
"u  c #012604",
"i  c #012605",
"p  c #022604",
"a  c #012906",
"s  c #022906",
"d  c #022B07",
"f  c #022F07",
"g  c #013006",
"h  c #013106",
"j  c #013007",
"k  c #013107",
"l  c #013A07",
"z  c #023A07",
"x  c #023608",
"c  c #023808",
"v  c #023908",
"b  c #023A08",
"n  c #023B08",
"m  c #023C08",
"M  c #023D08",
"N  c #033D08",
"B  c #033C09",
"V  c #033D09",
"C  c #023E08",
"Z  c #023F08",
"A  c #03400A",
"S  c #03420A",
"D  c #05440C",
"F  c #06450C",
"G  c #06450D",
"H  c #06460D",
"J  c #07470E",
"K  c #074C0E",
"L  c #074D0E",
"P  c #08490F",
"I  c #094B0F",
"U  c #084E10",
"Y  c #095311",
"T  c #0B5313",
"R  c #0A5412",
"E  c #0A5512",
"W  c #0C5414",
"Q  c #0E5714",
"!  c #095D12",
"~  c #0B5D13",
"^  c #0C5D13",
"/  c #0E5A15",
"(  c #0E5A16",
")  c #096012",
"_  c #106419",
"`  c #116519",
"'  c #116719",
"]  c #11651A",
"[  c #116D1A",
"{  c #116E1A",
"}  c #0F7219",
"|  c #0F7519",
" . c #0F7619",
".. c #0F771A",
"X. c #12731B",
"o. c #13711C",
"O. c #127F1C",
"+. c #14811F",
"@. c #11921E",
"#. c #10931E",
"$. c #128F20",
"%. c #139020",
"&. c #14A624",
"*. c #15A624",
"=. c #13AB23",
"-. c #14AC24",
";. c None",
/* pixels */
";.;.;.;.;.;.- 2 2 # ;.;.;.;.;.;.",
";.;.;.;.- 7 t s s t 5 2 ;.;.;.;.",
";.;.;.2 8 k b N N b k 7 - ;.;.;.",
";.;.- x N b b b N b b b f 2 ;.;.",
";.# 8 N N N b N b b b N b 8 2 ;.",
";.4 f b N b b b N N b N b k 7 ;.",
"- t b N b b N N b b b N b N 8 O ",
"2 s N b N b N D D b b b N A t O ",
"2 s N l b N P W R G N b b N t # ",
"- t l m b D ( ` _ ( G b b l t # ",
";.4 k N I ( _  . ._ Q P N k 7 ;.",
";.- t A ~ [ X.#.#.o.[ ~ S 8 - ;.",
";.;.7 A ~ } +.=.*.$. .) A 3 ;.;.",
";.;.;.2 8 P @.&.*.%.L t 7 ;.;.;.",
";.;.;.;.O f T R T U s O ;.;.;.;.",
";.;.;.;.;.;.O .     ;.;.;.;.;.;."
};
